<?xml version="1.0" standalone="no"?>
<!DOCTYPE svg PUBLIC "-//W3C//DTD SVG 1.1//EN" "http://www.w3.org/Graphics/SVG/1.1/DTD/svg11.dtd" >
<svg xmlns="http://www.w3.org/2000/svg" xmlns:xlink="http://www.w3.org/1999/xlink" version="1.1">
<metadata>
Created by FontForge 20170731 at Sun Oct  7 22:59:11 2012
 By Aleksey,,,
Copyright (c) 2012 by Glenjan. All rights reserved.
</metadata>
<defs>
<font id="EchoesSans" horiz-adv-x="610" >
  <font-face 
    font-family="Echoes Sans"
    font-weight="400"
    font-stretch="normal"
    units-per-em="1000"
    panose-1="2 0 5 6 0 0 0 2 0 4"
    ascent="750"
    descent="-250"
    x-height="500"
    cap-height="600"
    bbox="-178 -250 1777 862"
    underline-thickness="50"
    underline-position="-200"
    unicode-range="U+0020-FB04"
  />
<missing-glyph horiz-adv-x="467" 
d="M234 223q43 0 78 13l12 -31q-46 -18 -89 -18q-53 0 -82 20q-28 20 -28 52q0 39 36 52v4q-23 9 -23 37q0 29 22 44q24 18 74 18q40 0 83 -17l-13 -30q-33 11 -68 11q-54 0 -54 -27q0 -25 33 -25h74v-35h-81q-39 0 -39 -31q0 -17 13 -25q15 -12 52 -12zM385 301
q0 73 -39 115q-39 41 -111 41q-79 0 -115 -41q-39 -39 -39 -115q0 -69 36 -110q42 -45 118 -45q77 0 115 43q35 39 35 112zM43 300q0 88 51 141q50 52 140 52q84 0 135 -48q55 -52 55 -145q0 -80 -45 -133q-48 -59 -145 -59q-90 0 -139 51q-52 54 -52 141z" />
    <glyph glyph-name="i_j" unicode="ij" horiz-adv-x="454" 
d="M294 -6v506h102v-506q0 -84 -46 -131q-51 -56 -151 -56q-90 0 -165 44l31 71q61 -30 127 -30q54 0 79 30q23 26 23 72zM345 694q33 0 51.5 -17.5t18.5 -44.5q0 -26 -18.5 -43.5t-51.5 -17.5q-32 0 -50.5 17.5t-18.5 43.5q0 27 18.5 44.5t50.5 17.5zM23 431v69h161v-500
h-102v424zM133 694q33 0 51.5 -17.5t18.5 -44.5q0 -26 -18.5 -43.5t-51.5 -17.5q-31 0 -50 17.5t-19 43.5t19 44t50 18z" />
    <glyph glyph-name="l_j" unicode="lj" horiz-adv-x="442" 
d="M281 -6v506h102v-506q0 -82 -47 -131q-51 -56 -151 -56q-88 0 -165 44l31 71q61 -30 127 -30q53 0 80 30q23 26 23 72zM331 694q33 0 51.5 -17.5t18.5 -44.5q0 -26 -18.5 -43.5t-51.5 -17.5q-32 0 -50.5 17.5t-18.5 43.5q0 27 18.5 44.5t50.5 17.5zM9 585v65h162v-650
h-102v574z" />
    <glyph glyph-name="ff" unicode="ff" horiz-adv-x="728" 
d="M317 704q96 0 172 -44q55 44 138 44q102 0 185 -54l-38 -64q-68 34 -135 34q-61 0 -86 -27q-24 -25 -24 -70v-23h178v-74l-178 -7v-419h-102v418h-208v-418h-102v417h-88v71l88 8v30q0 79 55 128q52 50 145 50zM427 526q0 38 16 72q-52 22 -114 22q-61 0 -86 -27
q-24 -25 -24 -70v-23h208v26z" />
    <glyph glyph-name="fi" unicode="fi" horiz-adv-x="585" 
d="M317 704q106 0 189 -54l-38 -64q-68 34 -139 34q-61 0 -86 -27q-24 -25 -24 -70v-23h303v-500h-102v424l-31 3l-170 -8v-419h-102v418h-88v70l88 8v30q0 79 55 128q52 50 145 50z" />
    <glyph glyph-name="fl" unicode="fl" horiz-adv-x="585" 
d="M318 704q112 0 204 -56v-648h-102v605q-40 15 -91 15q-61 0 -86 -27q-24 -25 -24 -70v-23h166v-72l-166 -9v-419h-102v418h-88v70l88 8v30q0 70 43 116q55 62 158 62z" />
    <glyph glyph-name="ffi" unicode="ffi" horiz-adv-x="887" 
d="M627 704q108 0 193 -54l-38 -64q-68 34 -143 34q-61 0 -86 -27q-24 -25 -24 -70v-23h303v-500h-102v424l-28 3l-173 -8v-419h-102v418h-208v-418h-102v417h-88v71l88 8v30q0 79 55 128q52 50 145 50q96 0 172 -44q55 44 138 44zM427 526q0 38 16 72q-52 22 -114 22
q-61 0 -86 -27q-24 -25 -24 -70v-23h208v26z" />
    <glyph glyph-name="ffl" unicode="ffl" horiz-adv-x="895" 
d="M317 704q96 0 172 -44q55 44 139 44q112 0 204 -56v-648h-102v605q-40 15 -91 15q-61 0 -86 -27q-24 -25 -24 -70v-23h166v-72l-166 -9v-419h-102v418h-208v-418h-102v417h-88v71l88 8v30q0 79 55 128q52 50 145 50zM427 526q0 38 16 72q-52 22 -114 22q-61 0 -86 -27
q-24 -25 -24 -70v-23h208v26z" />
    <glyph glyph-name="f_f_j" unicode="ffj" horiz-adv-x="895" 
d="M317 704q96 0 172 -44q55 44 138 44q109 0 193 -54l-38 -64q-68 34 -143 34q-61 0 -86 -27q-24 -25 -24 -70v-23h303v-506q0 -84 -46 -131q-51 -56 -151 -56q-90 0 -165 44l32 69q63 -28 126 -28q54 0 79 30q23 26 23 72v430l-28 3l-173 -8v-419h-102v418h-208v-418h-102
v417h-88v71l88 8v30q0 79 55 128q52 50 145 50zM427 526q0 38 16 72q-52 22 -114 22q-61 0 -86 -27q-24 -25 -24 -70v-23h208v26z" />
    <glyph glyph-name="f_j" unicode="fj" horiz-adv-x="585" 
d="M317 704q102 0 185 -54l-38 -64q-68 34 -135 34q-61 0 -86 -27q-24 -25 -24 -70v-23h303v-506q0 -84 -46 -131q-51 -56 -151 -56q-90 0 -165 44l31 71q61 -30 127 -30q54 0 79 30q23 26 23 72v430l-31 3l-170 -8v-419h-102v418h-88v70l88 8v30q0 79 55 128q52 50 145 50z
" />
    <glyph glyph-name="i_l" unicode="il" horiz-adv-x="456" 
d="M294 650h102v-650h-102v650zM23 500h161v-500h-102v424l-59 7v69zM133 694q33 0 51.5 -17.5t18.5 -44.5q0 -26 -18.5 -43.5t-51.5 -17.5q-31 0 -50 17.5t-19 43.5t19 44t50 18z" />
    <glyph glyph-name="i_l_l" unicode="ill" horiz-adv-x="668" 
d="M294 650h102v-650h-102v650zM23 500h161v-500h-102v424l-59 7v69zM133 694q33 0 51.5 -17.5t18.5 -44.5q0 -26 -18.5 -43.5t-51.5 -17.5q-31 0 -50 17.5t-19 43.5t19 44t50 18zM506 650h102v-650h-102v650z" />
    <glyph glyph-name="j_l" unicode="jl" horiz-adv-x="456" 
d="M294 0v650h102v-650h-102zM23 431v69h161v-506q0 -84 -46 -131q-51 -56 -151 -56q-90 0 -165 44l31 71q61 -30 127 -30q54 0 79 30q23 26 23 72v430zM133 694q33 0 51.5 -17.5t18.5 -44.5q0 -26 -18.5 -43.5t-51.5 -17.5q-32 0 -50.5 17.5t-18.5 43.5q0 27 18.5 44.5
t50.5 17.5z" />
    <glyph glyph-name="l_l" unicode="ll" horiz-adv-x="442" 
d="M281 0v650h102v-650h-102zM9 585v65h162v-650h-102v574z" />
    <glyph glyph-name="l_i" unicode="li" horiz-adv-x="442" 
d="M281 0v500h102v-500h-102zM331 694q33 0 51.5 -17.5t18.5 -44.5q0 -26 -18.5 -43.5t-51.5 -17.5q-31 0 -50 17.5t-19 43.5t19 44t50 18zM9 585v65h162v-650h-102v574z" />
    <glyph glyph-name="l_l_i" unicode="lli" horiz-adv-x="646" 
d="M487 500h102v-500h-102v500zM537 694q33 0 51.5 -17.5t18.5 -44.5q0 -26 -18.5 -43.5t-51.5 -17.5q-31 0 -50 17.5t-19 43.5t19 44t50 18zM278 650h102v-650h-102v650zM9 650h162v-650h-102v574l-60 11v65z" />
    <glyph glyph-name="j_i" unicode="ji" horiz-adv-x="453" 
d="M294 0v500h102v-500h-102zM345 694q33 0 51.5 -17.5t18.5 -44.5q0 -26 -18.5 -43.5t-51.5 -17.5q-31 0 -50 17.5t-19 43.5t19 44t50 18zM23 431v69h161v-506q0 -84 -46 -131q-51 -56 -151 -56q-90 0 -165 44l31 71q61 -30 127 -30q54 0 79 30q23 26 23 72v430zM133 694
q33 0 51.5 -17.5t18.5 -44.5q0 -26 -18.5 -43.5t-51.5 -17.5q-32 0 -50.5 17.5t-18.5 43.5q0 27 18.5 44.5t50.5 17.5z" />
    <glyph glyph-name="j_i_l" unicode="jil" horiz-adv-x="664" 
d="M506 0v650h102v-650h-102zM294 0v500h102v-500h-102zM345 694q33 0 51.5 -17.5t18.5 -44.5q0 -26 -18.5 -43.5t-51.5 -17.5q-31 0 -50 17.5t-19 43.5t19 44t50 18zM23 431v69h161v-506q0 -84 -46 -131q-51 -56 -151 -56q-90 0 -165 44l31 71q61 -30 127 -30q54 0 79 30
q23 26 23 72v430zM133 694q33 0 51.5 -17.5t18.5 -44.5q0 -26 -18.5 -43.5t-51.5 -17.5q-32 0 -50.5 17.5t-18.5 43.5q0 27 18.5 44.5t50.5 17.5z" />
    <glyph glyph-name="j_i_l_l" unicode="jill" horiz-adv-x="877" 
d="M506 650h102v-650h-102v650zM294 500h102v-500h-102v500zM345 694q33 0 51.5 -17.5t18.5 -44.5q0 -26 -18.5 -43.5t-51.5 -17.5q-31 0 -50 17.5t-19 43.5t19 44t50 18zM718 650h102v-650h-102v650zM23 500h161v-506q0 -84 -46 -131q-51 -56 -151 -56q-90 0 -165 44l31 71
q61 -30 127 -30q54 0 79 30q23 26 23 72v430l-59 7v69zM133 694q33 0 51.5 -17.5t18.5 -44.5q0 -26 -18.5 -43.5t-51.5 -17.5q-32 0 -50.5 17.5t-18.5 43.5q0 27 18.5 44.5t50.5 17.5z" />
    <glyph glyph-name="i_i" unicode="ii" horiz-adv-x="454" 
d="M294 0v500h102v-500h-102zM345 694q33 0 51.5 -17.5t18.5 -44.5q0 -26 -18.5 -43.5t-51.5 -17.5q-31 0 -50 17.5t-19 43.5t19 44t50 18zM23 431v69h161v-500h-102v424zM133 694q33 0 51.5 -17.5t18.5 -44.5q0 -26 -18.5 -43.5t-51.5 -17.5q-31 0 -50 17.5t-19 43.5t19 44
t50 18z" />
    <glyph glyph-name="afii10103_afii10104" unicode="&#x456;&#x457;" horiz-adv-x="453" 
d="M294 0v500h102v-500h-102zM244 694q33 0 51.5 -17.5t18.5 -44.5q0 -26 -18.5 -43.5t-51.5 -17.5q-31 0 -50 17.5t-19 43.5t19 44t50 18zM23 431v69h161v-500h-102v424zM59 694q33 0 51.5 -17.5t18.5 -44.5q0 -26 -18.5 -43.5t-51.5 -17.5q-32 0 -50.5 17.5t-18.5 43.5
q0 27 18.5 44.5t50.5 17.5zM429 694q33 0 51.5 -17.5t18.5 -44.5q0 -26 -18.5 -43.5t-51.5 -17.5q-31 0 -50 17.5t-19 43.5t19 44t50 18z" />
    <glyph glyph-name="i_l_l_i" unicode="illi" horiz-adv-x="877" 
d="M23 500h161v-500h-102v424l-59 7v69zM133 694q33 0 51.5 -18t18.5 -44t-18.5 -43.5t-51.5 -17.5q-32 0 -50.5 18t-18.5 43q0 27 18.5 44.5t50.5 17.5zM294 0v650h102v-650h-102zM718 0v500h102v-500h-102zM506 0v650h102v-650h-102zM770 694q33 0 51.5 -18t18.5 -44
t-18.5 -43.5t-51.5 -17.5q-32 0 -50.5 18t-18.5 43q0 27 18.5 44.5t50.5 17.5z" />
    <glyph glyph-name=".notdef" horiz-adv-x="467" 
d="M234 223q43 0 78 13l12 -31q-46 -18 -89 -18q-53 0 -82 20q-28 20 -28 52q0 39 36 52v4q-23 9 -23 37q0 29 22 44q24 18 74 18q40 0 83 -17l-13 -30q-33 11 -68 11q-54 0 -54 -27q0 -25 33 -25h74v-35h-81q-39 0 -39 -31q0 -17 13 -25q15 -12 52 -12zM385 301
q0 73 -39 115q-39 41 -111 41q-79 0 -115 -41q-39 -39 -39 -115q0 -69 36 -110q42 -45 118 -45q77 0 115 43q35 39 35 112zM43 300q0 88 51 141q50 52 140 52q84 0 135 -48q55 -52 55 -145q0 -80 -45 -133q-48 -59 -145 -59q-90 0 -139 51q-52 54 -52 141z" />
    <glyph glyph-name=".null" horiz-adv-x="0" 
 />
    <glyph glyph-name="nonmarkingreturn" horiz-adv-x="333" 
 />
    <glyph glyph-name="space" unicode=" " horiz-adv-x="232" 
 />
    <glyph glyph-name="exclam" unicode="!" horiz-adv-x="227" 
d="M66 650h94v-141l-7 -344h-79l-8 344v141zM113 118q31 0 48.5 -18t17.5 -44q0 -28 -17.5 -45t-48.5 -17q-30 0 -47.5 17t-17.5 45q0 26 17.5 44t47.5 18z" />
    <glyph glyph-name="quotedbl" unicode="&#x22;" horiz-adv-x="287" 
d="M61 440l-12 160h82l-7 -160h-63zM163 440l-7 160h82l-12 -160h-63z" />
    <glyph glyph-name="numbersign" unicode="#" horiz-adv-x="504" 
d="M128 123l7 92h-87v61h94l6 66h-99v60h104l10 102l67 -6l-9 -96h70l10 102l67 -6l-9 -96h97v-60h-103l-6 -66h108v-61h-113l-10 -97l-66 5l7 92h-68l-10 -97zM216 342l-6 -66h70l6 66h-70z" />
    <glyph glyph-name="dollar" unicode="$" horiz-adv-x="647" 
d="M338 -89h-82l-4 80q-111 4 -212 41l25 80q111 -34 225 -34q117 0 170 29q41 25 41 70q0 31 -22 50q-24 20 -98 31l-158 23q-87 12 -134 48q-51 40 -51 109q0 76 58 120q58 43 171 51l4 74h82l3 -73q108 -4 207 -43l-29 -77q-99 34 -208 34q-108 0 -151 -26
q-31 -19 -31 -50q0 -28 22 -44q23 -18 80 -26l151 -22q125 -20 169 -63q43 -43 43 -115q0 -89 -75 -137q-70 -44 -192 -50z" />
    <glyph glyph-name="uni0025" unicode="%" horiz-adv-x="686" 
d="M148 25l333 488l58 -39l-332 -488zM172 225q-62 0 -104 40q-40 40 -40 102q0 63 41 102q40 40 103 40q66 0 108 -45q36 -41 36 -97q0 -57 -36 -95q-41 -47 -108 -47zM246 367q0 33 -18 54q-21 24 -56 24q-34 0 -53 -21q-21 -23 -21 -57q0 -30 17 -52q22 -25 57 -25
q34 0 54 22t20 55zM514 -11q-63 0 -103 40q-41 38 -41 102q0 63 41 102q40 40 103 40q67 0 108 -46q36 -39 36 -96t-36 -96q-41 -46 -108 -46zM588 131q0 31 -18 54q-22 24 -56 24q-32 0 -53 -21q-21 -23 -21 -57q0 -32 18 -53q20 -25 56 -25q33 0 54 23q20 22 20 55z" />
    <glyph glyph-name="ampersand" unicode="&#x26;" horiz-adv-x="729" 
d="M310 -11q-139 0 -211 69q-56 54 -56 140q0 54 21 93q21 45 68 74q-39 42 -39 96q0 72 63 112q58 38 153 38q144 0 227 -60l-40 -65q-80 43 -187 43q-59 0 -90 -21q-25 -17 -25 -46q0 -36 33 -62l266 -202q10 19 19 51q7 35 8 69l-82 8v63h251v-66l-75 -8q-1 -50 -12 -94
q-8 -39 -31 -83l46 -35q30 -23 68 -28l15 -3l-11 -72h-17q-68 0 -115 33l-41 31q-37 -36 -82 -53q-55 -22 -124 -22zM306 72q44 0 76 11q38 14 61 38l-245 186q-28 -18 -42 -48q-11 -23 -11 -58q0 -52 33 -85q44 -44 128 -44z" />
    <glyph glyph-name="quotesingle" unicode="'" horiz-adv-x="197" 
d="M65 440l-12 160h91l-12 -160h-67z" />
    <glyph glyph-name="parenleft" unicode="(" horiz-adv-x="236" 
d="M215 610q-73 -133 -73 -315q0 -175 73 -308l-77 -37q-93 135 -93 345q0 101 24.5 194.5t68.5 157.5z" />
    <glyph glyph-name="parenright" unicode=")" horiz-adv-x="236" 
d="M21 -13q73 130 73 315q0 178 -73 308l77 37q93 -136 93 -345q0 -101 -24.5 -194.5t-68.5 -157.5z" />
    <glyph glyph-name="asterisk" unicode="*" horiz-adv-x="309" 
d="M214 623l-30 -70l74 7l13 -8v-47l-14 -7l-73 7l31 -70l-4 -14l-44 -15l-11 10l-19 73l-57 -48l-15 -2l-27 38l5 14l66 38l-65 40l-4 14l26 36h15l56 -51l18 74l11 8l44 -13z" />
    <glyph glyph-name="plus" unicode="+" horiz-adv-x="381" 
d="M33 365h116v117h81v-117h118v-81h-118v-117h-81v117h-116v81z" />
    <glyph glyph-name="comma" unicode="," horiz-adv-x="227" 
d="M114 118q30 0 47.5 -17.5t17.5 -44.5q0 -19 -6 -31l-46 -120l-51 12l14 79q-42 11 -42 60q0 27 17.5 44.5t48.5 17.5z" />
    <glyph glyph-name="hyphen" unicode="-" horiz-adv-x="349" 
d="M33 303h283v-81h-283v81z" />
    <glyph glyph-name="period" unicode="." horiz-adv-x="227" 
d="M113 118q31 0 48.5 -18t17.5 -44q0 -28 -17.5 -45t-48.5 -17q-30 0 -47.5 17t-17.5 45q0 26 17.5 44t47.5 18z" />
    <glyph glyph-name="slash" unicode="/" horiz-adv-x="314" 
d="M-2 -3l237 635l81 -26l-238 -635z" />
    <glyph glyph-name="zero" unicode="0" horiz-adv-x="634" 
d="M142 300q0 -122 51 -180q43 -48 124 -48q86 0 129 52q46 58 46 176q0 123 -47 177q-45 51 -128 51t-126 -48q-49 -56 -49 -180zM596 300q0 -144 -70 -226q-73 -85 -209 -85q-126 0 -198 75q-81 83 -81 236q0 151 76 232q73 79 203 79q134 0 207 -83q72 -83 72 -228z" />
    <glyph glyph-name="one" unicode="1" horiz-adv-x="388" 
d="M62 448l-27 69l182 91l49 -9v-520l77 -7v-72h-282v70l102 8v413z" />
    <glyph glyph-name="two" unicode="2" horiz-adv-x="569" 
d="M51 0v78l282 206q50 37 67 61q25 33 25 78q0 50 -46 79q-40 24 -102 24q-108 0 -203 -61l-39 73q59 40 115 56.5t131 16.5q107 0 172 -46q73 -50 73 -142q0 -65 -36 -115q-31 -42 -95 -85l-194 -138h321v-85h-471z" />
    <glyph glyph-name="three" unicode="3" horiz-adv-x="582" 
d="M276 75q84 0 130 41q34 30 34 78q0 45 -23 69q-27 30 -83 30h-189v80h172q39 0 64 22q21 18 21 54q0 37 -34 58q-33 22 -103 22q-97 0 -179 -47l-39 67q90 62 225 62q109 0 170 -42q62 -40 62 -116q0 -37 -18 -66q-13 -22 -39 -40v-4q45 -18 69 -54q28 -40 28 -95
q0 -83 -63 -140q-76 -65 -205 -65q-146 0 -248 75l44 71q54 -34 98.5 -47t105.5 -13z" />
    <glyph glyph-name="four" unicode="4" horiz-adv-x="605" 
d="M35 100v71l314 429h82l19 -19l-289 -397h256v168l76 32h24v-200h56v-84h-56v-100h-100v100h-382z" />
    <glyph glyph-name="five" unicode="5" horiz-adv-x="575" 
d="M269 74q90 0 132 41q34 34 34 89q0 59 -38 90q-40 34 -125 34q-74 0 -152 -35l-50 26v281h420v-80h-327v-131q55 21 129 21q113 0 178 -53q67 -55 67 -153q0 -94 -67 -152q-71 -63 -195 -63q-82 0 -138 18t-109 57l44 71q49 -33 92.5 -47t104.5 -14z" />
    <glyph glyph-name="six" unicode="6" horiz-adv-x="595" 
d="M310 408q116 0 181 -52q66 -53 66 -151q0 -90 -62 -147q-72 -69 -195 -69q-138 0 -206 92q-56 78 -56 215q0 161 86 245q72 70 190 70t204 -51l-36 -73q-77 39 -164 39q-81 0 -123 -42q-38 -38 -48 -111q67 35 163 35zM300 72q81 0 120 41q35 37 35 92q0 52 -31 83
q-37 37 -118 37q-92 0 -165 -33v-9q0 -98 34 -150q40 -61 125 -61z" />
    <glyph glyph-name="seven" unicode="7" horiz-adv-x="554" 
d="M33 423v177h493v-75q-94 -95 -150 -196q-54 -99 -90 -223l-32 -106h-107l40 131q35 115 92 218q50 88 117 166h-272l-15 -92h-76z" />
    <glyph glyph-name="eight" unicode="8" horiz-adv-x="614" 
d="M307 -11q-142 0 -210 56q-62 53 -62 141q0 62 37 104q25 27 73 49q-28 19 -45 47q-15 28 -15 67q0 81 63 120q59 38 159 38q110 0 167 -41q55 -39 55 -110q0 -39 -21 -70q-16 -26 -41 -40q53 -21 82 -59q30 -39 30 -99q0 -93 -63 -145q-71 -58 -209 -58zM186 455
q0 -34 18 -52q28 -26 103 -26q23 0 65 -4q27 11 42 33q14 22 14 49q0 38 -26 56q-30 22 -95 22q-62 0 -92 -20q-29 -18 -29 -58zM307 296q-42 0 -80 5q-48 -17 -68 -42q-23 -30 -23 -73q0 -50 32 -77q44 -38 139 -38t138 37q32 27 32 78q0 56 -36 81q-40 29 -134 29z" />
    <glyph glyph-name="nine" unicode="9" horiz-adv-x="595" 
d="M285 192q-121 0 -184 55q-63 53 -63 148q0 93 66 151q73 65 190 65q132 0 199 -81q64 -79 64 -226q0 -164 -93 -249q-72 -66 -189 -66q-118 0 -204 51l37 74q80 -40 163 -40q81 0 124 39q43 38 53 114q-67 -35 -163 -35zM294 527q-81 0 -120 -41q-34 -36 -34 -91
q0 -51 30 -81q37 -39 119 -39q94 0 165 32v10q0 109 -42 162q-39 48 -118 48z" />
    <glyph glyph-name="colon" unicode=":" horiz-adv-x="227" 
d="M113 118q31 0 48.5 -18t17.5 -44q0 -28 -17.5 -45t-48.5 -17q-30 0 -47.5 17t-17.5 45q0 26 17.5 44t47.5 18zM113 415q31 0 48.5 -18t17.5 -44q0 -28 -17.5 -45t-48.5 -17q-30 0 -47.5 17t-17.5 45q0 26 17.5 44t47.5 18z" />
    <glyph glyph-name="semicolon" unicode=";" horiz-adv-x="227" 
d="M114 118q30 0 47.5 -17.5t17.5 -44.5q0 -19 -6 -31l-46 -120l-51 12l14 79q-42 11 -42 60q0 27 17.5 44.5t48.5 17.5zM113 415q31 0 48.5 -17.5t17.5 -44.5q0 -28 -17.5 -45t-48.5 -17q-30 0 -47.5 17t-17.5 45q0 26 17.5 44t47.5 18z" />
    <glyph glyph-name="less" unicode="&#x3c;" horiz-adv-x="336" 
d="M253 476l40 -54l-146 -114l146 -115l-40 -55l-220 153v34z" />
    <glyph glyph-name="equal" unicode="=" horiz-adv-x="378" 
d="M33 290h312v-74h-312v74zM33 422h312v-74h-312v74z" />
    <glyph glyph-name="greater" unicode="&#x3e;" horiz-adv-x="336" 
d="M83 138l-40 54l146 114l-146 115l40 55l220 -152v-34z" />
    <glyph glyph-name="question" unicode="?" horiz-adv-x="599" 
d="M291 200v-44h-90v54q0 59 27 91.5t84 45.5l22 6q64 12 93 39q28 25 28 65q0 51 -38 80q-44 34 -148 34q-116 0 -220 -64l-42 73q121 76 265 76q145 0 221 -57q67 -49 67 -138q0 -77 -50 -124q-46 -43 -133 -63l-38 -10q-46 -10 -48 -64zM247 118q31 0 48.5 -18t17.5 -44
q0 -28 -17.5 -45t-48.5 -17t-48 17t-17 45q0 27 17.5 44.5t47.5 17.5z" />
    <glyph glyph-name="at" unicode="@" horiz-adv-x="731" 
d="M472 117q-51 -42 -118 -42q-72 0 -118 46q-46 48 -46 122q0 70 44 116q44 47 118 47q60 0 106 -29l12 21l53 -3v-202q0 -20 8 -32q11 -16 31 -16q23 0 34 15q21 26 21 90q0 103 -51 163q-63 74 -192 74q-104 0 -169 -53q-84 -69 -84 -188q0 -106 63 -172q66 -69 186 -69
q96 0 179 25l17 -60q-96 -39 -196 -39q-155 0 -245 90q-88 85 -88 225q0 148 109 239q90 76 228 76q161 0 249 -100q72 -78 72 -211q0 -84 -44 -129q-36 -41 -90 -41q-59 0 -89 37zM443 316q-36 24 -83 24q-44 0 -66 -24q-24 -25 -24 -74q0 -47 25 -73q23 -25 67 -25
q45 0 84 30q-3 15 -3 29v113z" />
    <glyph glyph-name="A" unicode="A" horiz-adv-x="724" 
d="M299 600h127l270 -600h-112l-47 107h-353l-48 -107h-108zM353 501l-132 -308h278l-131 308h-15z" />
    <glyph glyph-name="B" unicode="B" horiz-adv-x="644" 
d="M402 0h-339v600h323q92 0 144 -49q42 -39 42 -103q0 -43 -19 -72q-16 -26 -42 -43v-6q38 -16 64 -50q31 -42 31 -96q0 -78 -56 -128q-59 -53 -148 -53zM503 183q0 41 -23 66q-27 31 -79 31h-232v-196h230q50 0 79 29q25 27 25 70zM468 440q0 32 -23 55q-24 21 -65 21
h-211v-155h223q36 0 56 25q20 22 20 54z" />
    <glyph glyph-name="C" unicode="C" horiz-adv-x="636" 
d="M38 300q0 153 104 236q95 75 242 75q123 0 214 -46l-32 -74q-91 35 -178 35q-111 0 -175 -58q-69 -61 -69 -168q0 -92 57 -154q69 -72 187 -72q90 0 178 36l32 -73q-90 -48 -214 -48q-161 0 -258 91q-88 83 -88 220z" />
    <glyph glyph-name="D" unicode="D" horiz-adv-x="662" 
d="M63 600h242q157 0 235 -72q84 -78 84 -228q0 -149 -83 -228q-76 -72 -236 -72h-242v600zM518 300q0 110 -51 164q-53 51 -158 51h-140v-429h152q96 0 145 49q52 52 52 165z" />
    <glyph glyph-name="E" unicode="E" horiz-adv-x="604" 
d="M63 0v600h485v-86h-379v-157h337v-84h-337v-187h392v-86h-498z" />
    <glyph glyph-name="F" unicode="F" horiz-adv-x="572" 
d="M63 600h471v-86h-365v-169h325v-86h-325v-259h-106v600z" />
    <glyph glyph-name="G" unicode="G" horiz-adv-x="689" 
d="M379 279v73h252v-352h-72l-18 39q-85 -50 -190 -50q-151 0 -236 91q-77 85 -77 220q0 143 97 229q93 82 252 82q122 0 218 -49l-32 -72q-84 36 -186 36q-110 0 -173 -57q-70 -61 -70 -169q0 -91 48 -152q58 -73 164 -73q85 0 173 40v155z" />
    <glyph glyph-name="H" unicode="H" horiz-adv-x="677" 
d="M509 600h105v-600h-105v277h-341v-277h-105v600h105v-237h341v237z" />
    <glyph glyph-name="I" unicode="I" horiz-adv-x="232" 
d="M63 600h106v-600h-106v600z" />
    <glyph glyph-name="J" unicode="J" horiz-adv-x="518" 
d="M349 600h106v-358q0 -121 -71 -187q-69 -66 -207 -66q-85 0 -158 32l26 76q63 -23 128 -23q92 0 136 45q40 41 40 125v356z" />
    <glyph glyph-name="K" unicode="K" horiz-adv-x="658" 
d="M63 600h107v-238h153l176 238h122l-212 -276l221 -324h-125l-183 277h-152v-277h-107v600z" />
    <glyph glyph-name="L" unicode="L" horiz-adv-x="575" 
d="M169 85h368v-85h-474v600h106v-515z" />
    <glyph glyph-name="M" unicode="M" horiz-adv-x="835" 
d="M63 600h156l199 -497l200 497h154v-600h-104v474h-5l-191 -474h-115l-191 474h-5v-474h-98v600z" />
    <glyph glyph-name="N" unicode="N" horiz-adv-x="687" 
d="M523 600h101v-600h-101l-359 448v-448h-101v600h101l359 -446v446z" />
    <glyph glyph-name="O" unicode="O" horiz-adv-x="703" 
d="M559 300q0 114 -57 172q-57 55 -150 55q-97 0 -151 -56q-56 -58 -56 -171q0 -106 49 -164q54 -63 158 -63q105 0 159 65q48 57 48 162zM38 300q0 144 84 226q83 85 230 85q137 0 223 -78q90 -84 90 -233q0 -135 -71 -215q-85 -96 -242 -96q-144 0 -229 82q-85 83 -85 229
z" />
    <glyph glyph-name="P" unicode="P" horiz-adv-x="625" 
d="M347 166h-178v-166h-106v600h295q106 0 171 -65q58 -60 58 -151q0 -94 -60 -151q-67 -65 -180 -67zM481 384q0 56 -30 91q-34 40 -103 40h-179v-264h172q62 0 101 34q39 37 39 99z" />
    <glyph glyph-name="Q" unicode="Q" horiz-adv-x="705" 
d="M585 -92q-46 0 -74 16q-34 16 -64 61l-9 14q-47 -10 -85 -10q-141 0 -225 79q-90 85 -90 232q0 144 88 229q84 82 227 82t228 -85q86 -86 86 -226q0 -114 -56 -195q-33 -44 -78 -70l7 -9q12 -18 34 -31q16 -9 37 -9q8 0 24 2l11 -72q-28 -8 -61 -8zM561 300
q0 107 -52 166q-53 61 -156 61q-100 0 -155 -61q-53 -61 -53 -166t49 -163q56 -64 159 -64q100 0 154 59q54 57 54 168z" />
    <glyph glyph-name="R" unicode="R" horiz-adv-x="631" 
d="M63 600h298q111 0 172 -63q55 -55 55 -145q0 -78 -52 -135q-35 -38 -84 -56l125 -201h-115l-108 183h-185v-183h-106v600zM482 393q0 55 -29 86q-33 36 -94 36h-190v-247h188q59 0 92 35q33 33 33 90z" />
    <glyph glyph-name="S" unicode="S" horiz-adv-x="641" 
d="M38 438q0 76 58 120q73 53 226 53q125 0 235 -44l-29 -77q-99 34 -202 34q-108 0 -151 -26q-31 -19 -31 -50q0 -30 22 -45q25 -18 80 -26l145 -23q122 -20 168 -63q43 -41 43 -113q0 -89 -74 -137q-82 -52 -234 -52q-134 0 -254 43l25 80q111 -34 225 -34q113 0 165 29
q41 24 41 70q0 40 -29.5 56.5t-89.5 25.5l-154 23q-89 12 -134 47q-51 40 -51 109z" />
    <glyph glyph-name="T" unicode="T" horiz-adv-x="639" 
d="M28 515v85h583v-85h-239v-515h-106v515h-238z" />
    <glyph glyph-name="U" unicode="U" horiz-adv-x="676" 
d="M63 259v341h106v-345q0 -88 46 -136q43 -45 124 -45t124 44q45 47 45 137v345h105v-341q0 -129 -74 -200q-73 -70 -201 -70q-124 0 -197 66q-78 70 -78 204z" />
    <glyph glyph-name="V" unicode="V" horiz-adv-x="702" 
d="M415 0h-129l-258 600h113l205 -496h14l204 496h110z" />
    <glyph glyph-name="W" unicode="W" horiz-adv-x="993" 
d="M28 600h111l149 -495h9l138 495h128l139 -495h10l147 495h106l-189 -600h-143l-132 468h-7l-134 -468h-141z" />
    <glyph glyph-name="X" unicode="X" horiz-adv-x="662" 
d="M164 600l166 -230l160 230h122l-210 -288l232 -312h-125l-182 252l-178 -252h-121l229 310l-217 290h124z" />
    <glyph glyph-name="Y" unicode="Y" horiz-adv-x="689" 
d="M398 0h-106v140l-264 460h119l195 -358h7l197 358h115l-263 -458v-142z" />
    <glyph glyph-name="Z" unicode="Z" horiz-adv-x="584" 
d="M551 86v-86h-518v66l376 452l-144 -3h-211v85h493v-63l-376 -455l138 4h242z" />
    <glyph glyph-name="bracketleft" unicode="[" horiz-adv-x="250" 
d="M155 591v-578h70v-79h-162v736h162v-79h-70z" />
    <glyph glyph-name="backslash" unicode="\" horiz-adv-x="314" 
d="M78 632l238 -635l-80 -26l-238 634z" />
    <glyph glyph-name="bracketright" unicode="]" horiz-adv-x="250" 
d="M95 13v578h-70v79h162v-736h-162v79h70z" />
    <glyph glyph-name="asciicircum" unicode="^" horiz-adv-x="377" 
d="M344 438l-45 -39l-110 111l-111 -111l-45 39l140 173h31z" />
    <glyph glyph-name="underscore" unicode="_" horiz-adv-x="353" 
d="M13 -38h327v-74h-327v74z" />
    <glyph glyph-name="grave" unicode="`" horiz-adv-x="249" 
d="M136 723l58 -147l-61 -29l-78 137z" />
    <glyph glyph-name="a" unicode="a" horiz-adv-x="609" 
d="M542 342v-200q0 -73 24 -126l-58 -23q-32 22 -49 58q-82 -60 -186 -60q-116 0 -175 44q-60 44 -60 131q0 84 72 130q64 41 163 41q87 0 167 -20v30q0 37 -33 57q-36 22 -116 22q-96 0 -184 -29l-20 69q106 43 219 43q124 0 183 -49q53 -44 53 -118zM271 256
q-62 0 -96 -23q-34 -24 -34 -66q0 -44 34 -68q36 -25 107 -25q84 0 158 41v130q-91 11 -169 11z" />
    <glyph glyph-name="b" unicode="b" horiz-adv-x="639" 
d="M63 0v650h102v-194q70 53 171 53q129 0 200 -76q65 -68 65 -183q0 -119 -75 -191q-71 -68 -188 -68q-115 0 -183 60l-17 -51h-75zM331 75q75 0 119 46q48 46 48 130q0 79 -40 125q-44 50 -131 50q-95 0 -162 -56v-242q42 -28 78.5 -40.5t87.5 -12.5z" />
    <glyph glyph-name="c" unicode="c" horiz-adv-x="543" 
d="M504 475l-26 -71q-75 23 -151 23q-88 0 -138 -48q-49 -46 -49 -127q0 -87 52 -133q47 -43 135 -43q84 0 153 24l26 -74q-79 -35 -185 -35q-132 0 -205 65q-78 72 -78 194q0 119 81 192q77 67 202 67q106 0 183 -34z" />
    <glyph glyph-name="d" unicode="d" horiz-adv-x="638" 
d="M482 50q-67 -59 -188 -59q-113 0 -180 62q-77 69 -77 197q0 113 70 185q74 74 199 74q96 0 167 -52v193h102v-650h-75zM473 126v244q-67 56 -158 56q-81 0 -126 -43q-50 -47 -50 -132q0 -89 51 -137q41 -39 112 -39q94 0 171 51z" />
    <glyph glyph-name="e" unicode="e" 
d="M306 509q126 0 194 -65q73 -70 73 -198v-40h-428q6 -56 42 -89q47 -44 143 -44q92 0 166 26l23 -71q-81 -37 -190 -37q-140 0 -212 66q-80 74 -80 193q0 117 74 189q73 70 195 70zM306 427q-78 0 -121 -45q-35 -36 -42 -95h327q-7 67 -44 102q-41 38 -120 38z" />
    <glyph glyph-name="f" unicode="f" horiz-adv-x="422" 
d="M317 704q102 0 185 -54l-38 -64q-70 35 -135 35q-60 0 -86 -28q-24 -25 -24 -70v-23h178v-74l-178 -7v-419h-102v417h-88v71l88 8v30q0 79 55 128q52 50 145 50z" />
    <glyph glyph-name="g" unicode="g" horiz-adv-x="639" 
d="M310 -193q-135 0 -235 57l28 71q91 -43 202 -43q90 0 131 38q38 35 38 99v14q-73 -52 -168 -52q-122 0 -193 65q-76 68 -76 194q0 113 69 185q72 74 192 74q117 0 185 -60l18 51h75v-451q0 -117 -68 -180q-67 -62 -198 -62zM309 425q-74 0 -120 -44q-49 -47 -49 -132
q0 -87 48 -133q44 -42 128 -42q88 0 158 55v245q-41 28 -77 39.5t-88 11.5z" />
    <glyph glyph-name="h" unicode="h" horiz-adv-x="629" 
d="M63 650h102v-195q75 54 170 54q112 0 169 -53q64 -59 64 -181v-275h-102v271q0 82 -37 119q-34 35 -105 35q-89 0 -159 -53v-372h-102v650z" />
    <glyph glyph-name="i" unicode="i" horiz-adv-x="247" 
d="M23 431v69h161v-500h-102v424zM133 694q33 0 51.5 -17.5t18.5 -44.5q0 -26 -18.5 -43.5t-51.5 -17.5q-31 0 -50 17.5t-19 43.5t19 44t50 18z" />
    <glyph glyph-name="j" unicode="j" horiz-adv-x="247" 
d="M23 431v69h161v-506q0 -84 -46 -131q-51 -56 -151 -56q-90 0 -165 44l31 71q61 -30 127 -30q54 0 79 30q23 26 23 72v430zM133 694q33 0 51.5 -17.5t18.5 -44.5q0 -26 -18.5 -43.5t-51.5 -17.5q-32 0 -50.5 17.5t-18.5 43.5q0 27 18.5 44.5t50.5 17.5z" />
    <glyph glyph-name="k" unicode="k" horiz-adv-x="600" 
d="M63 650h102v-340h159l127 190h115l-158 -228l165 -272h-115l-132 228h-161v-228h-102v650z" />
    <glyph glyph-name="l" unicode="l" horiz-adv-x="234" 
d="M9 585v65h162v-650h-102v574z" />
    <glyph glyph-name="m" unicode="m" horiz-adv-x="978" 
d="M63 500h74l18 -51q68 60 163 60q71 0 115 -22q37 -18 65 -53q80 75 195 75q106 0 160 -51q64 -58 64 -187v-271h-102v275q0 88 -37 122q-32 29 -93 29q-84 0 -152 -58q12 -51 12 -97v-271h-103v275q0 86 -37 122q-30 29 -95 29q-81 0 -145 -54v-372h-102v500z" />
    <glyph glyph-name="n" unicode="n" horiz-adv-x="629" 
d="M63 500h74l18 -51q73 60 177 60q119 0 175 -56q61 -58 61 -178v-275h-102v271q0 83 -35 119t-107 36q-89 0 -159 -53v-373h-102v500z" />
    <glyph glyph-name="o" unicode="o" horiz-adv-x="614" 
d="M307 509q112 0 189 -67q80 -69 80 -192t-80 -192q-77 -67 -189 -67q-114 0 -189 67q-81 70 -81 192t81 192q75 67 189 67zM307 426q-77 0 -121 -46q-46 -46 -46 -130t46 -130q44 -46 121 -46q75 0 121 46q45 47 45 130t-45 130q-46 46 -121 46z" />
    <glyph glyph-name="p" unicode="p" horiz-adv-x="637" 
d="M63 500h75l17 -51q70 60 187 60q118 0 184 -66q73 -71 73 -193q0 -117 -71 -188t-194 -71q-96 0 -169 52v-193h-102v650zM332 426q-92 0 -167 -51v-244q67 -56 161 -56q73 0 118 40q52 47 52 135q0 87 -45 133q-43 43 -119 43z" />
    <glyph glyph-name="q" unicode="q" horiz-adv-x="638" 
d="M575 500v-650h-102v193q-71 -52 -171 -52q-124 0 -196 70q-68 68 -68 189q0 104 62 176q70 83 198 83q117 0 184 -59l18 50h75zM304 426q-81 0 -124 -53q-40 -50 -40 -122q0 -90 48 -136q43 -40 124 -40q92 0 161 56v243q-77 52 -169 52z" />
    <glyph glyph-name="r" unicode="r" horiz-adv-x="546" 
d="M63 500h74l18 -51q69 60 172 60q112 0 186 -54l-48 -70q-60 41 -142 41q-89 0 -158 -54v-372h-102v500z" />
    <glyph glyph-name="s" unicode="s" horiz-adv-x="568" 
d="M499 472l-26 -72q-79 27 -182 27q-90 0 -127 -21q-26 -13 -26 -37q0 -25 23 -40q19 -11 57 -15l128 -13q91 -9 137 -46q47 -36 47 -99q0 -78 -58 -117q-70 -48 -220 -48q-111 0 -213 39l25 76q92 -32 184 -32q96 0 138 17q44 18 44 59q0 30 -24 44q-20 12 -76 20l-136 15
q-81 9 -119 44q-37 33 -37 90q0 69 62 107q61 39 191 39q109 0 208 -37z" />
    <glyph glyph-name="t" unicode="t" horiz-adv-x="466" 
d="M23 417v71l90 8l14 122h86v-118h211v-73l-211 -8v-251q0 -44 18 -65q23 -27 77 -27q66 0 133 30l27 -64q-76 -51 -177 -51q-93 0 -138 48q-43 43 -43 126v252h-87z" />
    <glyph glyph-name="u" unicode="u" horiz-adv-x="629" 
d="M566 0h-74l-17 51q-73 -60 -177 -60q-111 0 -169 48q-68 59 -68 186v275h102v-271q0 -83 38 -121q35 -34 105 -34q89 0 158 54v372h102v-500z" />
    <glyph glyph-name="v" unicode="v" horiz-adv-x="622" 
d="M238 0l-210 500h111l161 -408h29l159 408h106l-210 -500h-146z" />
    <glyph glyph-name="w" unicode="w" horiz-adv-x="908" 
d="M28 500h108l132 -405h12l105 405h135l116 -405h12l129 405h102l-170 -500h-141l-113 393h-7l-108 -393h-142z" />
    <glyph glyph-name="x" unicode="x" horiz-adv-x="608" 
d="M143 0h-115l175 265l-161 235h119l124 -192h41l122 192h115l-159 -235l176 -265h-118l-137 218h-46z" />
    <glyph glyph-name="y" unicode="y" horiz-adv-x="631" 
d="M256 0l-233 500h111l182 -407h19l163 407h109l-240 -565q-21 -52 -60 -76q-33 -19 -85 -19q-28 0 -58 11l9 71q20 -4 37 -4q23 0 42 10q19 13 30 41l12 31h-38z" />
    <glyph glyph-name="z" unicode="z" horiz-adv-x="539" 
d="M47 415v85h454v-53l-321 -362h321v-85h-463v58l314 357h-305z" />
    <glyph glyph-name="braceleft" unicode="{" horiz-adv-x="282" 
d="M227 594q-42 0 -42 -43v-160q0 -65 -39 -90v-4q39 -25 39 -90v-159q0 -43 42 -43h38v-76h-48q-54 0 -88 30t-34 89v171q0 43 -41 43h-25v76h25q41 0 41 42v171q0 60 33.5 89.5t88.5 29.5h48v-76h-38z" />
    <glyph glyph-name="bar" unicode="|" horiz-adv-x="197" 
d="M63 650h71v-800h-71v800z" />
    <glyph glyph-name="braceright" unicode="}" horiz-adv-x="282" 
d="M55 5q41 0 41 43v159q0 65 39 90v5q-39 26 -39 90v159q0 43 -41 43h-38v76h48q54 0 88 -30t34 -89v-171q0 -43 40 -43h26v-76h-26q-19 0 -29.5 -11.5t-10.5 -30.5v-171q0 -60 -33.5 -89.5t-88.5 -29.5h-48v76h38z" />
    <glyph glyph-name="asciitilde" unicode="~" horiz-adv-x="413" 
d="M204 270q-40 14 -70 14q-39 0 -65 -20l-31 55q45 39 96 39q35 0 74 -14q42 -15 73 -15q35 0 64 22l28 -57q-42 -38 -96 -38q-38 0 -73 14z" />
    <glyph glyph-name="exclamdown" unicode="&#xa1;" horiz-adv-x="227" 
d="M134 -50h-94v141l7 344h79l8 -344v-141zM87 482q-31 0 -48.5 18t-17.5 44q0 28 17.5 45t48.5 17q30 0 47.5 -17t17.5 -45q0 -26 -17.5 -44t-47.5 -18z" />
    <glyph glyph-name="cent" unicode="&#xa2;" horiz-adv-x="543" 
d="M278 573h78l3 -66q83 -5 145 -32l-26 -71q-75 23 -151 23q-91 0 -138 -44q-49 -46 -49 -131q0 -84 47 -129q47 -47 140 -47q82 0 151 24l26 -74q-65 -28 -145 -33l-3 -77h-78l-4 78q-100 9 -157 63q-79 71 -79 193q0 123 78 193q59 54 158 63z" />
    <glyph glyph-name="currency" unicode="&#xa4;" horiz-adv-x="447" 
d="M97 465l42 -41q37 21 84 21t83 -21l43 41l51 -50l-41 -40q23 -37 23 -86q0 -50 -23 -85l40 -41l-50 -51l-42 42q-37 -21 -84 -21q-48 0 -85 21l-42 -42l-49 51l39 41q-22 38 -22 85q0 48 22 86l-39 40zM311 289q0 42 -24 66t-64 24t-64.5 -23.5t-24.5 -66.5t24.5 -67
t63.5 -24q40 0 64.5 24t24.5 67z" />
    <glyph glyph-name="yen" unicode="&#xa5;" horiz-adv-x="689" 
d="M160 234l76 5l-208 361h119l195 -358h7l197 358h115l-208 -361l78 -5v-61h-371v61zM160 139h371v-61l-133 -5v-73h-106v73l-132 5v61z" />
    <glyph glyph-name="brokenbar" unicode="&#xa6;" horiz-adv-x="197" 
d="M63 650h71v-380h-71v380zM63 230h71v-380h-71v380z" />
    <glyph glyph-name="section" unicode="&#xa7;" horiz-adv-x="509" 
d="M419 607l-24 -67q-67 24 -135 24q-61 0 -86 -15q-18 -13 -18 -35q0 -27 20 -40q20 -14 55 -20l69 -13q90 -17 131 -55q40 -35 40 -96q0 -37 -21 -73q-18 -28 -46 -47q38 -30 38 -83q0 -62 -49 -99q-52 -38 -146 -38q-103 0 -176 36l27 66q62 -23 149 -23q54 0 79 16
q22 14 22 41q0 18 -13.5 30.5t-25.5 16t-34 7.5l-74 13q-83 16 -123 53q-40 38 -40 96q0 45 23 77q18 27 49 44q-42 36 -42 90q0 59 48 93q49 35 140 35q94 0 163 -34zM177 388q-24 -16 -34 -30q-14 -19 -14 -44q0 -30 18 -51q19 -22 70 -30l76 -14q19 -2 45 -11
q18 15 27 29q14 22 14 47q0 34 -24 55q-21 18 -81 29l-57 10q-33 7 -40 10z" />
    <glyph glyph-name="dieresis" unicode="&#xa8;" horiz-adv-x="420" 
d="M108 671q28 0 44 -15.5t16 -40.5q0 -24 -16 -40t-44 -16q-27 0 -43 16t-16 40q0 25 16 40.5t43 15.5zM311 671q28 0 44 -15.5t16 -40.5q0 -24 -16 -40t-44 -16t-43.5 16t-15.5 40q0 25 15.5 40.5t43.5 15.5z" />
    <glyph glyph-name="copyright" unicode="&#xa9;" horiz-adv-x="668" 
d="M449 412l-20 -58q-42 16 -87 16q-42 0 -65 -22q-27 -24 -27 -65q0 -43 27 -66q25 -22 65 -22q43 0 87 17l20 -58q-49 -23 -107 -23q-71 0 -118 42q-45 42 -45 110q0 69 47 111q44 41 116 41q56 0 107 -23zM555 282q0 101 -62 165q-59 57 -158 57q-95 0 -156 -55
q-67 -64 -67 -167q0 -97 61 -158q62 -64 162 -64t158 58q62 60 62 164zM335 -11q-140 0 -225 93q-74 82 -74 200q0 127 80 207q83 86 219 86q135 0 217 -84q80 -82 80 -209q0 -130 -82 -210q-81 -83 -215 -83z" />
    <glyph glyph-name="ordfeminine" unicode="&#xaa;" horiz-adv-x="354" 
d="M246 583l9 20h45v-187q0 -34 16 -67l-40 -18q-15 12 -23 27q-42 -27 -84 -27q-57 0 -91 27q-45 37 -45 111q0 67 37 104q33 34 98 34q46 0 78 -24zM237 533q-29 17 -67 17q-36 0 -54 -20q-18 -19 -18 -61q0 -39 18 -61q20 -21 58 -21q33 0 63 21v125z" />
    <glyph glyph-name="guillemotleft" unicode="&#xab;" horiz-adv-x="390" 
d="M33 287v30l139 143l42 -34l-96 -122l96 -124l-42 -34zM305 146l-139 141v30l139 143l42 -34l-96 -122l96 -124z" />
    <glyph glyph-name="logicalnot" unicode="&#xac;" horiz-adv-x="369" 
d="M262 226l-6 94h-223v81h303v-175h-74z" />
    <glyph glyph-name="uni00AD" unicode="&#xad;" horiz-adv-x="349" 
d="M33 303h283v-81h-283v81z" />
    <glyph glyph-name="registered" unicode="&#xae;" horiz-adv-x="415" 
d="M207 271q-72 0 -120 43q-49 46 -49 126q0 75 48 123q46 46 121 46q78 0 124 -48q46 -46 46 -121q0 -71 -41 -117q-49 -52 -129 -52zM331 440q0 55 -32 90q-33 35 -92 35q-54 0 -88 -31q-35 -33 -35 -94q0 -55 30 -88q35 -37 93 -37t92 36q32 35 32 89zM254 413l32 -56
h-46l-25 47h-34v-47h-41v169h79q33 0 49 -19q16 -16 16 -42q0 -14 -7 -28q-9 -15 -23 -24zM181 488v-46h38q11 0 17 7q6 6 6 16q0 9 -4 15q-5 8 -19 8h-38z" />
    <glyph glyph-name="macron" unicode="&#xaf;" horiz-adv-x="413" 
d="M55 630h303v-67h-303v67z" />
    <glyph glyph-name="degree" unicode="&#xb0;" horiz-adv-x="345" 
d="M173 322q-64 0 -105 39q-40 40 -40 103t41 104q41 38 104 38q66 0 104 -40q40 -40 40 -102q0 -60 -37 -100q-40 -42 -107 -42zM250 464q0 38 -21 57q-19 21 -56 21q-38 0 -59 -22q-19 -21 -19 -56q0 -33 21 -56q21 -21 57 -21t58 22q19 21 19 55z" />
    <glyph glyph-name="plusminus" unicode="&#xb1;" horiz-adv-x="381" 
d="M41 193h299v-77h-299v77zM33 414h118v117h77v-117h120v-77h-120v-117h-77v117h-118v77z" />
    <glyph glyph-name="twosuperior" unicode="&#xb2;" horiz-adv-x="287" 
d="M130 395h122v-49h-215v47l124 85q35 27 35 50q0 15 -10 25q-15 12 -44 12q-46 0 -90 -27l-24 41q51 36 114 36q59 0 86 -26q24 -22 24 -62q0 -47 -60 -90z" />
    <glyph glyph-name="threesuperior" unicode="&#xb3;" horiz-adv-x="293" 
d="M249 542q0 -24 -17 -41q33 -23 33 -67q0 -38 -26 -61q-32 -32 -95 -32q-65 0 -116 39l26 39q42 -28 90 -28q33 0 50 13q15 12 15 30q0 33 -36 33h-90v47h83q11 0 19 7t8 18q0 27 -50 27q-41 0 -84 -22l-21 39q47 32 108 32q42 0 72.5 -17.5t30.5 -55.5z" />
    <glyph glyph-name="acute" unicode="&#xb4;" horiz-adv-x="249" 
d="M55 576l58 147l81 -39l-78 -137z" />
    <glyph glyph-name="mu" unicode="&#xb5;" horiz-adv-x="622" 
d="M559 0h-77l-13 62q-69 -71 -171 -71q-49 0 -89 23q-31 17 -52 49l-3 -2l12 -185l-18 -17h-85v624l18 17h83v-257q0 -66 32 -114q36 -55 108 -55q81 0 153 71v355h102v-500z" />
    <glyph glyph-name="paragraph" unicode="&#xb6;" horiz-adv-x="489" 
d="M208 600h250l3 -40l-58 -10l-24 -2v-485q0 -91 -12 -148l-3 -14l-31 -10l-13 7v647h-53v-518q0 -97 -12 -148l-3 -14l-31 -10l-13 7v397q-74 0 -121 45q-49 47 -49 126q0 73 45 121q47 49 125 49z" />
    <glyph glyph-name="periodcentered" unicode="&#xb7;" horiz-adv-x="227" 
d="M113 372q31 0 48.5 -18t17.5 -44q0 -28 -17.5 -45t-48.5 -17q-30 0 -47.5 17t-17.5 45q0 26 17.5 44t47.5 18z" />
    <glyph glyph-name="cedilla" unicode="&#xb8;" horiz-adv-x="253" 
d="M87 15h60l-2 -49q30 -3 47 -19q18 -18 18 -49q0 -42 -38.5 -70.5t-92.5 -41.5l-16 44q39 14 56 28q22 19 22 40q0 9 -7 15q-6 5 -20 5h-16l-11 10v87z" />
    <glyph glyph-name="onesuperior" unicode="&#xb9;" horiz-adv-x="210" 
d="M89 393v151l-40 -15l-16 44l85 42l27 -5v-217l32 -4v-43h-131v43z" />
    <glyph glyph-name="ordmasculine" unicode="&#xba;" horiz-adv-x="294" 
d="M84 479q0 -55 25 -75q16 -13 43 -13q26 0 42 13q26 21 26 75q0 53 -26 74q-16 12 -42 12q-27 0 -43 -13q-25 -20 -25 -73zM276 479q0 -84 -53 -119q-29 -19 -71 -19q-43 0 -71 18q-53 35 -53 120q0 83 53 118q28 18 71 18q42 0 71 -18q53 -36 53 -118z" />
    <glyph glyph-name="guillemotright" unicode="&#xbb;" horiz-adv-x="390" 
d="M357 319v-30l-140 -143l-41 34l95 122l-95 124l41 34zM84 460l140 -141v-30l-140 -143l-41 34l95 122l-95 124z" />
    <glyph glyph-name="questiondown" unicode="&#xbf;" horiz-adv-x="599" 
d="M270 430v44h90v-54q0 -59 -27 -91.5t-84 -45.5l-22 -6q-64 -12 -93 -39q-28 -25 -28 -65q0 -51 38 -80q44 -34 148 -34q116 0 220 64l42 -73q-121 -76 -265 -76q-145 0 -221 57q-67 49 -67 138q0 77 50 124q46 43 133 63l38 10q46 10 48 64zM314 512q-30 0 -48 18t-18 44
q0 28 17.5 45t48.5 17t48 -17t17 -45q0 -27 -17.5 -44.5t-47.5 -17.5z" />
    <glyph glyph-name="Agrave" unicode="&#xc0;" horiz-adv-x="724" 
d="M299 600h127l270 -600h-112l-47 107h-353l-48 -107h-108zM353 501l-132 -308h278l-131 308h-15zM336 820l64 -152l-66 -29l-80 142z" />
    <glyph glyph-name="Aacute" unicode="&#xc1;" horiz-adv-x="724" 
d="M299 600h127l270 -600h-112l-47 107h-353l-48 -107h-108zM353 501l-132 -308h278l-131 308h-15zM327 668l64 152l82 -39l-80 -142z" />
    <glyph glyph-name="Acircumflex" unicode="&#xc2;" horiz-adv-x="724" 
d="M299 600h127l270 -600h-112l-47 107h-353l-48 -107h-108zM353 501l-132 -308h278l-131 308h-15zM253 640l-37 43l130 125h30l130 -125l-38 -43l-108 82z" />
    <glyph glyph-name="Atilde" unicode="&#xc3;" horiz-adv-x="724" 
d="M299 600h127l270 -600h-112l-47 107h-353l-48 -107h-108zM353 501l-132 -308h278l-131 308h-15zM356 669q-44 18 -78 18q-39 0 -68 -22l-31 49q53 47 107 47q35 0 77 -17q43 -18 80 -18q36 0 67 22l31 -50q-46 -46 -103 -46q-44 0 -82 17z" />
    <glyph glyph-name="Adieresis" unicode="&#xc4;" horiz-adv-x="724" 
d="M299 600h127l270 -600h-112l-47 107h-353l-48 -107h-108zM353 501l-132 -308h278l-131 308h-15zM254 776q32 0 50 -17.5t18 -46.5q0 -27 -18 -44.5t-50 -17.5q-30 0 -48 18t-18 44q0 29 17.5 46.5t48.5 17.5zM468 776q32 0 49.5 -17.5t17.5 -46.5q0 -27 -18 -44.5
t-49 -17.5q-30 0 -48 18t-18 44q0 29 17.5 46.5t48.5 17.5z" />
    <glyph glyph-name="Aring" unicode="&#xc5;" horiz-adv-x="724" 
d="M299 600h127l270 -600h-112l-47 107h-353l-48 -107h-108zM353 501l-132 -308h278l-131 308h-15zM361 634q-50 0 -80 30q-32 30 -32 81q0 49 33 79q29 31 79 31q51 0 83 -32q30 -32 30 -78q0 -48 -28 -78q-31 -33 -85 -33zM415 745q0 22 -14 38q-16 14 -40 14
q-25 0 -39 -14t-14 -38q0 -25 15 -39q16 -14 38 -14q27 0 40 15q14 14 14 38z" />
    <glyph glyph-name="AE" unicode="&#xc6;" horiz-adv-x="1059" 
d="M517 0v139h-304l-79 -139h-108l346 600h630v-86h-379v-157h338v-84h-338v-187h393v-86h-499zM426 514l-168 -291h259v291h-91z" />
    <glyph glyph-name="Ccedilla" unicode="&#xc7;" horiz-adv-x="636" 
d="M38 300q0 153 104 236q95 75 242 75q123 0 214 -46l-32 -74q-91 35 -178 35q-111 0 -175 -58q-69 -61 -69 -168q0 -92 57 -154q69 -72 187 -72q90 0 178 36l32 -73q-90 -48 -214 -48h-13l-1 -24q31 0 51 -17q19 -17 19 -49q0 -43 -38 -72q-37 -27 -100 -43l-17 45
q42 13 61 27q24 17 24 42q0 12 -7 16q-8 4 -19 4h-22l-11 10v66q-113 17 -185 86q-88 83 -88 220z" />
    <glyph glyph-name="Egrave" unicode="&#xc8;" horiz-adv-x="604" 
d="M63 0v600h485v-86h-379v-157h337v-84h-337v-187h392v-86h-498zM294 820l64 -152l-66 -29l-80 142z" />
    <glyph glyph-name="Eacute" unicode="&#xc9;" horiz-adv-x="604" 
d="M63 0v600h485v-86h-379v-157h337v-84h-337v-187h392v-86h-498zM265 668l64 152l82 -39l-80 -142z" />
    <glyph glyph-name="Ecircumflex" unicode="&#xca;" horiz-adv-x="604" 
d="M63 0v600h485v-86h-379v-157h337v-84h-337v-187h392v-86h-498zM214 640l-37 43l130 125h30l130 -125l-38 -43l-108 82z" />
    <glyph glyph-name="Edieresis" unicode="&#xcb;" horiz-adv-x="604" 
d="M63 0v600h485v-86h-379v-157h337v-84h-337v-187h392v-86h-498zM194 776q32 0 50 -17.5t18 -46.5q0 -27 -18 -44.5t-50 -17.5q-30 0 -48 18t-18 44q0 29 17.5 46.5t48.5 17.5zM408 776q32 0 49.5 -17.5t17.5 -46.5q0 -27 -18 -44.5t-49 -17.5q-30 0 -48 18t-18 44
q0 29 17.5 46.5t48.5 17.5z" />
    <glyph glyph-name="Igrave" unicode="&#xcc;" horiz-adv-x="232" 
d="M63 600h106v-600h-106v600zM104 820l64 -152l-66 -29l-80 142z" />
    <glyph glyph-name="Iacute" unicode="&#xcd;" horiz-adv-x="232" 
d="M63 600h106v-600h-106v600zM63 668l64 152l82 -39l-80 -142z" />
    <glyph glyph-name="Icircumflex" unicode="&#xce;" horiz-adv-x="232" 
d="M63 600h106v-600h-106v600zM10 640l-37 43l130 125h30l130 -125l-38 -43l-108 82z" />
    <glyph glyph-name="Idieresis" unicode="&#xcf;" horiz-adv-x="232" 
d="M63 600h106v-600h-106v600zM9 776q32 0 50 -17.5t18 -46.5q0 -27 -18 -44.5t-50 -17.5q-31 0 -48.5 18t-17.5 44q0 29 17.5 46.5t48.5 17.5zM223 776q32 0 49.5 -17.5t17.5 -46.5q0 -27 -18 -44.5t-49 -17.5t-48.5 18t-17.5 44q0 29 17.5 46.5t48.5 17.5z" />
    <glyph glyph-name="Eth" unicode="&#xd0;" horiz-adv-x="665" 
d="M9 353h63v247h236q157 0 235 -72q84 -78 84 -228q0 -149 -83 -228q-76 -72 -236 -72h-236v274h-63v79zM521 300q0 110 -51 164q-53 51 -158 51h-134v-162h143v-79h-143v-188h146q96 0 145 49q52 52 52 165z" />
    <glyph glyph-name="Ntilde" unicode="&#xd1;" horiz-adv-x="687" 
d="M523 600h101v-600h-101l-359 448v-448h-101v600h101l359 -446v446zM339 669q-44 18 -78 18q-39 0 -68 -22l-31 49q53 47 107 47q35 0 77 -17q43 -18 80 -18q36 0 67 22l31 -50q-46 -46 -103 -46q-44 0 -82 17z" />
    <glyph glyph-name="Ograve" unicode="&#xd2;" horiz-adv-x="703" 
d="M559 300q0 114 -57 172q-57 55 -150 55q-97 0 -151 -56q-56 -58 -56 -171q0 -106 49 -164q54 -63 158 -63q105 0 159 65q48 57 48 162zM38 300q0 144 84 226q83 85 230 85q137 0 223 -78q90 -84 90 -233q0 -135 -71 -215q-85 -96 -242 -96q-144 0 -229 82q-85 83 -85 229
zM316 820l64 -152l-66 -29l-80 142z" />
    <glyph glyph-name="Oacute" unicode="&#xd3;" horiz-adv-x="703" 
d="M559 300q0 114 -57 172q-57 55 -150 55q-97 0 -151 -56q-56 -58 -56 -171q0 -106 49 -164q54 -63 158 -63q105 0 159 65q48 57 48 162zM38 300q0 144 84 226q83 85 230 85q137 0 223 -78q90 -84 90 -233q0 -135 -71 -215q-85 -96 -242 -96q-144 0 -229 82q-85 83 -85 229
zM321 668l64 152l82 -39l-80 -142z" />
    <glyph glyph-name="Ocircumflex" unicode="&#xd4;" horiz-adv-x="703" 
d="M559 300q0 114 -57 172q-57 55 -150 55q-97 0 -151 -56q-56 -58 -56 -171q0 -106 49 -164q54 -63 158 -63q105 0 159 65q48 57 48 162zM38 300q0 144 84 226q83 85 230 85q137 0 223 -78q90 -84 90 -233q0 -135 -71 -215q-85 -96 -242 -96q-144 0 -229 82q-85 83 -85 229
zM245 640l-37 43l130 125h30l130 -125l-38 -43l-108 82z" />
    <glyph glyph-name="Otilde" unicode="&#xd5;" horiz-adv-x="703" 
d="M559 300q0 114 -57 172q-57 55 -150 55q-97 0 -151 -56q-56 -58 -56 -171q0 -106 49 -164q54 -63 158 -63q105 0 159 65q48 57 48 162zM38 300q0 144 84 226q83 85 230 85q137 0 223 -78q90 -84 90 -233q0 -135 -71 -215q-85 -96 -242 -96q-144 0 -229 82q-85 83 -85 229
zM352 669q-44 18 -78 18q-39 0 -68 -22l-31 49q53 47 107 47q35 0 77 -17q43 -18 80 -18q36 0 67 22l31 -50q-46 -46 -103 -46q-44 0 -82 17z" />
    <glyph glyph-name="Odieresis" unicode="&#xd6;" horiz-adv-x="703" 
d="M559 300q0 114 -57 172q-57 55 -150 55q-97 0 -151 -56q-56 -58 -56 -171q0 -106 49 -164q54 -63 158 -63q105 0 159 65q48 57 48 162zM38 300q0 144 84 226q83 85 230 85q137 0 223 -78q90 -84 90 -233q0 -135 -71 -215q-85 -96 -242 -96q-144 0 -229 82q-85 83 -85 229
zM244 776q32 0 50 -17.5t18 -46.5q0 -27 -18 -44.5t-50 -17.5q-30 0 -48 18t-18 44q0 29 17.5 46.5t48.5 17.5zM458 776q32 0 49.5 -17.5t17.5 -46.5q0 -27 -18 -44.5t-49 -17.5q-30 0 -48 18t-18 44q0 29 17.5 46.5t48.5 17.5z" />
    <glyph glyph-name="multiply" unicode="&#xd7;" horiz-adv-x="377" 
d="M49 227l82 82l-83 83l58 57l82 -83l84 84l57 -58l-84 -83l83 -83l-57 -57l-83 83l-82 -82z" />
    <glyph glyph-name="Oslash" unicode="&#xd8;" horiz-adv-x="703" 
d="M518 617l74 -47l-22 -33q95 -83 95 -237q0 -141 -76 -220q-85 -91 -237 -91q-82 0 -145 29l-24 -34l-73 48l21 31q-93 85 -93 237q0 148 89 231q83 80 225 80q79 0 142 -29zM559 300q0 96 -46 153l-256 -361q43 -19 95 -19q98 0 153 58q54 58 54 169zM145 300
q0 -97 45 -151l254 359q-41 19 -92 19q-90 0 -146 -51q-61 -59 -61 -176z" />
    <glyph glyph-name="Ugrave" unicode="&#xd9;" horiz-adv-x="676" 
d="M63 259v341h106v-345q0 -88 46 -136q43 -45 124 -45t124 44q45 47 45 137v345h105v-341q0 -129 -74 -200q-73 -70 -201 -70q-124 0 -197 66q-78 70 -78 204zM313 820l64 -152l-66 -29l-80 142z" />
    <glyph glyph-name="Uacute" unicode="&#xda;" horiz-adv-x="676" 
d="M63 259v341h106v-345q0 -88 46 -136q43 -45 124 -45t124 44q45 47 45 137v345h105v-341q0 -129 -74 -200q-73 -70 -201 -70q-124 0 -197 66q-78 70 -78 204zM288 668l64 152l82 -39l-80 -142z" />
    <glyph glyph-name="Ucircumflex" unicode="&#xdb;" horiz-adv-x="676" 
d="M63 259v341h106v-345q0 -88 46 -136q43 -45 124 -45t124 44q45 47 45 137v345h105v-341q0 -129 -74 -200q-73 -70 -201 -70q-124 0 -197 66q-78 70 -78 204zM230 640l-37 43l130 125h30l130 -125l-38 -43l-108 82z" />
    <glyph glyph-name="Udieresis" unicode="&#xdc;" horiz-adv-x="676" 
d="M63 259v341h106v-345q0 -88 46 -136q43 -45 124 -45t124 44q45 47 45 137v345h105v-341q0 -129 -74 -200q-73 -70 -201 -70q-124 0 -197 66q-78 70 -78 204zM230 776q32 0 50 -17.5t18 -46.5q0 -27 -18 -44.5t-50 -17.5q-30 0 -48 18t-18 44q0 29 17.5 46.5t48.5 17.5z
M444 776q32 0 49.5 -17.5t17.5 -46.5q0 -27 -18 -44.5t-49 -17.5q-30 0 -48 18t-18 44q0 29 17.5 46.5t48.5 17.5z" />
    <glyph glyph-name="Yacute" unicode="&#xdd;" horiz-adv-x="689" 
d="M398 0h-106v140l-264 460h119l195 -358h7l197 358h115l-263 -458v-142zM305 668l64 152l82 -39l-80 -142z" />
    <glyph glyph-name="Thorn" unicode="&#xde;" horiz-adv-x="597" 
d="M313 86h-144v-86h-106v611h106v-78h151q108 0 173 -63q66 -61 66 -161q0 -97 -64 -158q-68 -65 -182 -65zM455 309q0 59 -30 97q-34 42 -105 42h-151v-278h146q65 0 103 40q37 37 37 99z" />
    <glyph glyph-name="germandbls" unicode="&#xdf;" horiz-adv-x="658" 
d="M285 700q95 0 151 -37q60 -42 60 -114q0 -38 -27 -70q-25 -28 -62 -40q-7 -3 -22 -7t-28 -9t-22 -11q-19 -12 -19 -31q0 -16 12 -25q17 -13 61 -20l61 -14q81 -17 125 -57q45 -43 45 -108q0 -83 -67 -127q-60 -39 -158 -39q-116 0 -191 39l28 72q68 -28 163 -28
q63 0 97 21q32 22 32 64q0 29 -23 47q-23 20 -81 33l-75 17q-70 17 -97 45q-29 26 -29 72q0 43 25 70q24 25 83 43q37 12 53 25q20 18 20 42q0 31 -29 48q-31 18 -84 18q-63 0 -93 -29q-29 -26 -29 -78v-512h-102v504q0 91 59 143q58 53 163 53z" />
    <glyph glyph-name="agrave" unicode="&#xe0;" horiz-adv-x="609" 
d="M542 342v-200q0 -73 24 -126l-58 -23q-32 22 -49 58q-82 -60 -186 -60q-116 0 -175 44q-60 44 -60 131q0 84 72 130q64 41 163 41q87 0 167 -20v30q0 37 -33 57q-36 22 -116 22q-96 0 -184 -29l-20 69q106 43 219 43q124 0 183 -49q53 -44 53 -118zM271 256
q-62 0 -96 -23q-34 -24 -34 -66q0 -44 34 -68q36 -25 107 -25q84 0 158 41v130q-91 11 -169 11zM295 723l58 -147l-61 -29l-78 137z" />
    <glyph glyph-name="aacute" unicode="&#xe1;" horiz-adv-x="609" 
d="M542 342v-200q0 -73 24 -126l-58 -23q-32 22 -49 58q-82 -60 -186 -60q-116 0 -175 44q-60 44 -60 131q0 84 72 130q64 41 163 41q87 0 167 -20v30q0 37 -33 57q-36 22 -116 22q-96 0 -184 -29l-20 69q106 43 219 43q124 0 183 -49q53 -44 53 -118zM271 256
q-62 0 -96 -23q-34 -24 -34 -66q0 -44 34 -68q36 -25 107 -25q84 0 158 41v130q-91 11 -169 11zM270 576l58 147l81 -39l-78 -137z" />
    <glyph glyph-name="acircumflex" unicode="&#xe2;" horiz-adv-x="609" 
d="M542 342v-200q0 -73 24 -126l-58 -23q-32 22 -49 58q-82 -60 -186 -60q-116 0 -175 44q-60 44 -60 131q0 84 72 130q64 41 163 41q87 0 167 -20v30q0 37 -33 57q-36 22 -116 22q-96 0 -184 -29l-20 69q106 43 219 43q124 0 183 -49q53 -44 53 -118zM271 256
q-62 0 -96 -23q-34 -24 -34 -66q0 -44 34 -68q36 -25 107 -25q84 0 158 41v130q-91 11 -169 11zM446 584l-37 -42l-105 75l-106 -75l-36 42l127 120h29z" />
    <glyph glyph-name="atilde" unicode="&#xe3;" horiz-adv-x="609" 
d="M542 342v-200q0 -73 24 -126l-58 -23q-32 22 -49 58q-82 -60 -186 -60q-116 0 -175 44q-60 44 -60 131q0 84 72 130q64 41 163 41q87 0 167 -20v30q0 37 -33 57q-36 22 -116 22q-96 0 -184 -29l-20 69q106 43 219 43q124 0 183 -49q53 -44 53 -118zM271 256
q-62 0 -96 -23q-34 -24 -34 -66q0 -44 34 -68q36 -25 107 -25q84 0 158 41v130q-91 11 -169 11zM301 571q-40 16 -72 16q-39 0 -64 -22l-30 48q47 43 99 43q34 0 71 -15q39 -17 75 -17q33 0 63 23l30 -48q-44 -44 -97 -44q-39 0 -75 16z" />
    <glyph glyph-name="adieresis" unicode="&#xe4;" horiz-adv-x="609" 
d="M542 342v-200q0 -73 24 -126l-58 -23q-32 22 -49 58q-82 -60 -186 -60q-116 0 -175 44q-60 44 -60 131q0 84 72 130q64 41 163 41q87 0 167 -20v30q0 37 -33 57q-36 22 -116 22q-96 0 -184 -29l-20 69q106 43 219 43q124 0 183 -49q53 -44 53 -118zM271 256
q-62 0 -96 -23q-34 -24 -34 -66q0 -44 34 -68q36 -25 107 -25q84 0 158 41v130q-91 11 -169 11zM202 671q28 0 44 -15.5t16 -40.5q0 -24 -16 -40t-44 -16q-27 0 -43 16t-16 40q0 25 16 40.5t43 15.5zM405 671q28 0 44 -15.5t16 -40.5q0 -24 -16 -40t-44 -16t-43.5 16
t-15.5 40q0 25 15.5 40.5t43.5 15.5z" />
    <glyph glyph-name="aring" unicode="&#xe5;" horiz-adv-x="609" 
d="M542 342v-200q0 -73 24 -126l-58 -23q-32 22 -49 58q-82 -60 -186 -60q-116 0 -175 44q-60 44 -60 131q0 84 72 130q64 41 163 41q87 0 167 -20v30q0 37 -33 57q-36 22 -116 22q-96 0 -184 -29l-20 69q106 43 219 43q124 0 183 -49q53 -44 53 -118zM271 256
q-62 0 -96 -23q-34 -24 -34 -66q0 -44 34 -68q36 -25 107 -25q84 0 158 41v130q-91 11 -169 11zM305 552q-47 0 -76 29q-30 28 -30 75q0 46 30 75q29 29 76 29q45 0 78 -31q28 -31 28 -73q0 -46 -27 -73q-31 -31 -79 -31zM355 656q0 24 -15 37q-13 13 -35 13q-24 0 -37 -14
q-14 -12 -14 -36t14 -36q14 -14 37 -14q25 0 37 15q13 11 13 35z" />
    <glyph glyph-name="ae" unicode="&#xe6;" horiz-adv-x="1010" 
d="M706 509q124 0 193 -64q74 -69 74 -199v-40h-427q6 -56 42 -89q45 -44 142 -44q88 0 157 25l23 -71q-78 -36 -182 -36q-83 0 -137 23q-46 20 -83 60q-50 -41 -98 -60q-57 -23 -136 -23q-112 0 -172 43q-63 45 -63 132q0 84 71 130q64 41 163 41q91 0 168 -23v36
q0 30 -28 49q-37 27 -118 27q-89 0 -185 -23l-19 67q106 39 219 39q76 0 129 -24q42 -19 71 -59q28 34 66 54q55 29 130 29zM272 257q-60 0 -96 -25q-34 -24 -34 -65q0 -47 33 -69q33 -24 108 -24q57 0 97 13q37 10 84 41q-23 40 -23 103v15q-89 11 -169 11zM707 427
q-70 0 -113 -35q-42 -34 -51 -105h326q-6 67 -44 102q-39 38 -118 38z" />
    <glyph glyph-name="ccedilla" unicode="&#xe7;" horiz-adv-x="543" 
d="M504 475l-26 -71q-75 23 -151 23q-88 0 -138 -48q-49 -46 -49 -127q0 -87 52 -133q47 -43 135 -43q84 0 153 24l26 -74q-71 -32 -169 -35l-1 -29q30 -3 47 -19q19 -19 19 -49q0 -43 -38.5 -71t-93.5 -41l-16 44q41 15 56 28q22 19 22 40q0 9 -7 15q-7 5 -20 5h-16l-11 10
v69q-102 9 -162 63q-78 72 -78 194q0 119 81 192q77 67 202 67q106 0 183 -34z" />
    <glyph glyph-name="egrave" unicode="&#xe8;" 
d="M306 509q126 0 194 -65q73 -70 73 -198v-40h-428q6 -56 42 -89q47 -44 143 -44q92 0 166 26l23 -71q-81 -37 -190 -37q-140 0 -212 66q-80 74 -80 193q0 117 74 189q73 70 195 70zM306 427q-78 0 -121 -45q-35 -36 -42 -95h327q-7 67 -44 102q-41 38 -120 38zM281 723
l58 -147l-61 -29l-78 137z" />
    <glyph glyph-name="eacute" unicode="&#xe9;" 
d="M306 509q126 0 194 -65q73 -70 73 -198v-40h-428q6 -56 42 -89q47 -44 143 -44q92 0 166 26l23 -71q-81 -37 -190 -37q-140 0 -212 66q-80 74 -80 193q0 117 74 189q73 70 195 70zM306 427q-78 0 -121 -45q-35 -36 -42 -95h327q-7 67 -44 102q-41 38 -120 38zM280 576
l58 147l81 -39l-78 -137z" />
    <glyph glyph-name="ecircumflex" unicode="&#xea;" 
d="M306 509q126 0 194 -65q73 -70 73 -198v-40h-428q6 -56 42 -89q47 -44 143 -44q92 0 166 26l23 -71q-81 -37 -190 -37q-140 0 -212 66q-80 74 -80 193q0 117 74 189q73 70 195 70zM306 427q-78 0 -121 -45q-35 -36 -42 -95h327q-7 67 -44 102q-41 38 -120 38zM452 584
l-37 -42l-105 75l-106 -75l-36 42l127 120h29z" />
    <glyph glyph-name="edieresis" unicode="&#xeb;" 
d="M306 509q126 0 194 -65q73 -70 73 -198v-40h-428q6 -56 42 -89q47 -44 143 -44q92 0 166 26l23 -71q-81 -37 -190 -37q-140 0 -212 66q-80 74 -80 193q0 117 74 189q73 70 195 70zM306 427q-78 0 -121 -45q-35 -36 -42 -95h327q-7 67 -44 102q-41 38 -120 38zM209 671
q28 0 44 -15.5t16 -40.5q0 -24 -16 -40t-44 -16q-27 0 -43 16t-16 40q0 25 16 40.5t43 15.5zM412 671q28 0 44 -15.5t16 -40.5q0 -24 -16 -40t-44 -16t-43.5 16t-15.5 40q0 25 15.5 40.5t43.5 15.5z" />
    <glyph glyph-name="igrave" unicode="&#xec;" horiz-adv-x="247" 
d="M114 723l58 -147l-61 -29l-78 137zM23 431v69h161v-500h-102v424z" />
    <glyph glyph-name="iacute" unicode="&#xed;" horiz-adv-x="247" 
d="M23 431v69h161v-500h-102v424zM78 576l58 147l81 -39l-78 -137z" />
    <glyph glyph-name="icircumflex" unicode="&#xee;" horiz-adv-x="247" 
d="M23 431v69h161v-500h-102v424zM267 584l-37 -42l-105 75l-106 -75l-36 42l127 120h29z" />
    <glyph glyph-name="idieresis" unicode="&#xef;" horiz-adv-x="247" 
d="M23 431v69h161v-500h-102v424zM48 671q28 0 44 -15.5t16 -40.5q0 -24 -16 -40t-44 -16t-43.5 16t-15.5 40q0 25 15.5 40.5t43.5 15.5zM201 671q29 0 45 -15.5t16 -40.5q0 -24 -16.5 -40t-44.5 -16q-27 0 -43 16t-16 40q0 25 16 40.5t43 15.5z" />
    <glyph glyph-name="eth" unicode="&#xf0;" 
d="M319 521l-66 24l25 69q-67 20 -161 33l11 69q102 -8 177 -29l27 72l66 -24l-25 -69q82 -30 126 -88q73 -88 73 -252q0 -169 -73 -256q-68 -79 -195 -79q-123 0 -195 67q-71 66 -71 179q0 108 60 173q67 73 193 73q60 0 103 -14q40 -13 69 -33q-9 56 -41 97q-23 30 -78 56
zM470 316q0 30 -1 41q-36 22 -78 33q-46 11 -96 11q-82 0 -121 -47q-35 -41 -35 -117q0 -75 43 -120q45 -43 122 -43q82 0 123 57q43 59 43 185z" />
    <glyph glyph-name="ntilde" unicode="&#xf1;" horiz-adv-x="628" 
d="M63 500h74l18 -51q73 60 177 60q119 0 175 -56q61 -58 61 -178v-275h-102v271q0 83 -35 119t-107 36q-89 0 -159 -53v-373h-102v500zM319 571q-40 16 -72 16q-39 0 -64 -22l-30 48q47 43 99 43q34 0 71 -15q39 -17 75 -17q33 0 63 23l30 -48q-44 -44 -97 -44
q-39 0 -75 16z" />
    <glyph glyph-name="ograve" unicode="&#xf2;" horiz-adv-x="614" 
d="M307 509q112 0 189 -67q80 -69 80 -192t-80 -192q-77 -67 -189 -67q-114 0 -189 67q-81 70 -81 192t81 192q75 67 189 67zM307 426q-77 0 -121 -46q-46 -46 -46 -130t46 -130q44 -46 121 -46q75 0 121 46q45 47 45 130t-45 130q-46 46 -121 46zM274 723l58 -147l-61 -29
l-78 137z" />
    <glyph glyph-name="oacute" unicode="&#xf3;" horiz-adv-x="614" 
d="M307 509q112 0 189 -67q80 -69 80 -192t-80 -192q-77 -67 -189 -67q-114 0 -189 67q-81 70 -81 192t81 192q75 67 189 67zM307 426q-77 0 -121 -46q-46 -46 -46 -130t46 -130q44 -46 121 -46q75 0 121 46q45 47 45 130t-45 130q-46 46 -121 46zM284 576l58 147l81 -39
l-78 -137z" />
    <glyph glyph-name="ocircumflex" unicode="&#xf4;" horiz-adv-x="614" 
d="M307 509q112 0 189 -67q80 -69 80 -192t-80 -192q-77 -67 -189 -67q-114 0 -189 67q-81 70 -81 192t81 192q75 67 189 67zM307 426q-77 0 -121 -46q-46 -46 -46 -130t46 -130q44 -46 121 -46q75 0 121 46q45 47 45 130t-45 130q-46 46 -121 46zM446 584l-37 -42l-105 75
l-106 -75l-36 42l127 120h29z" />
    <glyph glyph-name="otilde" unicode="&#xf5;" horiz-adv-x="614" 
d="M307 509q112 0 189 -67q80 -69 80 -192t-80 -192q-77 -67 -189 -67q-114 0 -189 67q-81 70 -81 192t81 192q75 67 189 67zM307 426q-77 0 -121 -46q-46 -46 -46 -130t46 -130q44 -46 121 -46q75 0 121 46q45 47 45 130t-45 130q-46 46 -121 46zM308 571q-40 16 -72 16
q-39 0 -64 -22l-30 48q47 43 99 43q33 0 71 -15q39 -17 75 -17q33 0 63 23l30 -48q-44 -44 -97 -44q-39 0 -75 16z" />
    <glyph glyph-name="odieresis" unicode="&#xf6;" horiz-adv-x="614" 
d="M307 509q112 0 189 -67q80 -69 80 -192t-80 -192q-77 -67 -189 -67q-114 0 -189 67q-81 70 -81 192t81 192q75 67 189 67zM307 426q-77 0 -121 -46q-46 -46 -46 -130t46 -130q44 -46 121 -46q75 0 121 46q45 47 45 130t-45 130q-46 46 -121 46zM203 671q28 0 44 -15.5
t16 -40.5q0 -24 -16 -40t-44 -16q-27 0 -43 16t-16 40q0 25 16 40.5t43 15.5zM406 671q28 0 44 -15.5t16 -40.5q0 -24 -16 -40t-44 -16t-43.5 16t-15.5 40q0 25 15.5 40.5t43.5 15.5z" />
    <glyph glyph-name="divide" unicode="&#xf7;" horiz-adv-x="357" 
d="M33 358h291v-73h-291v73zM178 243q28 0 44.5 -16.5t16.5 -41.5q0 -26 -16 -42t-45 -16t-45.5 16t-16.5 42q0 25 16.5 41.5t45.5 16.5zM178 515q28 0 44.5 -16.5t16.5 -41.5t-16.5 -41.5t-44.5 -16.5q-29 0 -45.5 16t-16.5 42t16.5 42t45.5 16z" />
    <glyph glyph-name="oslash" unicode="&#xf8;" horiz-adv-x="614" 
d="M444 523l69 -44l-23 -33q86 -73 86 -196t-80 -192q-77 -67 -189 -67q-64 0 -116 23l-26 -38l-68 45l24 34q-82 72 -84 195q0 122 81 192q75 67 189 67q61 0 112 -23zM436 365l-196 -278q29 -13 67 -13q75 0 121 46q45 47 45 130q0 71 -37 115zM176 138l194 276
q-27 12 -63 12q-77 0 -121 -46q-46 -46 -46 -130q0 -72 36 -112z" />
    <glyph glyph-name="ugrave" unicode="&#xf9;" horiz-adv-x="629" 
d="M566 0h-74l-17 51q-73 -60 -177 -60q-111 0 -169 48q-68 59 -68 186v275h102v-271q0 -83 38 -121q35 -34 105 -34q89 0 158 54v372h102v-500zM285 723l58 -147l-61 -29l-78 137z" />
    <glyph glyph-name="uacute" unicode="&#xfa;" horiz-adv-x="629" 
d="M566 0h-74l-17 51q-73 -60 -177 -60q-111 0 -169 48q-68 59 -68 186v275h102v-271q0 -83 38 -121q35 -34 105 -34q89 0 158 54v372h102v-500zM275 576l58 147l81 -39l-78 -137z" />
    <glyph glyph-name="ucircumflex" unicode="&#xfb;" horiz-adv-x="629" 
d="M566 0h-74l-17 51q-73 -60 -177 -60q-111 0 -169 48q-68 59 -68 186v275h102v-271q0 -83 38 -121q35 -34 105 -34q89 0 158 54v372h102v-500zM458 584l-37 -42l-105 75l-106 -75l-36 42l127 120h29z" />
    <glyph glyph-name="udieresis" unicode="&#xfc;" horiz-adv-x="629" 
d="M566 0h-74l-17 51q-73 -60 -177 -60q-111 0 -169 48q-68 59 -68 186v275h102v-271q0 -83 38 -121q35 -34 105 -34q89 0 158 54v372h102v-500zM212 671q28 0 44 -15.5t16 -40.5q0 -24 -16 -40t-44 -16q-27 0 -43 16t-16 40q0 25 16 40.5t43 15.5zM415 671q28 0 44 -15.5
t16 -40.5q0 -24 -16 -40t-44 -16t-43.5 16t-15.5 40q0 25 15.5 40.5t43.5 15.5z" />
    <glyph glyph-name="yacute" unicode="&#xfd;" horiz-adv-x="631" 
d="M256 0l-233 500h111l182 -407h19l163 407h109l-240 -565q-21 -52 -60 -76q-33 -19 -85 -19q-28 0 -58 11l9 71q20 -4 37 -4q23 0 42 10q19 13 30 41l12 31h-38zM285 576l58 147l81 -39l-78 -137z" />
    <glyph glyph-name="thorn" unicode="&#xfe;" horiz-adv-x="637" 
d="M63 650h102v-198q70 57 181 57q114 0 181 -66q72 -69 72 -191q0 -123 -72 -193q-73 -68 -193 -68q-97 0 -169 51v-192h-102v800zM332 426q-90 0 -167 -51v-243q70 -57 161 -57q80 0 124 45q47 47 47 132t-45 130q-42 44 -120 44z" />
    <glyph glyph-name="ydieresis" unicode="&#xff;" horiz-adv-x="631" 
d="M256 0l-233 500h111l182 -407h19l163 407h109l-240 -565q-21 -52 -60 -76q-33 -19 -85 -19q-28 0 -58 11l9 71q20 -4 37 -4q23 0 42 10q19 13 30 41l12 31h-38zM215 671q28 0 44 -15.5t16 -40.5q0 -24 -16 -40t-44 -16q-27 0 -43 16t-16 40q0 25 16 40.5t43 15.5z
M418 671q28 0 44 -15.5t16 -40.5q0 -24 -16 -40t-44 -16t-43.5 16t-15.5 40q0 25 15.5 40.5t43.5 15.5z" />
    <glyph glyph-name="Amacron" unicode="&#x100;" horiz-adv-x="724" 
d="M299 600h127l270 -600h-112l-47 107h-353l-48 -107h-108zM353 501l-132 -308h278l-131 308h-15zM196 735h331v-73h-331v73z" />
    <glyph glyph-name="amacron" unicode="&#x101;" horiz-adv-x="609" 
d="M542 342v-200q0 -73 24 -126l-58 -23q-32 22 -49 58q-82 -60 -186 -60q-116 0 -175 44q-60 44 -60 131q0 84 72 130q64 41 163 41q87 0 167 -20v30q0 37 -33 57q-36 22 -116 22q-96 0 -184 -29l-20 69q106 43 219 43q124 0 183 -49q53 -44 53 -118zM271 256
q-62 0 -96 -23q-34 -24 -34 -66q0 -44 34 -68q36 -25 107 -25q84 0 158 41v130q-91 11 -169 11zM152 630h303v-67h-303v67z" />
    <glyph glyph-name="Abreve" unicode="&#x102;" horiz-adv-x="724" 
d="M299 600h127l270 -600h-112l-47 107h-353l-48 -107h-108zM353 501l-132 -308h278l-131 308h-15zM216 765l73 9q6 -33 25 -48q20 -15 48 -15q31 0 49 15q17 17 23 48l74 -9q-11 -63 -45 -93q-39 -34 -101 -34q-64 0 -103 36q-35 31 -43 91z" />
    <glyph glyph-name="abreve" unicode="&#x103;" horiz-adv-x="609" 
d="M542 342v-200q0 -73 24 -126l-58 -23q-32 22 -49 58q-82 -60 -186 -60q-116 0 -175 44q-60 44 -60 131q0 84 72 130q64 41 163 41q87 0 167 -20v30q0 37 -33 57q-36 22 -116 22q-96 0 -184 -29l-20 69q106 43 219 43q124 0 183 -49q53 -44 53 -118zM271 256
q-62 0 -96 -23q-34 -24 -34 -66q0 -44 34 -68q36 -25 107 -25q84 0 158 41v130q-91 11 -169 11zM175 661l70 8q3 -29 18 -41q15 -13 40 -13q28 0 42 14q13 13 16 40l70 -8q-5 -54 -38 -84q-34 -31 -90 -31t-90 32q-34 30 -38 83z" />
    <glyph glyph-name="Aogonek" unicode="&#x104;" horiz-adv-x="724" 
d="M299 600h127l270 -600q-13 -8 -22 -22q-8 -18 -8 -35q0 -24 14 -47q15 -21 42 -36l-26 -37q-55 15 -79 41q-25 27 -25 67q0 26 15 48q7 13 21 21h-44l-47 107h-353l-48 -107h-108zM353 501l-132 -308h278l-131 308h-15z" />
    <glyph glyph-name="aogonek" unicode="&#x105;" horiz-adv-x="609" 
d="M542 342v-200q0 -73 24 -126q-17 -9 -26 -22q-9 -12 -9 -31q0 -25 12 -41q13 -17 42 -32l-21 -37q-51 9 -75 32q-26 23 -26 64q0 21 8 37q9 14 18 22q-21 23 -30 43q-82 -60 -186 -60q-116 0 -175 44q-60 44 -60 131q0 84 72 130q64 41 163 41q87 0 167 -20v30
q0 37 -33 57q-36 22 -116 22q-96 0 -184 -29l-20 69q106 43 219 43q124 0 183 -49q53 -44 53 -118zM271 256q-62 0 -96 -23q-34 -24 -34 -66q0 -44 34 -68q36 -25 107 -25q84 0 158 41v130q-91 11 -169 11z" />
    <glyph glyph-name="Cacute" unicode="&#x106;" horiz-adv-x="636" 
d="M38 300q0 153 104 236q95 75 242 75q123 0 214 -46l-32 -74q-91 35 -178 35q-111 0 -175 -58q-69 -61 -69 -168q0 -92 57 -154q69 -72 187 -72q90 0 178 36l32 -73q-90 -48 -214 -48q-161 0 -258 91q-88 83 -88 220zM338 668l64 152l82 -39l-80 -142z" />
    <glyph glyph-name="cacute" unicode="&#x107;" horiz-adv-x="543" 
d="M504 475l-26 -71q-75 23 -151 23q-88 0 -138 -48q-49 -46 -49 -127q0 -87 52 -133q47 -43 135 -43q84 0 153 24l26 -74q-79 -35 -185 -35q-132 0 -205 65q-78 72 -78 194q0 119 81 192q77 67 202 67q106 0 183 -34zM291 576l58 147l81 -39l-78 -137z" />
    <glyph glyph-name="Ccircumflex" unicode="&#x108;" horiz-adv-x="636" 
d="M38 300q0 153 104 236q95 75 242 75q123 0 214 -46l-32 -74q-91 35 -178 35q-111 0 -175 -58q-69 -61 -69 -168q0 -92 57 -154q69 -72 187 -72q90 0 178 36l32 -73q-90 -48 -214 -48q-161 0 -258 91q-88 83 -88 220zM266 640l-37 43l130 125h30l130 -125l-38 -43l-108 82
z" />
    <glyph glyph-name="ccircumflex" unicode="&#x109;" horiz-adv-x="543" 
d="M504 475l-26 -71q-75 23 -151 23q-88 0 -138 -48q-49 -46 -49 -127q0 -87 52 -133q47 -43 135 -43q84 0 153 24l26 -74q-79 -35 -185 -35q-132 0 -205 65q-78 72 -78 194q0 119 81 192q77 67 202 67q106 0 183 -34zM456 584l-37 -42l-105 75l-106 -75l-36 42l127 120h29z
" />
    <glyph glyph-name="Cdotaccent" unicode="&#x10a;" horiz-adv-x="636" 
d="M38 300q0 153 104 236q95 75 242 75q123 0 214 -46l-32 -74q-91 35 -178 35q-111 0 -175 -58q-69 -61 -69 -168q0 -92 57 -154q69 -72 187 -72q90 0 178 36l32 -73q-90 -48 -214 -48q-161 0 -258 91q-88 83 -88 220zM379 773q30 0 47 -17t17 -44q0 -26 -17 -43t-47 -17
q-31 0 -48 17t-17 43q0 27 17 44t48 17z" />
    <glyph glyph-name="cdotaccent" unicode="&#x10b;" horiz-adv-x="543" 
d="M504 475l-26 -71q-75 23 -151 23q-88 0 -138 -48q-49 -46 -49 -127q0 -87 52 -133q47 -43 135 -43q84 0 153 24l26 -74q-79 -35 -185 -35q-132 0 -205 65q-78 72 -78 194q0 119 81 192q77 67 202 67q106 0 183 -34zM323 657q28 0 43.5 -15.5t15.5 -39.5t-15.5 -39.5
t-43.5 -15.5q-27 0 -42.5 15.5t-15.5 39.5t15.5 39.5t42.5 15.5z" />
    <glyph glyph-name="Ccaron" unicode="&#x10c;" horiz-adv-x="636" 
d="M38 300q0 153 104 236q95 75 242 75q123 0 214 -46l-32 -74q-91 35 -178 35q-111 0 -175 -58q-69 -61 -69 -168q0 -92 57 -154q69 -72 187 -72q90 0 178 36l32 -73q-90 -48 -214 -48q-161 0 -258 91q-88 83 -88 220zM242 763l37 43l108 -82l108 82l37 -43l-130 -125h-30z
" />
    <glyph glyph-name="ccaron" unicode="&#x10d;" horiz-adv-x="543" 
d="M504 475l-26 -71q-75 23 -151 23q-88 0 -138 -48q-49 -46 -49 -127q0 -87 52 -133q47 -43 135 -43q84 0 153 24l26 -74q-79 -35 -185 -35q-132 0 -205 65q-78 72 -78 194q0 119 81 192q77 67 202 67q106 0 183 -34zM181 662l37 42l104 -76l104 76l37 -42l-126 -120h-30z
" />
    <glyph glyph-name="Dcaron" unicode="&#x10e;" horiz-adv-x="656" 
d="M63 600h242q157 0 235 -72q84 -78 84 -228q0 -149 -83 -228q-76 -72 -236 -72h-242v600zM518 300q0 110 -51 164q-53 51 -158 51h-140v-429h152q96 0 145 49q52 52 52 165zM154 763l37 43l108 -82l108 82l37 -43l-130 -125h-30z" />
    <glyph glyph-name="dcaron" unicode="&#x10f;" horiz-adv-x="732" 
d="M482 50q-67 -59 -188 -59q-113 0 -180 62q-77 69 -77 197q0 113 70 185q74 74 199 74q96 0 167 -52v193h102v-650h-75zM473 126v244q-67 56 -158 56q-81 0 -126 -43q-50 -47 -50 -132q0 -89 51 -137q41 -39 112 -39q94 0 171 51zM665 623q30 0 46.5 -16.5t16.5 -42.5
q0 -18 -6 -29l-46 -111l-46 13l13 70q-40 12 -40 57q0 26 16.5 42.5t45.5 16.5z" />
    <glyph glyph-name="Dcroat" unicode="&#x110;" horiz-adv-x="665" 
d="M9 353h63v247h236q157 0 235 -72q84 -78 84 -228q0 -149 -83 -228q-76 -72 -236 -72h-236v274h-63v79zM521 300q0 110 -51 164q-53 51 -158 51h-134v-162h143v-79h-143v-188h146q96 0 145 49q52 52 52 165z" />
    <glyph glyph-name="dcroat" unicode="&#x111;" horiz-adv-x="638" 
d="M482 50q-67 -59 -188 -59q-113 0 -180 62q-77 69 -77 197q0 113 70 185q74 74 199 74q96 0 167 -52v82l-125 10v60h125v49h102v-51l50 -5v-67h-50v-535h-75zM473 126v244q-67 56 -158 56q-81 0 -126 -43q-50 -47 -50 -132q0 -89 51 -137q41 -39 112 -39q94 0 171 51z" />
    <glyph glyph-name="Emacron" unicode="&#x112;" horiz-adv-x="604" 
d="M63 0v600h485v-86h-379v-157h337v-84h-337v-187h392v-86h-498zM145 735h331v-73h-331v73z" />
    <glyph glyph-name="emacron" unicode="&#x113;" 
d="M306 509q126 0 194 -65q73 -70 73 -198v-40h-428q6 -56 42 -89q47 -44 143 -44q92 0 166 26l23 -71q-81 -37 -190 -37q-140 0 -212 66q-80 74 -80 193q0 117 74 189q73 70 195 70zM306 427q-78 0 -121 -45q-35 -36 -42 -95h327q-7 67 -44 102q-41 38 -120 38zM157 630
h303v-67h-303v67z" />
    <glyph glyph-name="Ebreve" unicode="&#x114;" horiz-adv-x="604" 
d="M63 0v600h485v-86h-379v-157h337v-84h-337v-187h392v-86h-498zM165 765l73 9q6 -33 25 -48q20 -15 48 -15q31 0 49 15q17 17 23 48l74 -9q-11 -63 -45 -93q-39 -34 -101 -34q-64 0 -103 36q-35 31 -43 91z" />
    <glyph glyph-name="ebreve" unicode="&#x115;" 
d="M306 509q126 0 194 -65q73 -70 73 -198v-40h-428q6 -56 42 -89q47 -44 143 -44q92 0 166 26l23 -71q-81 -37 -190 -37q-140 0 -212 66q-80 74 -80 193q0 117 74 189q73 70 195 70zM306 427q-78 0 -121 -45q-35 -36 -42 -95h327q-7 67 -44 102q-41 38 -120 38zM178 661
l70 8q3 -29 18 -41q15 -13 40 -13q28 0 42 14q13 13 16 40l70 -8q-5 -54 -38 -84q-34 -31 -90 -31t-90 32q-34 30 -38 83z" />
    <glyph glyph-name="Edotaccent" unicode="&#x116;" horiz-adv-x="604" 
d="M63 0v600h485v-86h-379v-157h337v-84h-337v-187h392v-86h-498zM310 768q30 0 47 -17t17 -44q0 -26 -17 -43t-47 -17q-31 0 -48 17t-17 43q0 27 17 44t48 17z" />
    <glyph glyph-name="edotaccent" unicode="&#x117;" 
d="M306 509q126 0 194 -65q73 -70 73 -198v-40h-428q6 -56 42 -89q47 -44 143 -44q92 0 166 26l23 -71q-81 -37 -190 -37q-140 0 -212 66q-80 74 -80 193q0 117 74 189q73 70 195 70zM306 427q-78 0 -121 -45q-35 -36 -42 -95h327q-7 67 -44 102q-41 38 -120 38zM303 666
q28 0 43.5 -15.5t15.5 -39.5t-15.5 -39.5t-43.5 -15.5q-27 0 -42.5 15.5t-15.5 39.5t15.5 39.5t42.5 15.5z" />
    <glyph glyph-name="Eogonek" unicode="&#x118;" horiz-adv-x="604" 
d="M63 0v600h485v-86h-379v-157h337v-84h-337v-187h392v-86q-13 -8 -22 -22q-8 -18 -8 -35q0 -24 14 -47q15 -21 42 -36l-26 -37q-55 15 -79 41t-24 67q0 46 37 69h-432z" />
    <glyph glyph-name="eogonek" unicode="&#x119;" 
d="M306 509q126 0 194 -65q73 -70 73 -198v-40h-428q6 -56 42 -89q47 -44 143 -44q92 0 166 26l23 -71q-14 -9 -20 -22q-7 -13 -7 -28q0 -23 12 -41q13 -17 42 -33l-21 -37q-48 9 -74 32q-27 25 -27 65q0 13 2 19q1 6 7 18q-46 -10 -104 -10q-140 0 -212 66q-80 74 -80 193
q0 117 74 189q73 70 195 70zM306 427q-78 0 -121 -45q-35 -36 -42 -95h327q-7 67 -44 102q-41 38 -120 38z" />
    <glyph glyph-name="Ecaron" unicode="&#x11a;" horiz-adv-x="604" 
d="M63 0v600h485v-86h-379v-157h337v-84h-337v-187h392v-86h-498zM171 763l37 43l108 -82l108 82l37 -43l-130 -125h-30z" />
    <glyph glyph-name="ecaron" unicode="&#x11b;" 
d="M306 509q126 0 194 -65q73 -70 73 -198v-40h-428q6 -56 42 -89q47 -44 143 -44q92 0 166 26l23 -71q-81 -37 -190 -37q-140 0 -212 66q-80 74 -80 193q0 117 74 189q73 70 195 70zM306 427q-78 0 -121 -45q-35 -36 -42 -95h327q-7 67 -44 102q-41 38 -120 38zM169 662
l37 42l104 -76l104 76l37 -42l-126 -120h-30z" />
    <glyph glyph-name="Gcircumflex" unicode="&#x11c;" horiz-adv-x="689" 
d="M379 279v73h252v-352h-72l-18 39q-85 -50 -190 -50q-151 0 -236 91q-77 85 -77 220q0 143 97 229q93 82 252 82q122 0 218 -49l-32 -72q-84 36 -186 36q-110 0 -173 -57q-70 -61 -70 -169q0 -91 48 -152q58 -73 164 -73q85 0 173 40v155zM270 640l-37 43l130 125h30
l130 -125l-38 -43l-108 82z" />
    <glyph glyph-name="gcircumflex" unicode="&#x11d;" horiz-adv-x="621" 
d="M310 -193q-135 0 -235 57l28 71q91 -43 202 -43q90 0 131 38q38 35 38 99v14q-73 -52 -168 -52q-122 0 -193 65q-76 68 -76 194q0 113 69 185q72 74 192 74q117 0 185 -60l18 51h75v-451q0 -117 -68 -180q-67 -62 -198 -62zM309 425q-74 0 -120 -44q-49 -47 -49 -132
q0 -87 48 -133q44 -42 128 -42q88 0 158 55v245q-41 28 -77 39.5t-88 11.5zM440 584l-37 -42l-105 75l-106 -75l-36 42l127 120h29z" />
    <glyph glyph-name="Gbreve" unicode="&#x11e;" horiz-adv-x="689" 
d="M379 279v73h252v-352h-72l-18 39q-85 -50 -190 -50q-151 0 -236 91q-77 85 -77 220q0 143 97 229q93 82 252 82q122 0 218 -49l-32 -72q-84 36 -186 36q-110 0 -173 -57q-70 -61 -70 -169q0 -91 48 -152q58 -73 164 -73q85 0 173 40v155zM231 765l73 9q6 -33 25 -48
q20 -15 48 -15q31 0 49 15q17 17 23 48l74 -9q-11 -63 -45 -93q-39 -34 -101 -34q-64 0 -103 36q-35 31 -43 91z" />
    <glyph glyph-name="gbreve" unicode="&#x11f;" horiz-adv-x="621" 
d="M310 -193q-135 0 -235 57l28 71q91 -43 202 -43q90 0 131 38q38 35 38 99v14q-73 -52 -168 -52q-122 0 -193 65q-76 68 -76 194q0 113 69 185q72 74 192 74q117 0 185 -60l18 51h75v-451q0 -117 -68 -180q-67 -62 -198 -62zM309 425q-74 0 -120 -44q-49 -47 -49 -132
q0 -87 48 -133q44 -42 128 -42q88 0 158 55v245q-41 28 -77 39.5t-88 11.5zM198 661l70 8q3 -29 18 -41q15 -13 40 -13q28 0 42 14q13 13 16 40l70 -8q-5 -54 -38 -84q-34 -31 -90 -31t-90 32q-34 30 -38 83z" />
    <glyph glyph-name="Gdotaccent" unicode="&#x120;" horiz-adv-x="689" 
d="M379 279v73h252v-352h-72l-18 39q-85 -50 -190 -50q-151 0 -236 91q-77 85 -77 220q0 143 97 229q93 82 252 82q122 0 218 -49l-32 -72q-84 36 -186 36q-110 0 -173 -57q-70 -61 -70 -169q0 -91 48 -152q58 -73 164 -73q85 0 173 40v155zM381 774q30 0 47 -17t17 -44
q0 -26 -17 -43t-47 -17q-31 0 -48 17t-17 43q0 27 17 44t48 17z" />
    <glyph glyph-name="gdotaccent" unicode="&#x121;" horiz-adv-x="621" 
d="M310 -193q-135 0 -235 57l28 71q91 -43 202 -43q90 0 131 38q38 35 38 99v14q-73 -52 -168 -52q-122 0 -193 65q-76 68 -76 194q0 113 69 185q72 74 192 74q117 0 185 -60l18 51h75v-451q0 -117 -68 -180q-67 -62 -198 -62zM309 425q-74 0 -120 -44q-49 -47 -49 -132
q0 -87 48 -133q44 -42 128 -42q88 0 158 55v245q-41 28 -77 39.5t-88 11.5zM313 667q28 0 43.5 -15.5t15.5 -39.5t-15.5 -39.5t-43.5 -15.5q-27 0 -42.5 15.5t-15.5 39.5t15.5 39.5t42.5 15.5z" />
    <glyph glyph-name="Gcommaaccent" unicode="&#x122;" horiz-adv-x="689" 
d="M379 279v73h252v-352h-72l-18 39q-85 -50 -190 -50q-151 0 -236 91q-77 85 -77 220q0 143 97 229q93 82 252 82q122 0 218 -49l-32 -72q-84 36 -186 36q-110 0 -173 -57q-70 -61 -70 -169q0 -91 48 -152q58 -73 164 -73q85 0 173 40v155zM348 -41q29 0 46 -16.5t17 -42.5
q0 -17 -5 -30l-44 -113l-49 10l13 75q-40 11 -40 58q0 26 17 42.5t45 16.5z" />
    <glyph glyph-name="gcommaaccent" unicode="&#x123;" horiz-adv-x="621" 
d="M310 -193q-135 0 -235 57l28 71q91 -43 202 -43q90 0 131 38q38 35 38 99v14q-73 -52 -168 -52q-122 0 -193 65q-76 68 -76 194q0 113 69 185q72 74 192 74q117 0 185 -60l18 51h75v-451q0 -117 -68 -180q-67 -62 -198 -62zM309 425q-74 0 -120 -44q-49 -47 -49 -132
q0 -87 48 -133q44 -42 128 -42q88 0 158 55v245q-41 28 -77 39.5t-88 11.5zM292 550q-30 0 -46.5 16.5t-16.5 42.5q0 19 6 29l46 111l46 -13l-13 -70q40 -12 40 -57q0 -26 -16.5 -42.5t-45.5 -16.5z" />
    <glyph glyph-name="Hcircumflex" unicode="&#x124;" horiz-adv-x="677" 
d="M509 600h105v-600h-105v277h-341v-277h-105v600h105v-237h341v237zM231 640l-37 43l130 125h30l130 -125l-38 -43l-108 82z" />
    <glyph glyph-name="hcircumflex" unicode="&#x125;" horiz-adv-x="629" 
d="M63 650h102v-195q75 54 170 54q112 0 169 -53q64 -59 64 -181v-275h-102v271q0 82 -37 119q-34 35 -105 35q-89 0 -159 -53v-372h-102v650zM257 708l-37 -42l-105 75l-106 -75l-36 42l127 120h29z" />
    <glyph glyph-name="Hbar" unicode="&#x126;" horiz-adv-x="677" 
d="M509 600h105v-86h40v-66l-40 -3v-445h-105v277h-341v-277h-105v443h-40v66l40 3v88h105v-86h341v86zM168 363h341v80h-341v-80z" />
    <glyph glyph-name="hbar" unicode="&#x127;" horiz-adv-x="639" 
d="M578 275v-275h-102v271q0 81 -36 119q-35 35 -106 35q-88 0 -158 -53v-372h-103v533h-60v66l60 6v53h103v-49h149v-63l-149 -9v-82q73 54 169 54q111 0 170 -53q63 -60 63 -181z" />
    <glyph glyph-name="Itilde" unicode="&#x128;" horiz-adv-x="232" 
d="M63 600h106v-600h-106v600zM117 669q-44 18 -78 18q-39 0 -68 -22l-31 49q53 47 107 47q35 0 77 -17q43 -18 80 -18q36 0 67 22l31 -50q-46 -46 -103 -46q-44 0 -82 17z" />
    <glyph glyph-name="itilde" unicode="&#x129;" horiz-adv-x="247" 
d="M23 431v69h161v-500h-102v424zM121 571q-40 16 -72 16q-39 0 -64 -22l-30 48q47 43 99 43q34 0 71 -15q39 -17 75 -17q33 0 63 23l30 -48q-44 -44 -97 -44q-39 0 -75 16z" />
    <glyph glyph-name="uni012A" unicode="&#x12a;" horiz-adv-x="232" 
d="M63 600h106v-600h-106v600zM-49 750h331v-73h-331v73z" />
    <glyph glyph-name="imacron" unicode="&#x12b;" horiz-adv-x="247" 
d="M5 630h237v-67h-237v67zM23 431v69h161v-500h-102v424z" />
    <glyph glyph-name="Ibreve" unicode="&#x12c;" horiz-adv-x="232" 
d="M63 600h106v-600h-106v600zM-29 765l73 9q6 -33 25 -48q20 -15 48 -15q31 0 49 15q17 17 23 48l74 -9q-11 -63 -45 -93q-39 -34 -101 -34q-64 0 -103 36q-35 31 -43 91z" />
    <glyph glyph-name="uni012D" unicode="&#x12d;" horiz-adv-x="247" 
d="M23 431v69h161v-500h-102v424zM-4 661l70 8q3 -29 18 -41q15 -13 40 -13q28 0 42 14q13 13 16 40l70 -8q-5 -54 -38 -84q-34 -31 -90 -31t-90 32q-34 30 -38 83z" />
    <glyph glyph-name="Iogonek" unicode="&#x12e;" horiz-adv-x="232" 
d="M63 600h106v-600q-13 -8 -22 -22q-8 -15 -8 -35q0 -27 14 -47q15 -21 42 -36l-27 -37q-54 15 -78 41q-25 27 -25 67q0 23 15 45q9 14 25 24h-42v600z" />
    <glyph glyph-name="iogonek" unicode="&#x12f;" horiz-adv-x="247" 
d="M23 431v69h161v-500q-13 -10 -18 -20q-8 -13 -8 -29q0 -24 13 -41q10 -15 41 -33l-21 -37q-48 9 -74 32q-27 25 -27 65q0 21 11 38q9 13 22 25h-41v424zM133 694q33 0 51.5 -17.5t18.5 -44.5q0 -26 -18.5 -43.5t-51.5 -17.5q-31 0 -50 17.5t-19 43.5t19 44t50 18z" />
    <glyph glyph-name="Idotaccent" unicode="&#x130;" horiz-adv-x="232" 
d="M63 600h106v-600h-106v600zM117 772q30 0 47 -17t17 -44q0 -26 -17 -43t-47 -17q-31 0 -48 17t-17 43q0 27 17 44t48 17z" />
    <glyph glyph-name="dotlessi" unicode="&#x131;" horiz-adv-x="247" 
d="M23 431v69h161v-500h-102v424z" />
    <glyph glyph-name="Jcircumflex" unicode="&#x134;" horiz-adv-x="518" 
d="M349 600h106v-358q0 -121 -71 -187q-69 -66 -207 -66q-85 0 -158 32l26 76q63 -23 128 -23q92 0 136 45q40 41 40 125v356zM292 622l-37 43l130 125h30l130 -125l-38 -43l-108 82z" />
    <glyph glyph-name="jcircumflex" unicode="&#x135;" horiz-adv-x="247" 
d="M23 431v69h161v-506q0 -84 -46 -131q-51 -56 -151 -56q-90 0 -165 44l31 71q61 -30 127 -30q54 0 79 30q23 26 23 72v430zM266 584l-37 -42l-105 75l-106 -75l-36 42l127 120h29z" />
    <glyph glyph-name="Kcommaaccent" unicode="&#x136;" horiz-adv-x="658" 
d="M63 600h107v-238h153l176 238h122l-212 -276l221 -324h-125l-183 277h-152v-277h-107v600zM309 22q29 0 46 -16.5t17 -42.5q0 -17 -5 -30l-44 -113l-49 10l13 75q-40 11 -40 58q0 25 16.5 42t45.5 17z" />
    <glyph glyph-name="kcommaaccent" unicode="&#x137;" horiz-adv-x="600" 
d="M63 650h102v-340h159l127 190h115l-158 -228l165 -272h-115l-132 228h-161v-228h-102v650zM300 23q28 0 44.5 -16t16.5 -41q0 -17 -5 -29l-43 -111l-48 10l13 74q-39 9 -39 56q0 25 16.5 41t44.5 16z" />
    <glyph glyph-name="kgreenlandic" unicode="&#x138;" horiz-adv-x="600" 
d="M63 500h102v-190h159l127 190h115l-158 -228l165 -272h-115l-132 228h-161v-228h-102v500z" />
    <glyph glyph-name="Lacute" unicode="&#x139;" horiz-adv-x="575" 
d="M169 85h368v-85h-474v600h106v-515zM76 668l64 152l82 -39l-80 -142z" />
    <glyph glyph-name="lacute" unicode="&#x13a;" horiz-adv-x="234" 
d="M9 585v65h162v-650h-102v574zM75 715l58 147l81 -39l-78 -137z" />
    <glyph glyph-name="Lcommaaccent" unicode="&#x13b;" horiz-adv-x="575" 
d="M169 85h368v-85h-474v600h106v-515zM297 -29q29 0 46 -16.5t17 -42.5q0 -17 -5 -30l-44 -113l-49 10l13 75q-40 11 -40 58q0 26 16.5 42.5t45.5 16.5z" />
    <glyph glyph-name="lcommaaccent" unicode="&#x13c;" horiz-adv-x="234" 
d="M9 585v65h162v-650h-102v574zM118 -46q28 0 44.5 -16t16.5 -41q0 -17 -5 -29l-43 -111l-48 10l13 74q-39 9 -39 56q0 25 16.5 41t44.5 16z" />
    <glyph glyph-name="Lcaron" unicode="&#x13d;" horiz-adv-x="575" 
d="M169 85h368v-85h-474v600h106v-515zM289 634q30 0 46.5 -16.5t16.5 -42.5q0 -18 -6 -29l-46 -111l-46 13l13 70q-40 12 -40 57q0 26 16.5 42.5t45.5 16.5z" />
    <glyph glyph-name="lcaron" unicode="&#x13e;" horiz-adv-x="303" 
d="M9 585v65h162v-650h-102v574zM280 704q30 0 46.5 -16.5t16.5 -42.5q0 -19 -6 -29l-46 -111l-46 13l13 70q-40 12 -40 57q0 26 16.5 42.5t45.5 16.5z" />
    <glyph glyph-name="Ldot" unicode="&#x13f;" horiz-adv-x="575" 
d="M169 85h368v-85h-474v600h106v-515zM340 374q31 0 48.5 -18t17.5 -44q0 -28 -17.5 -45t-48.5 -17q-30 0 -47.5 17t-17.5 45q0 26 17.5 44t47.5 18z" />
    <glyph glyph-name="ldot" unicode="&#x140;" horiz-adv-x="348" 
d="M9 585v65h162v-650h-102v574zM266 395q30 0 48 -17.5t18 -44.5q0 -28 -17.5 -45t-48.5 -17q-30 0 -47.5 17t-17.5 45q0 26 17.5 44t47.5 18z" />
    <glyph glyph-name="Lslash" unicode="&#x141;" horiz-adv-x="585" 
d="M179 85h368v-85h-474v279l-47 -13l-20 74l67 18v242h106v-213l109 29l20 -74l-129 -35v-222z" />
    <glyph glyph-name="lslash" unicode="&#x142;" horiz-adv-x="258" 
d="M17 650h161v-268l69 18l17 -65l-86 -23v-312h-102v284l-58 -15l-18 65l76 20v220l-59 11v65z" />
    <glyph glyph-name="Nacute" unicode="&#x143;" horiz-adv-x="687" 
d="M523 600h101v-600h-101l-359 448v-448h-101v600h101l359 -446v446zM302 668l64 152l82 -39l-80 -142z" />
    <glyph glyph-name="nacute" unicode="&#x144;" horiz-adv-x="629" 
d="M63 500h74l18 -51q73 60 177 60q119 0 175 -56q61 -58 61 -178v-275h-102v271q0 83 -35 119t-107 36q-89 0 -159 -53v-373h-102v500zM275 576l58 147l81 -39l-78 -137z" />
    <glyph glyph-name="Ncommaaccent" unicode="&#x145;" horiz-adv-x="687" 
d="M523 600h101v-600h-101l-359 448v-448h-101v600h101l359 -446v446zM331 23q29 0 46 -16.5t17 -42.5q0 -17 -5 -30l-44 -113l-49 10l13 75q-40 11 -40 58q0 26 16.5 42.5t45.5 16.5z" />
    <glyph glyph-name="ncommaaccent" unicode="&#x146;" horiz-adv-x="628" 
d="M63 500h74l18 -51q73 60 177 60q119 0 175 -56q61 -58 61 -178v-275h-102v271q0 83 -35 119t-107 36q-89 0 -159 -53v-373h-102v500zM316 20q28 0 44.5 -16t16.5 -41q0 -17 -5 -29l-43 -111l-48 10l13 74q-39 9 -39 56q0 25 16.5 41t44.5 16z" />
    <glyph glyph-name="Ncaron" unicode="&#x147;" horiz-adv-x="687" 
d="M523 600h101v-600h-101l-359 448v-448h-101v600h101l359 -446v446zM199 763l37 43l108 -82l108 82l37 -43l-130 -125h-30z" />
    <glyph glyph-name="ncaron" unicode="&#x148;" horiz-adv-x="628" 
d="M63 500h74l18 -51q73 60 177 60q119 0 175 -56q61 -58 61 -178v-275h-102v271q0 83 -35 119t-107 36q-89 0 -159 -53v-373h-102v500zM189 662l37 42l104 -76l104 76l37 -42l-126 -120h-30z" />
    <glyph glyph-name="napostrophe" unicode="&#x149;" horiz-adv-x="628" 
d="M63 500h74l18 -51q73 60 177 60q119 0 175 -56q61 -58 61 -178v-275h-102v271q0 83 -35 119t-107 36q-89 0 -159 -53v-373h-102v500zM41 717q28 0 44.5 -16t16.5 -41q0 -17 -5 -29l-43 -111l-48 10l13 74q-39 9 -39 56q0 25 16.5 41t44.5 16z" />
    <glyph glyph-name="Omacron" unicode="&#x14c;" horiz-adv-x="703" 
d="M559 300q0 114 -57 172q-57 55 -150 55q-97 0 -151 -56q-56 -58 -56 -171q0 -106 49 -164q54 -63 158 -63q105 0 159 65q48 57 48 162zM38 300q0 144 84 226q83 85 230 85q137 0 223 -78q90 -84 90 -233q0 -135 -71 -215q-85 -96 -242 -96q-144 0 -229 82q-85 83 -85 229
zM186 735h331v-73h-331v73z" />
    <glyph glyph-name="omacron" unicode="&#x14d;" horiz-adv-x="614" 
d="M307 509q112 0 189 -67q80 -69 80 -192t-80 -192q-77 -67 -189 -67q-114 0 -189 67q-81 70 -81 192t81 192q75 67 189 67zM307 426q-77 0 -121 -46q-46 -46 -46 -130t46 -130q44 -46 121 -46q75 0 121 46q45 47 45 130t-45 130q-46 46 -121 46zM153 630h303v-67h-303v67z
" />
    <glyph glyph-name="Obreve" unicode="&#x14e;" horiz-adv-x="703" 
d="M559 300q0 114 -57 172q-57 55 -150 55q-97 0 -151 -56q-56 -58 -56 -171q0 -106 49 -164q54 -63 158 -63q105 0 159 65q48 57 48 162zM38 300q0 144 84 226q83 85 230 85q137 0 223 -78q90 -84 90 -233q0 -135 -71 -215q-85 -96 -242 -96q-144 0 -229 82q-85 83 -85 229
zM206 765l73 9q6 -33 25 -48q20 -15 48 -15q31 0 49 15q17 17 23 48l74 -9q-11 -63 -45 -93q-39 -34 -101 -34q-64 0 -103 36q-35 31 -43 91z" />
    <glyph glyph-name="obreve" unicode="&#x14f;" horiz-adv-x="614" 
d="M307 509q112 0 189 -67q80 -69 80 -192t-80 -192q-77 -67 -189 -67q-114 0 -189 67q-81 70 -81 192t81 192q75 67 189 67zM307 426q-77 0 -121 -46q-46 -46 -46 -130t46 -130q44 -46 121 -46q75 0 121 46q45 47 45 130t-45 130q-46 46 -121 46zM176 661l70 8
q3 -29 18 -41q15 -13 40 -13q28 0 42 14q13 13 16 40l70 -8q-5 -54 -38 -84q-34 -31 -90 -31t-90 32q-34 30 -38 83z" />
    <glyph glyph-name="Ohungarumlaut" unicode="&#x150;" horiz-adv-x="703" 
d="M559 300q0 114 -57 172q-57 55 -150 55q-97 0 -151 -56q-56 -58 -56 -171q0 -106 49 -164q54 -63 158 -63q105 0 159 65q48 57 48 162zM38 300q0 144 84 226q83 85 230 85q137 0 223 -78q90 -84 90 -233q0 -135 -71 -215q-85 -96 -242 -96q-144 0 -229 82q-85 83 -85 229
zM265 672l42 165l82 -29l-65 -156zM377 672l69 163l77 -35l-87 -150z" />
    <glyph glyph-name="ohungarumlaut" unicode="&#x151;" horiz-adv-x="614" 
d="M307 509q112 0 189 -67q80 -69 80 -192t-80 -192q-77 -67 -189 -67q-114 0 -189 67q-81 70 -81 192t81 192q75 67 189 67zM307 426q-77 0 -121 -46q-46 -46 -46 -130t46 -130q44 -46 121 -46q75 0 121 46q45 47 45 130t-45 130q-46 46 -121 46zM231 570l38 153l76 -28
l-59 -144zM336 571l63 150l72 -33l-81 -138z" />
    <glyph glyph-name="OE" unicode="&#x152;" horiz-adv-x="1101" 
d="M38 300q0 154 95 237q83 74 220 74q68 0 122 -21q54 -22 85 -59v69h485v-86h-380v-157h338v-84h-338v-187h393v-86h-498v68q-27 -30 -64 -48q-59 -31 -143 -31q-145 0 -230 82q-85 83 -85 229zM560 300q0 116 -61 175q-57 52 -146 52t-144 -50q-64 -58 -64 -177
q0 -107 51 -165q53 -62 157 -62q95 0 147 54q60 58 60 173z" />
    <glyph glyph-name="oe" unicode="&#x153;" horiz-adv-x="1041" 
d="M738 509q120 0 188 -62q78 -69 78 -201v-40h-426q6 -68 51 -99q44 -34 136 -34q83 0 164 28l23 -72q-88 -38 -189 -38q-106 0 -168 34q-41 20 -70 61h-5q-32 -46 -83 -70q-58 -25 -131 -25q-112 0 -186 62q-83 72 -83 197q0 121 82 193q72 66 187 66q68 0 123 -22
q54 -23 91 -75h5q32 44 82 69q56 28 131 28zM306 426q-77 0 -119 -45q-47 -50 -47 -131q0 -85 49 -134q42 -42 117 -42q84 0 125 42q42 44 42 134q0 96 -48 139q-42 37 -119 37zM739 427q-76 0 -118 -39q-37 -34 -46 -101h326q-8 73 -48 107q-40 33 -114 33z" />
    <glyph glyph-name="Racute" unicode="&#x154;" horiz-adv-x="624" 
d="M63 600h298q111 0 172 -63q55 -55 55 -145q0 -78 -52 -135q-35 -38 -84 -56l125 -201h-115l-108 183h-185v-183h-106v600zM482 393q0 55 -29 86q-33 36 -94 36h-190v-247h188q59 0 92 35q33 33 33 90zM243 668l64 152l82 -39l-80 -142z" />
    <glyph glyph-name="racute" unicode="&#x155;" horiz-adv-x="546" 
d="M63 500h74l18 -51q69 60 172 60q112 0 186 -54l-48 -70q-60 41 -142 41q-89 0 -158 -54v-372h-102v500zM248 576l58 147l81 -39l-78 -137z" />
    <glyph glyph-name="Rcommaaccent" unicode="&#x156;" horiz-adv-x="624" 
d="M63 600h298q111 0 172 -63q55 -55 55 -145q0 -78 -52 -135q-35 -38 -84 -56l125 -201h-115l-108 183h-185v-183h-106v600zM482 393q0 55 -29 86q-33 36 -94 36h-190v-247h188q59 0 92 35q33 33 33 90zM298 22q29 0 46 -16.5t17 -42.5q0 -17 -5 -30l-44 -113l-49 10l13 75
q-40 11 -40 58q0 25 17 42t45 17z" />
    <glyph glyph-name="rcommaaccent" unicode="&#x157;" horiz-adv-x="543" 
d="M63 500h74l18 -51q69 60 172 60q112 0 186 -54l-48 -70q-60 41 -142 41q-89 0 -158 -54v-372h-102v500zM116 -35q28 0 44.5 -16t16.5 -41q0 -17 -5 -29l-43 -111l-48 10l13 74q-39 9 -39 56q0 25 16.5 41t44.5 16z" />
    <glyph glyph-name="Rcaron" unicode="&#x158;" horiz-adv-x="624" 
d="M63 600h298q111 0 172 -63q55 -55 55 -145q0 -78 -52 -135q-35 -38 -84 -56l125 -201h-115l-108 183h-185v-183h-106v600zM482 393q0 55 -29 86q-33 36 -94 36h-190v-247h188q59 0 92 35q33 33 33 90zM155 763l37 43l108 -82l108 82l37 -43l-130 -125h-30z" />
    <glyph glyph-name="rcaron" unicode="&#x159;" horiz-adv-x="546" 
d="M63 500h74l18 -51q69 60 172 60q112 0 186 -54l-48 -70q-60 41 -142 41q-89 0 -158 -54v-372h-102v500zM178 662l37 42l104 -76l104 76l37 -42l-126 -120h-30z" />
    <glyph glyph-name="Sacute" unicode="&#x15a;" horiz-adv-x="647" 
d="M38 438q0 76 58 120q73 53 226 53q125 0 235 -44l-29 -77q-99 34 -202 34q-108 0 -151 -26q-31 -19 -31 -50q0 -30 22 -45q25 -18 80 -26l145 -23q122 -20 168 -63q43 -41 43 -113q0 -89 -74 -137q-82 -52 -234 -52q-134 0 -254 43l25 80q111 -34 225 -34q113 0 165 29
q41 24 41 70q0 40 -29.5 56.5t-89.5 25.5l-154 23q-89 12 -134 47q-51 40 -51 109zM286 668l64 152l82 -39l-80 -142z" />
    <glyph glyph-name="sacute" unicode="&#x15b;" horiz-adv-x="568" 
d="M499 472l-26 -72q-79 27 -182 27q-90 0 -127 -21q-26 -13 -26 -37q0 -25 23 -40q19 -11 57 -15l128 -13q91 -9 137 -46q47 -36 47 -99q0 -78 -58 -117q-70 -48 -220 -48q-111 0 -213 39l25 76q92 -32 184 -32q96 0 138 17q44 18 44 59q0 30 -24 44q-20 12 -76 20l-136 15
q-81 9 -119 44q-37 33 -37 90q0 69 62 107q61 39 191 39q109 0 208 -37zM260 576l58 147l81 -39l-78 -137z" />
    <glyph glyph-name="Scircumflex" unicode="&#x15c;" horiz-adv-x="647" 
d="M38 438q0 76 58 120q73 53 226 53q125 0 235 -44l-29 -77q-99 34 -202 34q-108 0 -151 -26q-31 -19 -31 -50q0 -30 22 -45q25 -18 80 -26l145 -23q122 -20 168 -63q43 -41 43 -113q0 -89 -74 -137q-82 -52 -234 -52q-134 0 -254 43l25 80q111 -34 225 -34q113 0 165 29
q41 24 41 70q0 40 -29.5 56.5t-89.5 25.5l-154 23q-89 12 -134 47q-51 40 -51 109zM216 640l-37 43l130 125h30l130 -125l-38 -43l-108 82z" />
    <glyph glyph-name="scircumflex" unicode="&#x15d;" horiz-adv-x="568" 
d="M499 472l-26 -72q-79 27 -182 27q-90 0 -127 -21q-26 -13 -26 -37q0 -25 23 -40q19 -11 57 -15l128 -13q91 -9 137 -46q47 -36 47 -99q0 -78 -58 -117q-70 -48 -220 -48q-111 0 -213 39l25 76q92 -32 184 -32q96 0 138 17q44 18 44 59q0 30 -24 44q-20 12 -76 20l-136 15
q-81 9 -119 44q-37 33 -37 90q0 69 62 107q61 39 191 39q109 0 208 -37zM427 584l-37 -42l-105 75l-106 -75l-36 42l127 120h29z" />
    <glyph glyph-name="Scedilla" unicode="&#x15e;" horiz-adv-x="647" 
d="M38 438q0 76 58 120q73 53 226 53q131 0 241 -44l-29 -77q-99 34 -208 34q-108 0 -151 -26q-31 -19 -31 -50q0 -30 22 -45q25 -18 80 -26l151 -23q120 -18 168 -63q43 -41 43 -113q0 -89 -74 -137q-71 -46 -214 -51l-2 -25q39 0 60 -18q20 -18 20 -52q0 -45 -38 -73
q-40 -30 -114 -44l-17 44q38 10 63 27q27 20 27 46q0 11 -8 16q-7 5 -22 5h-20l-12 10v64q-110 4 -217 42l25 80q111 -34 225 -34q119 0 171 29q41 24 41 70q0 21 -9.5 36t-29 24t-37 13.5t-43.5 8.5l-160 23q-89 12 -134 47q-51 40 -51 109z" />
    <glyph glyph-name="scedilla" unicode="&#x15f;" horiz-adv-x="568" 
d="M499 472l-26 -72q-79 27 -182 27q-90 0 -127 -21q-26 -13 -26 -37q0 -25 23 -40q19 -11 57 -15l128 -13q91 -9 137 -46q47 -36 47 -99q0 -78 -58 -117q-60 -42 -180 -47l-1 -31q30 -3 47 -19q18 -18 18 -49q0 -42 -38.5 -70.5t-92.5 -41.5l-16 44q39 14 56 28
q22 19 22 40q0 9 -7 15q-6 5 -20 5h-16l-11 10v68q-107 5 -194 39l25 76q92 -32 184 -32q96 0 138 17q44 18 44 59q0 30 -24 44q-20 12 -76 20l-136 15q-81 9 -119 44q-37 33 -37 90q0 69 62 107q61 39 191 39q109 0 208 -37z" />
    <glyph glyph-name="Scaron" unicode="&#x160;" horiz-adv-x="647" 
d="M38 438q0 76 58 120q73 53 226 53q125 0 235 -44l-29 -77q-99 34 -202 34q-108 0 -151 -26q-31 -19 -31 -50q0 -30 22 -45q25 -18 80 -26l145 -23q122 -20 168 -63q43 -41 43 -113q0 -89 -74 -137q-82 -52 -234 -52q-134 0 -254 43l25 80q111 -34 225 -34q113 0 165 29
q41 24 41 70q0 40 -29.5 56.5t-89.5 25.5l-154 23q-89 12 -134 47q-51 40 -51 109zM179 763l37 43l108 -82l108 82l37 -43l-130 -125h-30z" />
    <glyph glyph-name="scaron" unicode="&#x161;" horiz-adv-x="568" 
d="M499 472l-26 -72q-79 27 -182 27q-90 0 -127 -21q-26 -13 -26 -37q0 -25 23 -40q19 -11 57 -15l128 -13q91 -9 137 -46q47 -36 47 -99q0 -78 -58 -117q-70 -48 -220 -48q-111 0 -213 39l25 76q92 -32 184 -32q96 0 138 17q44 18 44 59q0 30 -24 44q-20 12 -76 20l-136 15
q-81 9 -119 44q-37 33 -37 90q0 69 62 107q61 39 191 39q109 0 208 -37zM140 662l37 42l104 -76l104 76l37 -42l-126 -120h-30z" />
    <glyph glyph-name="Tcommaaccent" unicode="&#x162;" horiz-adv-x="639" 
d="M28 515v85h583v-85h-239v-515h-106v515h-238zM319 -37q30 0 46.5 -16.5t16.5 -42.5q0 -17 -5 -30l-44 -113l-49 11l13 75q-40 9 -40 57q0 26 16.5 42.5t45.5 16.5z" />
    <glyph glyph-name="tcommaaccent" unicode="&#x163;" horiz-adv-x="466" 
d="M23 417v71l90 8l14 122h86v-118h211v-73l-211 -8v-251q0 -44 18 -65q23 -27 77 -27q66 0 133 30l27 -64q-76 -51 -177 -51q-93 0 -138 48q-43 43 -43 126v252h-87zM283 -43q28 0 44.5 -16t16.5 -41q0 -17 -5 -29l-43 -111l-48 10l13 74q-39 9 -39 56q0 25 16.5 41
t44.5 16z" />
    <glyph glyph-name="Tcaron" unicode="&#x164;" horiz-adv-x="639" 
d="M28 515v85h583v-85h-239v-515h-106v515h-238zM174 763l37 43l108 -82l108 82l37 -43l-130 -125h-30z" />
    <glyph glyph-name="tcaron" unicode="&#x165;" horiz-adv-x="552" 
d="M23 417v71l90 8l14 122h86v-118h211v-73l-211 -8v-251q0 -44 18 -65q23 -27 77 -27q66 0 133 30l27 -64q-76 -51 -177 -51q-93 0 -138 48q-43 43 -43 126v252h-87zM482 636q30 0 46.5 -16.5t16.5 -42.5q0 -19 -6 -29l-46 -111l-46 13l13 70q-40 12 -40 57q0 26 16.5 42.5
t45.5 16.5z" />
    <glyph glyph-name="Utilde" unicode="&#x168;" horiz-adv-x="676" 
d="M63 259v341h106v-345q0 -88 46 -136q43 -45 124 -45t124 44q45 47 45 137v345h105v-341q0 -129 -74 -200q-73 -70 -201 -70q-124 0 -197 66q-78 70 -78 204zM334 669q-44 18 -78 18q-39 0 -68 -22l-31 49q53 47 107 47q35 0 77 -17q43 -18 80 -18q36 0 67 22l31 -50
q-46 -46 -103 -46q-44 0 -82 17z" />
    <glyph glyph-name="utilde" unicode="&#x169;" horiz-adv-x="629" 
d="M566 0h-74l-17 51q-73 -60 -177 -60q-111 0 -169 48q-68 59 -68 186v275h102v-271q0 -83 38 -121q35 -34 105 -34q89 0 158 54v372h102v-500zM311 571q-40 16 -72 16q-39 0 -64 -22l-30 48q47 43 99 43q34 0 71 -15q39 -17 75 -17q33 0 63 23l30 -48q-44 -44 -97 -44
q-39 0 -75 16z" />
    <glyph glyph-name="Umacron" unicode="&#x16a;" horiz-adv-x="676" 
d="M63 259v341h106v-345q0 -88 46 -136q43 -45 124 -45t124 44q45 47 45 137v345h105v-341q0 -129 -74 -200q-73 -70 -201 -70q-124 0 -197 66q-78 70 -78 204zM173 735h331v-73h-331v73z" />
    <glyph glyph-name="umacron" unicode="&#x16b;" horiz-adv-x="629" 
d="M566 0h-74l-17 51q-73 -60 -177 -60q-111 0 -169 48q-68 59 -68 186v275h102v-271q0 -83 38 -121q35 -34 105 -34q89 0 158 54v372h102v-500zM162 630h303v-67h-303v67z" />
    <glyph glyph-name="Ubreve" unicode="&#x16c;" horiz-adv-x="676" 
d="M63 259v341h106v-345q0 -88 46 -136q43 -45 124 -45t124 44q45 47 45 137v345h105v-341q0 -129 -74 -200q-73 -70 -201 -70q-124 0 -197 66q-78 70 -78 204zM192 756l73 9q6 -33 25 -48q20 -15 48 -15q31 0 49 15q17 17 23 48l74 -9q-11 -63 -45 -93q-39 -34 -101 -34
q-64 0 -103 36q-35 31 -43 91z" />
    <glyph glyph-name="ubreve" unicode="&#x16d;" horiz-adv-x="629" 
d="M566 0h-74l-17 51q-73 -60 -177 -60q-111 0 -169 48q-68 59 -68 186v275h102v-271q0 -83 38 -121q35 -34 105 -34q89 0 158 54v372h102v-500zM186 651l70 8q3 -29 18 -41q15 -13 40 -13q28 0 42 14q13 13 16 40l70 -8q-5 -54 -38 -84q-34 -31 -90 -31t-90 32
q-34 30 -38 83z" />
    <glyph glyph-name="Uring" unicode="&#x16e;" horiz-adv-x="676" 
d="M63 259v341h106v-345q0 -88 46 -136q43 -45 124 -45t124 44q45 47 45 137v345h105v-341q0 -129 -74 -200q-73 -70 -201 -70q-124 0 -197 66q-78 70 -78 204zM337 624q-50 0 -80 30q-32 30 -32 81q0 49 33 79q29 31 79 31q51 0 83 -32q30 -32 30 -78q0 -48 -28 -78
q-31 -33 -85 -33zM391 735q0 22 -14 38q-16 14 -40 14q-25 0 -39 -14t-14 -38q0 -25 15 -39q16 -14 38 -14q27 0 40 15q14 14 14 38z" />
    <glyph glyph-name="uring" unicode="&#x16f;" horiz-adv-x="629" 
d="M566 0h-74l-17 51q-73 -60 -177 -60q-111 0 -169 48q-68 59 -68 186v275h102v-271q0 -83 38 -121q35 -34 105 -34q89 0 158 54v372h102v-500zM308 537q-47 0 -76 29q-30 28 -30 75q0 46 30 75q29 29 76 29q45 0 78 -31q28 -31 28 -73q0 -46 -27 -73q-31 -31 -79 -31z
M358 641q0 24 -15 37q-13 13 -35 13q-24 0 -37 -14q-14 -12 -14 -36t14 -36q14 -14 37 -14q25 0 37 15q13 11 13 35z" />
    <glyph glyph-name="Uhungarumlaut" unicode="&#x170;" horiz-adv-x="676" 
d="M63 259v341h106v-345q0 -88 46 -136q43 -45 124 -45t124 44q45 47 45 137v345h105v-341q0 -129 -74 -200q-73 -70 -201 -70q-124 0 -197 66q-78 70 -78 204zM239 657l42 165l82 -29l-65 -156zM351 657l69 163l77 -35l-87 -150z" />
    <glyph glyph-name="uhungarumlaut" unicode="&#x171;" horiz-adv-x="629" 
d="M566 0h-74l-17 51q-73 -60 -177 -60q-111 0 -169 48q-68 59 -68 186v275h102v-271q0 -83 38 -121q35 -34 105 -34q89 0 158 54v372h102v-500zM226 558l38 153l76 -28l-59 -144zM331 559l63 150l72 -33l-81 -138z" />
    <glyph glyph-name="Uogonek" unicode="&#x172;" horiz-adv-x="676" 
d="M63 259v341h106v-345q0 -88 46 -136q43 -45 124 -45t124 44q45 47 45 137v345h105v-341q0 -129 -74 -200q-58 -56 -153 -67q-10 -6 -18 -21q-9 -15 -9 -35q0 -24 15 -46q15 -20 41 -36l-26 -37q-55 15 -78 41q-25 25 -25 67q0 37 28 65q-105 5 -173 65q-78 70 -78 204z
" />
    <glyph glyph-name="uogonek" unicode="&#x173;" horiz-adv-x="629" 
d="M566 0q-15 -9 -22 -22q-8 -16 -8 -30q0 -24 13 -41q10 -15 41 -33l-21 -37q-48 9 -74 32q-27 25 -27 65q0 26 12 45q8 13 23 25l-28 47q-73 -60 -177 -60q-111 0 -169 48q-68 59 -68 186v275h102v-271q0 -83 38 -121q35 -34 105 -34q89 0 158 54v372h102v-500z" />
    <glyph glyph-name="Wcircumflex" unicode="&#x174;" horiz-adv-x="993" 
d="M28 600h111l149 -495h9l138 495h128l139 -495h10l147 495h106l-189 -600h-143l-132 468h-7l-134 -468h-141zM389 634l-37 43l130 125h30l130 -125l-38 -43l-108 82z" />
    <glyph glyph-name="wcircumflex" unicode="&#x175;" horiz-adv-x="908" 
d="M28 500h108l132 -405h12l105 405h135l116 -405h12l129 405h102l-170 -500h-141l-113 393h-7l-108 -393h-142zM595 584l-37 -42l-105 75l-106 -75l-36 42l127 120h29z" />
    <glyph glyph-name="Ycircumflex" unicode="&#x176;" horiz-adv-x="689" 
d="M398 0h-106v140l-264 460h119l195 -358h7l197 358h115l-263 -458v-142zM237 626l-37 43l130 125h30l130 -125l-38 -43l-108 82z" />
    <glyph glyph-name="ycircumflex" unicode="&#x177;" horiz-adv-x="631" 
d="M256 0l-233 500h111l182 -407h19l163 407h109l-240 -565q-21 -52 -60 -76q-33 -19 -85 -19q-28 0 -58 11l9 71q20 -4 37 -4q23 0 42 10q19 13 30 41l12 31h-38zM465 584l-37 -42l-105 75l-106 -75l-36 42l127 120h29z" />
    <glyph glyph-name="Ydieresis" unicode="&#x178;" horiz-adv-x="689" 
d="M398 0h-106v140l-264 460h119l195 -358h7l197 358h115l-263 -458v-142zM237 776q32 0 50 -17.5t18 -46.5q0 -27 -18 -44.5t-50 -17.5q-31 0 -48.5 18t-17.5 44q0 29 17.5 46.5t48.5 17.5zM451 776q32 0 49.5 -17.5t17.5 -46.5q0 -27 -18 -44.5t-49 -17.5t-48.5 18
t-17.5 44q0 29 17.5 46.5t48.5 17.5z" />
    <glyph glyph-name="Zacute" unicode="&#x179;" horiz-adv-x="584" 
d="M551 86v-86h-518v66l376 452l-144 -3h-211v85h493v-63l-376 -455l138 4h242zM240 668l64 152l82 -39l-80 -142z" />
    <glyph glyph-name="zacute" unicode="&#x17a;" horiz-adv-x="539" 
d="M47 415v85h454v-53l-321 -362h321v-85h-463v58l314 357h-305zM221 576l58 147l81 -39l-78 -137z" />
    <glyph glyph-name="Zdotaccent" unicode="&#x17b;" horiz-adv-x="584" 
d="M551 86v-86h-518v66l376 452l-144 -3h-211v85h493v-63l-376 -455l138 4h242zM291 771q30 0 47 -17t17 -44q0 -26 -17 -43t-47 -17q-31 0 -48 17t-17 43q0 27 17 44t48 17z" />
    <glyph glyph-name="zdotaccent" unicode="&#x17c;" horiz-adv-x="539" 
d="M47 415v85h454v-53l-321 -362h321v-85h-463v58l314 357h-305zM268 656q28 0 43.5 -15.5t15.5 -39.5t-15.5 -39.5t-43.5 -15.5q-27 0 -42.5 15.5t-15.5 39.5t15.5 39.5t42.5 15.5z" />
    <glyph glyph-name="Zcaron" unicode="&#x17d;" horiz-adv-x="584" 
d="M551 86v-86h-518v66l376 452l-144 -3h-211v85h493v-63l-376 -455l138 4h242zM160 763l37 43l108 -82l108 82l37 -43l-130 -125h-30z" />
    <glyph glyph-name="zcaron" unicode="&#x17e;" horiz-adv-x="539" 
d="M47 415v85h454v-53l-321 -362h321v-85h-463v58l314 357h-305zM131 662l37 42l104 -76l104 76l37 -42l-126 -120h-30z" />
    <glyph glyph-name="longs" unicode="&#x17f;" horiz-adv-x="356" 
d="M63 0v526q0 78 54 129q54 49 146 49q102 0 185 -54l-38 -64q-68 34 -135 34q-61 0 -86 -27q-24 -25 -24 -70v-523h-102z" />
    <glyph glyph-name="florin" unicode="&#x192;" horiz-adv-x="449" 
d="M58 -179l-24 69q43 13 61 38q22 30 22 74v415h-88v71l88 8v30q0 79 55 128q52 50 145 50q102 0 185 -54l-38 -64q-68 34 -135 34q-61 0 -86 -27q-24 -25 -24 -70v-23h199v-74l-199 -7v-417q0 -84 -53 -134q-40 -36 -108 -47z" />
    <glyph glyph-name="uni0200" unicode="&#x200;" horiz-adv-x="724" 
d="M299 600h127l270 -600h-112l-47 107h-353l-48 -107h-108zM353 501l-132 -308h278l-131 308h-15zM389 837l41 -165l-59 -20l-65 156zM249 835l69 -163l-59 -22l-87 150z" />
    <glyph glyph-name="uni0201" unicode="&#x201;" horiz-adv-x="609" 
d="M542 342v-200q0 -73 24 -126l-58 -23q-32 22 -49 58q-82 -60 -186 -60q-116 0 -175 44q-60 44 -60 131q0 84 72 130q64 41 163 41q87 0 167 -20v30q0 37 -33 57q-36 22 -116 22q-96 0 -184 -29l-20 69q106 43 219 43q124 0 183 -49q53 -44 53 -118zM271 256
q-62 0 -96 -23q-34 -24 -34 -66q0 -44 34 -68q36 -25 107 -25q84 0 158 41v130q-91 11 -169 11zM351 723l38 -153l-55 -19l-60 144zM221 721l62 -150l-54 -21l-80 138z" />
    <glyph glyph-name="uni0202" unicode="&#x202;" horiz-adv-x="724" 
d="M299 600h127l270 -600h-112l-47 107h-353l-48 -107h-108zM353 501l-132 -308h278l-131 308h-15zM254 640l-37 43l130 125h30l130 -125l-38 -43l-108 82z" />
    <glyph glyph-name="uni0203" unicode="&#x203;" horiz-adv-x="609" 
d="M542 342v-200q0 -73 24 -126l-58 -23q-32 22 -49 58q-82 -60 -186 -60q-116 0 -175 44q-60 44 -60 131q0 84 72 130q64 41 163 41q87 0 167 -20v30q0 37 -33 57q-36 22 -116 22q-96 0 -184 -29l-20 69q106 43 219 43q124 0 183 -49q53 -44 53 -118zM271 256
q-62 0 -96 -23q-34 -24 -34 -66q0 -44 34 -68q36 -25 107 -25q84 0 158 41v130q-91 11 -169 11zM442 584l-37 -42l-105 75l-106 -75l-36 42l127 120h29z" />
    <glyph glyph-name="uni0204" unicode="&#x204;" horiz-adv-x="604" 
d="M63 0v600h485v-86h-379v-157h337v-84h-337v-187h392v-86h-498zM366 837l41 -165l-59 -20l-65 156zM226 835l69 -163l-59 -22l-87 150z" />
    <glyph glyph-name="uni0205" unicode="&#x205;" 
d="M306 509q126 0 194 -65q73 -70 73 -198v-40h-428q6 -56 42 -89q47 -44 143 -44q92 0 166 26l23 -71q-81 -37 -190 -37q-140 0 -212 66q-80 74 -80 193q0 117 74 189q73 70 195 70zM306 427q-78 0 -121 -45q-35 -36 -42 -95h327q-7 67 -44 102q-41 38 -120 38zM350 723
l38 -153l-55 -19l-60 144zM220 721l62 -150l-54 -21l-80 138z" />
    <glyph glyph-name="uni0206" unicode="&#x206;" horiz-adv-x="604" 
d="M63 0v600h485v-86h-379v-157h337v-84h-337v-187h392v-86h-498zM202 640l-37 43l130 125h30l130 -125l-38 -43l-108 82z" />
    <glyph glyph-name="uni0207" unicode="&#x207;" 
d="M306 509q126 0 194 -65q73 -70 73 -198v-40h-428q6 -56 42 -89q47 -44 143 -44q92 0 166 26l23 -71q-81 -37 -190 -37q-140 0 -212 66q-80 74 -80 193q0 117 74 189q73 70 195 70zM306 427q-78 0 -121 -45q-35 -36 -42 -95h327q-7 67 -44 102q-41 38 -120 38zM446 584
l-37 -42l-105 75l-106 -75l-36 42l127 120h29z" />
    <glyph glyph-name="uni0208" unicode="&#x208;" horiz-adv-x="232" 
d="M63 600h106v-600h-106v600zM166 837l41 -165l-59 -20l-65 156zM26 835l69 -163l-59 -22l-87 150z" />
    <glyph glyph-name="uni0209" unicode="&#x209;" horiz-adv-x="247" 
d="M23 431v69h161v-500h-102v424zM175 723l38 -153l-55 -19l-60 144zM45 721l62 -150l-54 -21l-80 138z" />
    <glyph glyph-name="uni020A" unicode="&#x20a;" horiz-adv-x="232" 
d="M63 600h106v-600h-106v600zM8 640l-37 43l130 125h30l130 -125l-38 -43l-108 82z" />
    <glyph glyph-name="uni020B" unicode="&#x20b;" horiz-adv-x="283" 
d="M42 431v69h161v-500h-102v424zM285 584l-37 -42l-105 75l-106 -75l-36 42l127 120h29z" />
    <glyph glyph-name="uni020C" unicode="&#x20c;" horiz-adv-x="703" 
d="M559 300q0 114 -57 172q-57 55 -150 55q-97 0 -151 -56q-56 -58 -56 -171q0 -106 49 -164q54 -63 158 -63q105 0 159 65q48 57 48 162zM38 300q0 144 84 226q83 85 230 85q137 0 223 -78q90 -84 90 -233q0 -135 -71 -215q-85 -96 -242 -96q-144 0 -229 82q-85 83 -85 229
zM396 837l41 -165l-59 -20l-65 156zM256 835l69 -163l-59 -22l-87 150z" />
    <glyph glyph-name="uni020D" unicode="&#x20d;" horiz-adv-x="614" 
d="M307 509q112 0 189 -67q80 -69 80 -192t-80 -192q-77 -67 -189 -67q-114 0 -189 67q-81 70 -81 192t81 192q75 67 189 67zM307 426q-77 0 -121 -46q-46 -46 -46 -130t46 -130q44 -46 121 -46q75 0 121 46q45 47 45 130t-45 130q-46 46 -121 46zM355 723l38 -153l-55 -19
l-60 144zM225 721l62 -150l-54 -21l-80 138z" />
    <glyph glyph-name="uni020E" unicode="&#x20e;" horiz-adv-x="703" 
d="M559 300q0 114 -57 172q-57 55 -150 55q-97 0 -151 -56q-56 -58 -56 -171q0 -106 49 -164q54 -63 158 -63q105 0 159 65q48 57 48 162zM38 300q0 144 84 226q83 85 230 85q137 0 223 -78q90 -84 90 -233q0 -135 -71 -215q-85 -96 -242 -96q-144 0 -229 82q-85 83 -85 229
zM243 640l-37 43l130 125h30l130 -125l-38 -43l-108 82z" />
    <glyph glyph-name="uni020F" unicode="&#x20f;" horiz-adv-x="614" 
d="M307 509q112 0 189 -67q80 -69 80 -192t-80 -192q-77 -67 -189 -67q-114 0 -189 67q-81 70 -81 192t81 192q75 67 189 67zM307 426q-77 0 -121 -46q-46 -46 -46 -130t46 -130q44 -46 121 -46q75 0 121 46q45 47 45 130t-45 130q-46 46 -121 46zM446 584l-37 -42l-105 75
l-106 -75l-36 42l127 120h29z" />
    <glyph glyph-name="uni0210" unicode="&#x210;" horiz-adv-x="624" 
d="M63 600h298q111 0 172 -63q55 -55 55 -145q0 -78 -52 -135q-35 -38 -84 -56l125 -201h-115l-108 183h-185v-183h-106v600zM482 393q0 55 -29 86q-33 36 -94 36h-190v-247h188q59 0 92 35q33 33 33 90zM343 837l41 -165l-59 -20l-65 156zM203 835l69 -163l-59 -22l-87 150
z" />
    <glyph glyph-name="uni0211" unicode="&#x211;" horiz-adv-x="546" 
d="M63 500h74l18 -51q69 60 172 60q112 0 186 -54l-48 -70q-60 41 -142 41q-89 0 -158 -54v-372h-102v500zM352 723l38 -153l-55 -19l-60 144zM222 721l62 -150l-54 -21l-80 138z" />
    <glyph glyph-name="uni0212" unicode="&#x212;" horiz-adv-x="624" 
d="M63 600h298q111 0 172 -63q55 -55 55 -145q0 -78 -52 -135q-35 -38 -84 -56l125 -201h-115l-108 183h-185v-183h-106v600zM482 393q0 55 -29 86q-33 36 -94 36h-190v-247h188q59 0 92 35q33 33 33 90zM187 640l-37 43l130 125h30l130 -125l-38 -43l-108 82z" />
    <glyph glyph-name="uni0213" unicode="&#x213;" horiz-adv-x="546" 
d="M63 500h74l18 -51q69 60 172 60q112 0 186 -54l-48 -70q-60 41 -142 41q-89 0 -158 -54v-372h-102v500zM452 584l-37 -42l-105 75l-106 -75l-36 42l127 120h29z" />
    <glyph glyph-name="uni0214" unicode="&#x214;" horiz-adv-x="676" 
d="M63 259v341h106v-345q0 -88 46 -136q43 -45 124 -45t124 44q45 47 45 137v345h105v-341q0 -129 -74 -200q-73 -70 -201 -70q-124 0 -197 66q-78 70 -78 204zM394 813l41 -165l-59 -20l-65 156zM254 811l69 -163l-59 -22l-87 150z" />
    <glyph glyph-name="uni0215" unicode="&#x215;" horiz-adv-x="629" 
d="M566 0h-74l-17 51q-73 -60 -177 -60q-111 0 -169 48q-68 59 -68 186v275h102v-271q0 -83 38 -121q35 -34 105 -34q89 0 158 54v372h102v-500zM360 708l38 -153l-55 -19l-60 144zM230 706l62 -150l-54 -21l-80 138z" />
    <glyph glyph-name="uni0216" unicode="&#x216;" horiz-adv-x="676" 
d="M63 259v341h106v-345q0 -88 46 -136q43 -45 124 -45t124 44q45 47 45 137v345h105v-341q0 -129 -74 -200q-73 -70 -201 -70q-124 0 -197 66q-78 70 -78 204zM230 627l-37 43l130 125h30l130 -125l-38 -43l-108 82z" />
    <glyph glyph-name="uni0217" unicode="&#x217;" horiz-adv-x="629" 
d="M566 0h-74l-17 51q-73 -60 -177 -60q-111 0 -169 48q-68 59 -68 186v275h102v-271q0 -83 38 -121q35 -34 105 -34q89 0 158 54v372h102v-500zM456 584l-37 -42l-105 75l-106 -75l-36 42l127 120h29z" />
    <glyph glyph-name="Scommaaccent" unicode="&#x218;" horiz-adv-x="647" 
d="M38 438q0 76 58 120q73 53 226 53q125 0 235 -44l-29 -77q-99 34 -202 34q-108 0 -151 -26q-31 -19 -31 -50q0 -30 22 -45q25 -18 80 -26l145 -23q122 -20 168 -63q43 -41 43 -113q0 -89 -74 -137q-82 -52 -234 -52q-134 0 -254 43l25 80q111 -34 225 -34q113 0 165 29
q41 24 41 70q0 40 -29.5 56.5t-89.5 25.5l-154 23q-89 12 -134 47q-51 40 -51 109zM308 -38q29 0 46 -16.5t17 -42.5q0 -17 -5 -30l-44 -113l-49 10l13 75q-40 11 -40 58q0 25 17 42t45 17z" />
    <glyph glyph-name="scommaaccent" unicode="&#x219;" horiz-adv-x="568" 
d="M499 472l-26 -72q-79 27 -182 27q-90 0 -127 -21q-26 -13 -26 -37q0 -25 23 -40q19 -11 57 -15l128 -13q91 -9 137 -46q47 -36 47 -99q0 -78 -58 -117q-70 -48 -220 -48q-111 0 -213 39l25 76q92 -32 184 -32q96 0 138 17q44 18 44 59q0 30 -24 44q-20 12 -76 20l-136 15
q-81 9 -119 44q-37 33 -37 90q0 69 62 107q61 39 191 39q109 0 208 -37zM266 -33q28 0 44.5 -16t16.5 -41q0 -17 -5 -29l-43 -111l-48 10l13 74q-39 9 -39 56q0 25 16.5 41t44.5 16z" />
    <glyph glyph-name="uni021A" unicode="&#x21a;" horiz-adv-x="639" 
d="M28 515v85h583v-85h-239v-515h-106v515h-238zM318 -35q29 0 46 -16.5t17 -42.5q0 -17 -5 -30l-44 -113l-49 10l13 75q-40 11 -40 58q0 26 17 42.5t45 16.5z" />
    <glyph glyph-name="uni021B" unicode="&#x21b;" horiz-adv-x="466" 
d="M23 417v71l90 8l14 122h86v-118h211v-73l-211 -8v-251q0 -44 18 -65q23 -27 77 -27q66 0 133 30l27 -64q-76 -51 -177 -51q-93 0 -138 48q-43 43 -43 126v252h-87zM284 -36q28 0 44.5 -16t16.5 -41q0 -17 -5 -29l-43 -111l-48 10l13 74q-39 9 -39 56q0 25 16.5 41
t44.5 16z" />
    <glyph glyph-name="dotlessj" unicode="&#x237;" horiz-adv-x="247" 
d="M23 431v69h161v-506q0 -84 -46 -131q-51 -56 -151 -56q-90 0 -165 44l31 71q61 -30 127 -30q54 0 79 30q23 26 23 72v430z" />
    <glyph glyph-name="circumflex" unicode="&#x2c6;" horiz-adv-x="394" 
d="M339 584l-37 -42l-105 75l-106 -75l-36 42l127 120h29z" />
    <glyph glyph-name="caron" unicode="&#x2c7;" horiz-adv-x="392" 
d="M55 662l37 42l104 -76l104 76l37 -42l-126 -120h-30z" />
    <glyph glyph-name="uni02C9" unicode="&#x2c9;" horiz-adv-x="353" 
d="M13 717h327v-74h-327v74z" />
    <glyph glyph-name="breve" unicode="&#x2d8;" horiz-adv-x="373" 
d="M63 661l70 8q3 -29 18 -41q15 -13 40 -13q28 0 42 14q13 13 16 40l70 -8q-5 -54 -38 -84q-34 -31 -90 -31t-90 32q-34 30 -38 83z" />
    <glyph glyph-name="dotaccent" unicode="&#x2d9;" horiz-adv-x="227" 
d="M113 104q28 0 43.5 -15.5t15.5 -39.5t-15.5 -39.5t-43.5 -15.5q-27 0 -42.5 15.5t-15.5 39.5t15.5 39.5t42.5 15.5z" />
    <glyph glyph-name="ring" unicode="&#x2da;" horiz-adv-x="322" 
d="M161 552q-47 0 -76 29q-30 28 -30 75q0 46 30 75q29 29 76 29q45 0 78 -31q28 -31 28 -73q0 -46 -27 -73q-31 -31 -79 -31zM211 656q0 24 -15 37q-13 13 -35 13q-24 0 -37 -14q-14 -12 -14 -36t14 -36q14 -14 37 -14q25 0 37 15q13 11 13 35z" />
    <glyph glyph-name="ogonek" unicode="&#x2db;" horiz-adv-x="236" 
d="M116 11l37 -14q-11 -9 -18 -20q-8 -13 -8 -29q0 -23 12 -41q14 -19 42 -33l-21 -37q-50 9 -74 32q-27 25 -27 64q0 30 17 50q17 18 40 28z" />
    <glyph glyph-name="tilde" unicode="&#x2dc;" horiz-adv-x="448" 
d="M221 571q-40 16 -72 16q-39 0 -64 -22l-30 48q47 43 99 43q34 0 71 -15q39 -17 75 -17q33 0 63 23l30 -48q-44 -44 -97 -44q-39 0 -75 16z" />
    <glyph glyph-name="hungarumlaut" unicode="&#x2dd;" horiz-adv-x="350" 
d="M55 570l38 153l76 -28l-59 -144zM160 571l63 150l72 -33l-81 -138z" />
    <glyph glyph-name="afii10023" unicode="&#x401;" horiz-adv-x="606" 
d="M63 0v600h485v-86h-379v-157h337v-84h-337v-187h392v-86h-498zM209 776q32 0 50 -17.5t18 -46.5q0 -27 -18 -44.5t-50 -17.5q-31 0 -48.5 18t-17.5 44q0 29 17.5 46.5t48.5 17.5zM423 776q32 0 49.5 -17.5t17.5 -46.5q0 -27 -18 -44.5t-49 -17.5t-48.5 18t-17.5 44
q0 29 17.5 46.5t48.5 17.5z" />
    <glyph glyph-name="afii10051" unicode="&#x402;" horiz-adv-x="791" 
d="M28 520v80h514v-80h-205v-115q75 54 165 54q108 0 164 -53q64 -59 64 -181v-165q0 -72 -24.5 -122.5t-79.5 -91.5l-56 40q31 40 43.5 77.5t12.5 91.5v166q0 84 -35 119t-100 35q-84 0 -154 -53v-322h-106v520h-203z" />
    <glyph glyph-name="afii10052" unicode="&#x403;" horiz-adv-x="577" 
d="M63 0v600h471v-85h-364v-515h-107zM258 668l64 152l82 -39l-80 -142z" />
    <glyph glyph-name="afii10053" unicode="&#x404;" horiz-adv-x="631" 
d="M463 358v-86h-317q9 -88 60 -136q64 -61 183 -61q92 0 177 35l32 -73q-90 -48 -214 -48q-157 0 -251 82q-95 83 -95 229q0 152 97 234q91 77 249 77q122 0 214 -46l-32 -74q-91 35 -178 35q-118 0 -181 -57q-47 -46 -57 -111h313z" />
    <glyph glyph-name="afii10054" unicode="&#x405;" horiz-adv-x="647" 
d="M38 438q0 76 58 120q73 53 226 53q125 0 235 -44l-29 -77q-99 34 -202 34q-108 0 -151 -26q-31 -19 -31 -50q0 -30 22 -45q25 -18 80 -26l145 -23q122 -20 168 -63q43 -41 43 -113q0 -89 -74 -137q-82 -52 -234 -52q-134 0 -254 43l25 80q111 -34 225 -34q113 0 165 29
q41 24 41 70q0 40 -29.5 56.5t-89.5 25.5l-154 23q-89 12 -134 47q-51 40 -51 109z" />
    <glyph glyph-name="uni0406" unicode="&#x406;" horiz-adv-x="232" 
d="M63 600h106v-600h-106v600z" />
    <glyph glyph-name="afii10056" unicode="&#x407;" horiz-adv-x="232" 
d="M63 600h106v-600h-106v600zM9 776q32 0 50 -17.5t18 -46.5q0 -27 -18 -44.5t-50 -17.5q-31 0 -48.5 18t-17.5 44q0 29 17.5 46.5t48.5 17.5zM223 776q32 0 49.5 -17.5t17.5 -46.5q0 -27 -18 -44.5t-49 -17.5t-48.5 18t-17.5 44q0 29 17.5 46.5t48.5 17.5z" />
    <glyph glyph-name="afii10057" unicode="&#x408;" horiz-adv-x="518" 
d="M349 600h106v-358q0 -121 -71 -187q-69 -66 -207 -66q-85 0 -158 32l26 76q63 -23 128 -23q92 0 136 45q40 41 40 125v356z" />
    <glyph glyph-name="afii10058" unicode="&#x409;" horiz-adv-x="1071" 
d="M218 600h423v-183h169q116 0 177 -69q46 -54 46 -140q0 -92 -60 -149q-61 -59 -165 -59h-273v515h-228l-53 -381q-9 -67 -48 -103q-40 -36 -106 -36q-53 0 -92 12l16 77q28 -7 51 -7q37 0 55 18q20 21 25 62zM929 208q0 50 -23 80q-33 44 -107 44h-158v-247h161
q61 0 94 34q33 31 33 89z" />
    <glyph glyph-name="afii10059" unicode="&#x40a;" horiz-adv-x="1029" 
d="M493 600h105v-183h170q115 0 176 -69q47 -55 47 -140q0 -91 -60 -149q-62 -59 -165 -59h-273v277h-325v-277h-105v600h105v-237h325v237zM887 208q0 48 -23 80q-33 44 -107 44h-159v-247h162q60 0 93 34q34 31 34 89z" />
    <glyph glyph-name="afii10060" unicode="&#x40b;" horiz-adv-x="791" 
d="M730 225v-225h-104v221q0 84 -35 119t-100 35q-84 0 -154 -53v-322h-106v520h-203v80h514v-80h-205v-115q75 54 165 54q108 0 164 -53q64 -59 64 -181z" />
    <glyph glyph-name="afii10061" unicode="&#x40c;" horiz-adv-x="655" 
d="M63 600h106v-239h144l102 167q28 45 65 63q31 16 77 16q31 0 59 -7l-8 -77h-21q-34 0 -51 -8q-20 -9 -35 -34l-102 -156l219 -325h-123l-180 276h-146v-276h-106v600zM255 668l64 152l82 -39l-80 -142z" />
    <glyph glyph-name="afii10062" unicode="&#x40e;" horiz-adv-x="677" 
d="M537 600h112l-255 -491q-34 -65 -72 -91q-36 -24 -93 -24q-31 0 -63 6l7 77h34q32 0 47 10q17 10 40 52l-266 461h120l203 -371h5zM206 765l73 9q6 -33 25 -48q20 -15 48 -15q31 0 49 15q17 17 23 48l74 -9q-11 -63 -45 -93q-39 -34 -101 -34q-64 0 -103 36
q-35 31 -43 91z" />
    <glyph glyph-name="afii10145" unicode="&#x40f;" horiz-adv-x="668" 
d="M605 0h-220l-9 -125h-80l-10 125h-223v600h106v-515h330v515h106v-600z" />
    <glyph glyph-name="afii10017" unicode="&#x410;" horiz-adv-x="722" 
d="M299 600h127l270 -600h-112l-47 107h-353l-48 -107h-108zM353 501l-132 -308h278l-131 308h-15z" />
    <glyph glyph-name="afii10018" unicode="&#x411;" horiz-adv-x="625" 
d="M63 0v600h448v-85h-344v-112h196q108 0 170 -59q54 -54 54 -141q0 -89 -61 -145q-64 -58 -165 -58h-298zM483 203q0 50 -30 82q-31 34 -91 34h-195v-234h190q63 0 96 35q30 32 30 83z" />
    <glyph glyph-name="afii10019" unicode="&#x412;" horiz-adv-x="644" 
d="M402 0h-339v600h323q92 0 144 -49q42 -39 42 -103q0 -43 -19 -72q-16 -26 -42 -43v-6q38 -16 64 -50q31 -42 31 -96q0 -78 -56 -128q-59 -53 -148 -53zM503 183q0 41 -23 66q-27 31 -79 31h-232v-196h230q50 0 79 29q25 27 25 70zM468 440q0 32 -23 55q-24 21 -65 21
h-211v-155h223q36 0 56 25q20 22 20 54z" />
    <glyph glyph-name="afii10020" unicode="&#x413;" horiz-adv-x="577" 
d="M63 0v600h471v-85h-364v-515h-107z" />
    <glyph glyph-name="afii10021" unicode="&#x414;" horiz-adv-x="719" 
d="M185 600h445v-515h61v-207h-87l-12 122h-467l-11 -122h-86v205h17q35 0 54 18q23 20 29 69zM225 151q-6 -40 -22 -66h323v430h-251z" />
    <glyph glyph-name="afii10022" unicode="&#x415;" horiz-adv-x="604" 
d="M63 0v600h485v-86h-379v-157h337v-84h-337v-187h392v-86h-498z" />
    <glyph glyph-name="afii10024" unicode="&#x416;" horiz-adv-x="951" 
d="M424 600h104v-239h109l83 159q21 47 54 67q30 20 75 20q34 0 69 -7l-9 -72h-28q-26 0 -44 -12q-16 -11 -28 -33l-85 -159l194 -324h-116l-158 276h-116v-276h-104v276h-117l-157 -276h-116l194 323l-85 160q-12 23 -30 34q-19 11 -43 11h-27l-10 72q35 7 69 7
q46 0 75 -18q32 -21 55 -69l81 -159h111v239z" />
    <glyph glyph-name="afii10025" unicode="&#x417;" horiz-adv-x="641" 
d="M307 75q101 0 148 36q43 31 43 84q0 38 -25 65q-28 31 -80 31h-230v83h215q40 0 62 27q17 20 17 45q0 38 -31 58q-36 24 -131 24q-99 0 -203 -37l-28 72q107 48 242 48q147 0 211 -55q45 -40 45 -106q0 -36 -17 -62q-13 -24 -40 -41v-4q44 -18 69 -54q29 -38 29 -93
q0 -95 -74 -150q-78 -57 -222 -57q-160 0 -274 57l31 76q120 -47 243 -47z" />
    <glyph glyph-name="afii10026" unicode="&#x418;" horiz-adv-x="689" 
d="M168 600v-449l357 449h101v-600h-105v448l-358 -448h-100v600h105z" />
    <glyph glyph-name="afii10027" unicode="&#x419;" horiz-adv-x="689" 
d="M168 600v-449l357 449h101v-600h-105v448l-358 -448h-100v600h105zM202 765l73 9q6 -33 25 -48q20 -15 48 -15q31 0 49 15q17 17 23 48l74 -9q-11 -63 -45 -93q-39 -34 -101 -34q-64 0 -103 36q-35 31 -43 91z" />
    <glyph glyph-name="afii10028" unicode="&#x41a;" horiz-adv-x="655" 
d="M63 600h106v-239h144l102 167q28 45 65 63q31 16 77 16q31 0 59 -7l-8 -77h-21q-34 0 -51 -8q-20 -9 -35 -34l-102 -156l219 -325h-123l-180 276h-146v-276h-106v600z" />
    <glyph glyph-name="afii10029" unicode="&#x41b;" horiz-adv-x="720" 
d="M218 600h439v-600h-106v515h-244l-53 -381q-9 -67 -48 -103q-40 -36 -106 -36q-53 0 -92 12l16 77q28 -7 51 -7q37 0 55 18q20 21 25 62z" />
    <glyph glyph-name="afii10030" unicode="&#x41c;" horiz-adv-x="835" 
d="M63 600h156l199 -497l200 497h154v-600h-104v474h-5l-191 -474h-115l-191 474h-5v-474h-98v600z" />
    <glyph glyph-name="afii10031" unicode="&#x41d;" horiz-adv-x="677" 
d="M509 600h105v-600h-105v277h-341v-277h-105v600h105v-237h341v237z" />
    <glyph glyph-name="afii10032" unicode="&#x41e;" horiz-adv-x="703" 
d="M559 300q0 114 -57 172q-57 55 -150 55q-97 0 -151 -56q-56 -58 -56 -171q0 -106 49 -164q54 -63 158 -63q105 0 159 65q48 57 48 162zM38 300q0 144 84 226q83 85 230 85q137 0 223 -78q90 -84 90 -233q0 -135 -71 -215q-85 -96 -242 -96q-144 0 -229 82q-85 83 -85 229
z" />
    <glyph glyph-name="afii10033" unicode="&#x41f;" horiz-adv-x="674" 
d="M63 600h548v-600h-106v515h-336v-515h-106v600z" />
    <glyph glyph-name="afii10034" unicode="&#x420;" horiz-adv-x="625" 
d="M347 166h-178v-166h-106v600h295q106 0 171 -65q58 -60 58 -151q0 -94 -60 -151q-67 -65 -180 -67zM481 384q0 56 -30 91q-34 40 -103 40h-179v-264h172q62 0 101 34q39 37 39 99z" />
    <glyph glyph-name="afii10035" unicode="&#x421;" horiz-adv-x="636" 
d="M38 300q0 153 104 236q95 75 242 75q123 0 214 -46l-32 -74q-91 35 -178 35q-111 0 -175 -58q-69 -61 -69 -168q0 -92 57 -154q69 -72 187 -72q90 0 178 36l32 -73q-90 -48 -214 -48q-161 0 -258 91q-88 83 -88 220z" />
    <glyph glyph-name="afii10036" unicode="&#x422;" horiz-adv-x="639" 
d="M28 515v85h583v-85h-239v-515h-106v515h-238z" />
    <glyph glyph-name="afii10037" unicode="&#x423;" horiz-adv-x="677" 
d="M537 600h112l-255 -491q-34 -65 -72 -91q-36 -24 -93 -24q-31 0 -63 6l7 77h34q32 0 47 10q17 10 40 52l-266 461h120l203 -371h5z" />
    <glyph glyph-name="afii10038" unicode="&#x424;" horiz-adv-x="875" 
d="M294 538h91v73h106v-73h90q115 0 185 -64q71 -63 71 -172q0 -107 -64 -169q-68 -66 -186 -66h-96v-67h-106v67h-91q-121 0 -191 67q-65 60 -65 168q0 106 68 169q70 67 188 67zM141 302q0 -66 37 -108q42 -42 112 -42h95v301h-95q-72 0 -111 -42q-38 -41 -38 -109z
M733 302q0 65 -33 104q-39 47 -120 47h-89v-301h94q68 0 108 38q40 40 40 112z" />
    <glyph glyph-name="afii10039" unicode="&#x425;" horiz-adv-x="662" 
d="M164 600l166 -230l160 230h122l-210 -288l232 -312h-125l-182 252l-178 -252h-121l229 310l-217 290h124z" />
    <glyph glyph-name="afii10040" unicode="&#x426;" horiz-adv-x="686" 
d="M63 0v600h106v-515h326v515h106v-515h57v-207h-87l-11 122h-497z" />
    <glyph glyph-name="afii10041" unicode="&#x427;" horiz-adv-x="655" 
d="M592 0h-106v193q-77 -47 -170 -47q-129 0 -199 64q-74 66 -74 203v187h106v-185q0 -96 46 -142q42 -41 130 -41q90 0 161 45v323h106v-600z" />
    <glyph glyph-name="afii10042" unicode="&#x428;" horiz-adv-x="941" 
d="M63 0v600h104v-515h251v515h105v-515h251v515h104v-600h-815z" />
    <glyph glyph-name="afii10043" unicode="&#x429;" horiz-adv-x="964" 
d="M63 0v600h104v-515h251v515h104v-515h252v515h104v-515h58v-207h-87l-12 122h-774z" />
    <glyph glyph-name="afii10044" unicode="&#x42a;" horiz-adv-x="694" 
d="M13 600h234v-183h185q116 0 175 -67q49 -55 49 -142q0 -93 -65 -152q-62 -56 -161 -56h-289v517l-128 10v73zM552 208q0 52 -28 85q-34 39 -103 39h-174v-247h177q61 0 95 36q33 35 33 87z" />
    <glyph glyph-name="afii10045" unicode="&#x42b;" horiz-adv-x="806" 
d="M638 0v600h105v-600h-105zM63 0v600h106v-183h186q115 0 176 -69q47 -55 47 -140q0 -91 -60 -149q-62 -59 -165 -59h-290zM474 208q0 48 -23 80q-33 44 -107 44h-175v-247h178q60 0 93 34q34 31 34 89z" />
    <glyph glyph-name="afii10046" unicode="&#x42c;" horiz-adv-x="616" 
d="M63 0v600h106v-183h186q115 0 176 -69q47 -55 47 -140q0 -91 -60 -149q-62 -59 -165 -59h-290zM474 208q0 48 -23 80q-33 44 -107 44h-175v-247h178q60 0 93 34q34 31 34 89z" />
    <glyph glyph-name="afii10047" unicode="&#x42d;" horiz-adv-x="631" 
d="M168 272v86h314q-11 66 -58 111q-62 57 -181 57q-86 0 -177 -35l-33 74q92 46 215 46q157 0 248 -77q97 -82 97 -234q0 -146 -95 -229q-94 -82 -251 -82q-122 0 -214 48l32 73q87 -35 178 -35q118 0 183 61q52 49 59 136h-317z" />
    <glyph glyph-name="afii10048" unicode="&#x42e;" horiz-adv-x="895" 
d="M857 300q0 -139 -73 -220q-77 -91 -222 -91q-137 0 -213 79q-66 68 -81 194h-99v-262h-106v600h106v-251h101q13 120 87 188q77 74 205 74q139 0 217 -83t78 -228zM562 73q99 0 150 72q41 60 41 155q0 116 -56 175q-49 52 -135 52q-92 0 -141 -57q-50 -61 -50 -170
t51 -169q50 -58 140 -58z" />
    <glyph glyph-name="afii10049" unicode="&#x42f;" horiz-adv-x="654" 
d="M261 600h330v-600h-106v183h-214l-107 -183h-118l125 199q-57 19 -93 66q-45 56 -45 127q0 98 63 153q61 55 165 55zM139 392q0 -48 29 -82q36 -42 97 -42h220v247h-217q-66 0 -101 -40q-28 -33 -28 -83z" />
    <glyph glyph-name="afii10065" unicode="&#x430;" horiz-adv-x="609" 
d="M542 342v-200q0 -73 24 -126l-58 -23q-32 22 -49 58q-82 -60 -186 -60q-116 0 -175 44q-60 44 -60 131q0 84 72 130q64 41 163 41q87 0 167 -20v30q0 37 -33 57q-36 22 -116 22q-96 0 -184 -29l-20 69q106 43 219 43q124 0 183 -49q53 -44 53 -118zM271 256
q-62 0 -96 -23q-34 -24 -34 -66q0 -44 34 -68q36 -25 107 -25q84 0 158 41v130q-91 11 -169 11z" />
    <glyph glyph-name="afii10066" unicode="&#x431;" 
d="M318 483q119 0 188 -67q66 -66 66 -179q0 -114 -72 -180q-71 -66 -197 -66q-120 0 -189 74q-77 84 -77 261q0 181 80 265q77 84 199 84h67q83 0 133 22l31 -63q-38 -27 -75.5 -36t-105.5 -9h-54q-70 0 -120 -53q-35 -37 -44 -98q65 45 170 45zM303 74q79 0 122 41
q45 42 45 122t-38 122q-39 42 -118 42q-100 0 -174 -44q-2 -12 -2 -41q0 -126 49 -188q44 -54 116 -54z" />
    <glyph glyph-name="afii10067" unicode="&#x432;" horiz-adv-x="577" 
d="M63 500h255q101 0 145 -34t44 -100q0 -33 -17 -56q-12 -17 -38 -31v-4q34 -11 60 -40q27 -33 27 -81q0 -77 -58 -115q-58 -39 -179 -39h-239v500zM165 80h152q73 0 99 22q21 16 21 51q0 42 -27 58q-28 16 -88 16h-157v-147zM406 364q0 30 -18 43q-20 14 -76 14h-147v-114
h156q31 0 44.5 3t25.5 14q15 12 15 40z" />
    <glyph glyph-name="afii10068" unicode="&#x433;" horiz-adv-x="527" 
d="M63 500h424v-83h-322v-417h-102v500z" />
    <glyph glyph-name="afii10069" unicode="&#x434;" horiz-adv-x="635" 
d="M174 500h383v-417h50v-188h-84l-11 105h-390l-11 -105h-83v183q39 4 58 21.5t25 51.5zM206 132q-5 -30 -21 -49h269v334h-198z" />
    <glyph glyph-name="afii10070" unicode="&#x435;" 
d="M306 509q126 0 194 -65q73 -70 73 -198v-40h-428q6 -56 42 -89q47 -44 143 -44q92 0 166 26l23 -71q-81 -37 -190 -37q-140 0 -212 66q-80 74 -80 193q0 117 74 189q73 70 195 70zM306 427q-78 0 -121 -45q-35 -36 -42 -95h327q-7 67 -44 102q-41 38 -120 38z" />
    <glyph glyph-name="afii10072" unicode="&#x436;" horiz-adv-x="835" 
d="M367 500h101v-190h71l61 110q25 45 64 66q34 18 81 18q27 0 55 -7l-7 -75h-23q-27 0 -47 -10q-21 -9 -36 -33l-58 -99l177 -280h-116l-138 229h-84v-229h-101v229h-84l-139 -229h-114l176 280l-58 99q-13 22 -38 34q-17 9 -45 9h-22l-8 75q27 7 54 7q47 0 78 -16
q42 -21 67 -68l61 -110h72v190z" />
    <glyph glyph-name="afii10073" unicode="&#x437;" horiz-adv-x="551" 
d="M75 398l-26 73q97 38 217 38q109 0 165 -38q50 -35 50 -101q0 -30 -18 -56q-13 -19 -35 -31v-4q42 -16 64 -45q23 -34 23 -80q0 -71 -65 -118q-66 -45 -191 -45q-133 0 -233 46l29 72q96 -36 207 -36q83 0 119 26q30 21 30 56t-21 52q-25 22 -75 22h-183v80h167
q44 0 66 20q15 12 15 37q0 29 -22 42q-28 19 -97 19q-98 0 -186 -29z" />
    <glyph glyph-name="afii10074" unicode="&#x438;" horiz-adv-x="618" 
d="M157 0h-94v500h101v-355l297 355h94v-500h-102v355z" />
    <glyph glyph-name="afii10075" unicode="&#x439;" horiz-adv-x="618" 
d="M157 0h-94v500h101v-355l297 355h94v-500h-102v355zM180 661l70 8q3 -29 18 -41q15 -13 40 -13q28 0 42 14q13 13 16 40l70 -8q-5 -54 -38 -84q-34 -31 -90 -31t-90 32q-34 30 -38 83z" />
    <glyph glyph-name="afii10076" unicode="&#x43a;" horiz-adv-x="596" 
d="M63 500h102v-190h131l64 110q29 49 71 68q32 16 74 16q27 0 55 -7l-8 -75h-18q-30 0 -54 -11q-17 -8 -33 -32l-62 -100l182 -279h-116l-144 228h-142v-228h-102v500z" />
    <glyph glyph-name="afii10077" unicode="&#x43b;" horiz-adv-x="659" 
d="M205 500h391v-500h-100v417h-210l-54 -305q-10 -62 -53 -91q-35 -25 -92 -25q-41 0 -71 11l8 72h27q38 0 56 9q26 12 33 53z" />
    <glyph glyph-name="afii10078" unicode="&#x43c;" horiz-adv-x="768" 
d="M416 0h-71l-182 365h-4v-365h-96v500h131l190 -372l192 372h129v-500h-102v364h-4z" />
    <glyph glyph-name="afii10079" unicode="&#x43d;" horiz-adv-x="614" 
d="M448 0v219h-281v-219h-104v500h104v-198h281v198h103v-500h-103z" />
    <glyph glyph-name="afii10080" unicode="&#x43e;" horiz-adv-x="614" 
d="M307 509q112 0 189 -67q80 -69 80 -192t-80 -192q-77 -67 -189 -67q-114 0 -189 67q-81 70 -81 192t81 192q75 67 189 67zM307 426q-77 0 -121 -46q-46 -46 -46 -130t46 -130q44 -46 121 -46q75 0 121 46q45 47 45 130t-45 130q-46 46 -121 46z" />
    <glyph glyph-name="afii10081" unicode="&#x43f;" horiz-adv-x="611" 
d="M63 500h485v-500h-102v417h-281v-417h-102v500z" />
    <glyph glyph-name="afii10082" unicode="&#x440;" horiz-adv-x="637" 
d="M63 500h75l17 -51q70 60 187 60q118 0 184 -66q73 -71 73 -193q0 -117 -71 -188t-194 -71q-96 0 -169 52v-193h-102v650zM332 426q-92 0 -167 -51v-244q67 -56 161 -56q73 0 118 40q52 47 52 135q0 87 -45 133q-43 43 -119 43z" />
    <glyph glyph-name="afii10083" unicode="&#x441;" horiz-adv-x="543" 
d="M504 475l-26 -71q-75 23 -151 23q-88 0 -138 -48q-49 -46 -49 -127q0 -87 52 -133q47 -43 135 -43q84 0 153 24l26 -74q-79 -35 -185 -35q-132 0 -205 65q-78 72 -78 194q0 119 81 192q77 67 202 67q106 0 183 -34z" />
    <glyph glyph-name="afii10084" unicode="&#x442;" horiz-adv-x="555" 
d="M226 417h-193v83h489v-83h-193v-417h-103v417z" />
    <glyph glyph-name="afii10085" unicode="&#x443;" horiz-adv-x="632" 
d="M256 0l-233 500h111l182 -407h19l163 407h109l-240 -565q-21 -52 -60 -76q-33 -19 -85 -19q-28 0 -58 11l9 71q20 -4 37 -4q23 0 42 10q19 13 30 41l12 31h-38z" />
    <glyph glyph-name="afii10086" unicode="&#x444;" horiz-adv-x="954" 
d="M428 650h98v-191q63 50 147 50q106 0 172 -64q72 -72 72 -195q0 -125 -75 -195q-67 -64 -172 -64q-79 0 -144 49v-190h-98v190q-65 -49 -144 -49q-105 0 -172 64q-75 70 -75 195q0 124 73 195q64 64 171 64q84 0 147 -50v191zM428 124v252q-40 28 -69.5 39t-70.5 11
q-67 0 -108 -41q-43 -46 -43 -135q0 -84 42 -129q44 -47 116 -47t133 50zM526 376v-252q59 -50 133 -50t116 47q42 45 42 129q0 89 -43 135q-39 41 -107 41q-42 0 -71 -10.5t-70 -39.5z" />
    <glyph glyph-name="afii10087" unicode="&#x445;" horiz-adv-x="608" 
d="M143 0h-115l175 265l-161 235h119l124 -192h41l122 192h115l-159 -235l176 -265h-118l-137 218h-46z" />
    <glyph glyph-name="afii10088" unicode="&#x446;" horiz-adv-x="618" 
d="M63 500h102v-417h270v417h103v-417h52v-188h-84l-11 105h-432v500z" />
    <glyph glyph-name="afii10089" unicode="&#x447;" horiz-adv-x="581" 
d="M518 0h-102v158q-66 -46 -149 -46q-114 0 -172 58q-52 52 -52 151v179h102v-175q0 -63 27 -95q31 -35 101 -35q82 0 143 43v262h102v-500z" />
    <glyph glyph-name="afii10090" unicode="&#x448;" horiz-adv-x="854" 
d="M63 0v500h102v-417h211v417h102v-417h211v417h102v-500h-728z" />
    <glyph glyph-name="afii10091" unicode="&#x449;" horiz-adv-x="871" 
d="M63 0v500h102v-417h211v417h102v-417h211v417h102v-417h52v-188h-84l-11 105h-685z" />
    <glyph glyph-name="afii10092" unicode="&#x44a;" horiz-adv-x="644" 
d="M36 428v72h214v-137h143q109 0 166 -57q47 -49 47 -125q0 -81 -58 -130q-60 -51 -174 -51h-226v419zM250 82h120q65 0 102 27q32 26 32 73q0 44 -26 69q-32 30 -102 30h-126v-199z" />
    <glyph glyph-name="afii10093" unicode="&#x44b;" horiz-adv-x="742" 
d="M63 0v500h102v-137h143q104 0 162 -53q51 -48 51 -129q0 -79 -51 -125q-61 -56 -181 -56h-226zM165 82h120q73 0 108 33q26 25 26 67q0 46 -28 71q-33 28 -100 28h-126v-199zM577 500h102v-500h-102v500z" />
    <glyph glyph-name="afii10094" unicode="&#x44c;" horiz-adv-x="559" 
d="M63 0v500h102v-137h143q104 0 162 -53q51 -48 51 -129q0 -79 -51 -125q-61 -56 -181 -56h-226zM165 82h120q73 0 108 33q26 25 26 67q0 46 -28 71q-33 28 -100 28h-126v-199z" />
    <glyph glyph-name="afii10095" unicode="&#x44d;" horiz-adv-x="553" 
d="M142 221v80h264q-9 56 -51 90q-48 36 -132 36q-73 0 -154 -23l-26 71q85 34 186 34q126 0 200 -60q86 -71 86 -199q0 -120 -77 -191q-74 -68 -209 -68q-107 0 -192 35l26 74q76 -24 160 -24q98 0 146 50q33 36 39 95h-266z" />
    <glyph glyph-name="afii10096" unicode="&#x44e;" horiz-adv-x="793" 
d="M63 500h100v-197h83q12 87 74 143q69 63 178 63q116 0 181 -62q76 -68 76 -197q0 -122 -71 -191q-70 -68 -186 -68q-113 0 -182 66q-61 59 -71 163h-82v-220h-100v500zM653 250q0 90 -44 137q-39 39 -111 39q-76 0 -115 -45q-40 -44 -40 -131t44 -134q40 -42 111 -42
q78 0 117 47q38 44 38 129z" />
    <glyph glyph-name="afii10097" unicode="&#x44f;" horiz-adv-x="567" 
d="M504 500v-500h-102v137h-124q-23 0 -35 2l-88 -139h-110l107 159q-49 18 -78 57q-32 46 -32 103q0 83 54 131q56 50 167 50h241zM145 318q0 -39 20 -65q29 -34 95 -34h142v200h-135q-64 0 -95 -28q-27 -27 -27 -73z" />
    <glyph glyph-name="afii10071" unicode="&#x451;" 
d="M306 509q126 0 194 -65q73 -70 73 -198v-40h-428q6 -56 42 -89q47 -44 143 -44q92 0 166 26l23 -71q-81 -37 -190 -37q-140 0 -212 66q-80 74 -80 193q0 117 74 189q73 70 195 70zM306 427q-78 0 -121 -45q-35 -36 -42 -95h327q-7 67 -44 102q-41 38 -120 38zM216 671
q28 0 44 -15.5t16 -40.5q0 -24 -16 -40t-44 -16q-27 0 -43 16t-16 40q0 25 16 40.5t43 15.5zM419 671q28 0 44 -15.5t16 -40.5q0 -24 -16 -40t-44 -16t-43.5 16t-15.5 40q0 25 15.5 40.5t43.5 15.5z" />
    <glyph glyph-name="afii10099" unicode="&#x452;" horiz-adv-x="639" 
d="M73 658h103v-49h149v-63l-149 -9v-82q73 54 169 54q111 0 170 -53q63 -60 63 -181v-215q0 -72 -24 -122.5t-79 -91.5l-57 40q32 40 45 77.5t13 91.5v216q0 81 -36 119q-35 35 -106 35q-88 0 -158 -53v-372h-103v533h-60v66l60 6v53z" />
    <glyph glyph-name="afii10100" unicode="&#x453;" horiz-adv-x="527" 
d="M63 500h424v-83h-322v-417h-102v500zM232 576l58 147l81 -39l-78 -137z" />
    <glyph glyph-name="afii10101" unicode="&#x454;" horiz-adv-x="553" 
d="M412 301v-80h-267q6 -59 40 -95q48 -50 145 -50q80 0 158 24l25 -74q-83 -35 -189 -35q-135 0 -209 68q-77 72 -77 191q0 128 86 199q74 60 200 60q105 0 189 -34l-25 -71q-80 23 -158 23q-84 0 -131 -36q-42 -32 -52 -90h265z" />
    <glyph glyph-name="afii10102" unicode="&#x455;" horiz-adv-x="568" 
d="M499 472l-26 -72q-79 27 -182 27q-90 0 -127 -21q-26 -13 -26 -37q0 -25 23 -40q19 -11 57 -15l128 -13q91 -9 137 -46q47 -36 47 -99q0 -78 -58 -117q-70 -48 -220 -48q-111 0 -213 39l25 76q92 -32 184 -32q96 0 138 17q44 18 44 59q0 30 -24 44q-20 12 -76 20l-136 15
q-81 9 -119 44q-37 33 -37 90q0 69 62 107q61 39 191 39q109 0 208 -37z" />
    <glyph glyph-name="afii10103" unicode="&#x456;" horiz-adv-x="247" 
d="M23 431v69h161v-500h-102v424zM133 694q33 0 51.5 -17.5t18.5 -44.5q0 -26 -18.5 -43.5t-51.5 -17.5q-31 0 -50 17.5t-19 43.5t19 44t50 18z" />
    <glyph glyph-name="afii10104" unicode="&#x457;" horiz-adv-x="247" 
d="M23 431v69h161v-500h-102v424zM48 671q28 0 44 -15.5t16 -40.5q0 -24 -16 -40t-44 -16t-43.5 16t-15.5 40q0 25 15.5 40.5t43.5 15.5zM201 671q29 0 45 -15.5t16 -40.5q0 -24 -16.5 -40t-44.5 -16q-27 0 -43 16t-16 40q0 25 16 40.5t43 15.5z" />
    <glyph glyph-name="afii10105" unicode="&#x458;" horiz-adv-x="247" 
d="M23 431v69h161v-506q0 -84 -46 -131q-51 -56 -151 -56q-90 0 -165 44l31 71q61 -30 127 -30q54 0 79 30q23 26 23 72v430zM133 694q33 0 51.5 -17.5t18.5 -44.5q0 -26 -18.5 -43.5t-51.5 -17.5q-32 0 -50.5 17.5t-18.5 43.5q0 27 18.5 44.5t50.5 17.5z" />
    <glyph glyph-name="afii10106" unicode="&#x459;" horiz-adv-x="958" 
d="M205 500h369v-137h134q104 0 162 -53q50 -47 50 -129q0 -79 -51 -125q-61 -56 -180 -56h-215v417h-188l-54 -305q-10 -62 -53 -91q-35 -25 -92 -25q-41 0 -71 11l8 72h31q33 0 52 9q26 12 33 53zM574 82h110q75 0 108 33q26 25 26 67q0 47 -28 71q-33 28 -100 28h-116
v-199z" />
    <glyph glyph-name="afii10107" unicode="&#x45a;" horiz-adv-x="919" 
d="M432 0v219h-265v-219h-104v500h104v-198h265v198h103v-137h133q104 0 162 -53q51 -48 51 -129q0 -79 -51 -125q-61 -56 -181 -56h-217zM535 82h110q73 0 108 33q26 25 26 67q0 46 -28 71q-33 28 -100 28h-116v-199z" />
    <glyph glyph-name="afii10108" unicode="&#x45b;" horiz-adv-x="639" 
d="M578 275v-275h-102v271q0 81 -36 119q-35 35 -106 35q-88 0 -158 -53v-372h-103v533h-60v66l60 6v53h103v-49h149v-63l-149 -9v-82q73 54 169 54q111 0 170 -53q63 -60 63 -181z" />
    <glyph glyph-name="afii10109" unicode="&#x45c;" horiz-adv-x="596" 
d="M63 500h102v-190h131l64 110q29 49 71 68q32 16 74 16q27 0 55 -7l-8 -75h-18q-30 0 -54 -11q-17 -8 -33 -32l-62 -100l182 -279h-116l-144 228h-142v-228h-102v500zM244 576l58 147l81 -39l-78 -137z" />
    <glyph glyph-name="afii10110" unicode="&#x45e;" horiz-adv-x="631" 
d="M256 0l-233 500h111l182 -407h19l163 407h109l-240 -565q-21 -52 -60 -76q-33 -19 -85 -19q-28 0 -58 11l9 71q20 -4 37 -4q23 0 42 10q19 13 30 41l12 31h-38zM192 661l70 8q3 -29 18 -41q15 -13 40 -13q28 0 42 14q13 13 16 40l70 -8q-5 -54 -38 -84q-34 -31 -90 -31
t-90 32q-34 30 -38 83z" />
    <glyph glyph-name="afii10193" unicode="&#x45f;" horiz-adv-x="611" 
d="M549 0h-197l-10 -117h-71l-10 117h-197v500h102v-417h281v417h102v-500z" />
    <glyph glyph-name="afii10050" unicode="&#x490;" horiz-adv-x="567" 
d="M63 0v600h372l11 90h78v-175h-354v-515h-107z" />
    <glyph glyph-name="afii10098" unicode="&#x491;" horiz-adv-x="524" 
d="M63 500h331l11 87h78v-170h-318v-417h-102v500z" />
    <glyph glyph-name="endash" unicode="&#x2013;" horiz-adv-x="441" 
d="M33 303h375v-81h-375v81z" />
    <glyph glyph-name="emdash" unicode="&#x2014;" horiz-adv-x="515" 
d="M33 303h449v-81h-449v81z" />
    <glyph glyph-name="quoteleft" unicode="&#x2018;" horiz-adv-x="221" 
d="M85 444q-30 0 -46.5 16.5t-16.5 42.5q0 19 6 29l46 111l46 -13l-13 -70q40 -12 40 -57q0 -26 -16.5 -42.5t-45.5 -16.5z" />
    <glyph glyph-name="quoteright" unicode="&#x2019;" horiz-adv-x="221" 
d="M110 623q30 0 46.5 -16.5t16.5 -42.5q0 -18 -6 -29l-46 -111l-46 13l13 70q-40 12 -40 57q0 26 16.5 42.5t45.5 16.5z" />
    <glyph glyph-name="quotesinglbase" unicode="&#x201a;" horiz-adv-x="224" 
d="M110 111q30 0 46.5 -16.5t16.5 -42.5q0 -18 -6 -29l-46 -111l-46 13l13 70q-40 12 -40 57q0 26 16.5 42.5t45.5 16.5z" />
    <glyph glyph-name="quotedblleft" unicode="&#x201c;" horiz-adv-x="362" 
d="M225 444q-30 0 -46.5 16.5t-16.5 42.5q0 19 6 29l46 111l46 -13l-13 -70q40 -12 40 -57q0 -26 -16.5 -42.5t-45.5 -16.5zM85 444q-30 0 -46.5 16.5t-16.5 42.5q0 19 6 29l46 111l46 -13l-13 -70q40 -12 40 -57q0 -26 -16.5 -42.5t-45.5 -16.5z" />
    <glyph glyph-name="quotedblright" unicode="&#x201d;" horiz-adv-x="362" 
d="M250 623q30 0 46.5 -16.5t16.5 -42.5q0 -18 -6 -29l-46 -111l-46 13l13 70q-40 12 -40 57q0 26 16.5 42.5t45.5 16.5zM110 623q30 0 46.5 -16.5t16.5 -42.5q0 -18 -6 -29l-46 -111l-46 13l13 70q-40 12 -40 57q0 26 16.5 42.5t45.5 16.5z" />
    <glyph glyph-name="quotedblbase" unicode="&#x201e;" horiz-adv-x="362" 
d="M110 111q30 0 46.5 -16.5t16.5 -42.5q0 -18 -6 -29l-46 -111l-46 13l13 70q-40 12 -40 57q0 26 16.5 42.5t45.5 16.5zM250 111q30 0 46.5 -16.5t16.5 -42.5q0 -18 -6 -29l-46 -111l-46 13l13 70q-40 12 -40 57q0 26 16.5 42.5t45.5 16.5z" />
    <glyph glyph-name="dagger" unicode="&#x2020;" horiz-adv-x="334" 
d="M88 328h-52l-8 34l8 34h52l49 -8l-8 48v56l38 8l38 -8v-56l-8 -48l49 8h52l8 -34l-8 -34h-52l-49 7l7 -49v-185l-13 -101h-60v286l6 49z" />
    <glyph glyph-name="daggerdbl" unicode="&#x2021;" horiz-adv-x="334" 
d="M88 328h-52l-8 34l8 34h52l49 -8l-8 48v56l38 8l38 -8v-56l-8 -48l49 8h52l8 -34l-8 -34h-52l-49 7l8 -49l-8 -49l49 8h52l8 -34l-8 -34h-52l-49 8l8 -49v-35l-14 -101h-62v136l8 49l-49 -8h-52l-8 34l8 34h52l49 -8l-8 49l8 49z" />
    <glyph glyph-name="bullet" unicode="&#x2022;" horiz-adv-x="255" 
d="M127 365q37 0 58.5 -21t21.5 -53q0 -34 -21 -54.5t-59 -20.5q-37 0 -58 20.5t-21 54.5q0 32 21.5 53t57.5 21z" />
    <glyph glyph-name="onedotenleader" unicode="&#x2024;" horiz-adv-x="227" 
d="M113 118q31 0 48.5 -18t17.5 -44q0 -28 -17.5 -45t-48.5 -17q-30 0 -47.5 17t-17.5 45q0 26 17.5 44t47.5 18z" />
    <glyph glyph-name="twodotenleader" unicode="&#x2025;" horiz-adv-x="412" 
d="M113 118q31 0 48.5 -18t17.5 -44q0 -28 -17.5 -45t-48.5 -17q-30 0 -47.5 17t-17.5 45q0 26 17.5 44t47.5 18zM298 118q30 0 48 -18t18 -44q0 -28 -17.5 -45t-48.5 -17q-30 0 -47.5 17t-17.5 45q0 26 17.5 44t47.5 18z" />
    <glyph glyph-name="ellipsis" unicode="&#x2026;" horiz-adv-x="577" 
d="M113 118q31 0 48.5 -18t17.5 -44q0 -28 -17.5 -45t-48.5 -17q-30 0 -47.5 17t-17.5 45q0 26 17.5 44t47.5 18zM288 118q30 0 48 -18t18 -44q0 -28 -17.5 -45t-48.5 -17t-48 17t-17 45q0 27 17.5 44.5t47.5 17.5zM463 118q31 0 48.5 -18t17.5 -44q0 -28 -17.5 -45
t-48.5 -17t-48 17t-17 45q0 27 17.5 44.5t47.5 17.5z" />
    <glyph glyph-name="perthousand" unicode="&#x2030;" horiz-adv-x="1005" 
d="M148 25l333 488l58 -39l-332 -488zM172 225q-62 0 -104 40q-40 40 -40 102q0 63 41 102q40 40 103 40q66 0 108 -45q36 -41 36 -97q0 -57 -36 -95q-41 -47 -108 -47zM246 367q0 33 -18 54q-21 24 -56 24q-34 0 -53 -21q-21 -23 -21 -57q0 -30 17 -52q22 -25 57 -25
q34 0 54 22t20 55zM514 -11q-63 0 -103 40q-41 38 -41 102q0 63 41 102q40 40 103 40q67 0 108 -46q36 -39 36 -96t-36 -96q-41 -46 -108 -46zM588 131q0 31 -18 54q-22 24 -56 24q-32 0 -53 -21q-21 -23 -21 -57q0 -32 18 -53q20 -25 56 -25q33 0 54 23q20 22 20 55z
M827 -11q-63 0 -103 40q-41 38 -41 102q0 63 41 102q40 40 103 40q67 0 108 -46q36 -39 36 -96t-36 -96q-41 -46 -108 -46zM901 131q0 31 -18 54q-22 24 -56 24q-32 0 -53 -21q-21 -23 -21 -57q0 -32 18 -53q20 -25 56 -25q33 0 54 23q20 22 20 55z" />
    <glyph glyph-name="guilsinglleft" unicode="&#x2039;" horiz-adv-x="336" 
d="M253 469l40 -54l-146 -114l146 -115l-40 -55l-220 153v34z" />
    <glyph glyph-name="guilsinglright" unicode="&#x203a;" horiz-adv-x="336" 
d="M83 132l-40 54l146 113l-146 116l40 54l220 -152v-34z" />
    <glyph glyph-name="exclamdbl" unicode="&#x203c;" horiz-adv-x="393" 
d="M66 650h94v-141l-7 -344h-79l-8 344v141zM113 118q31 0 48.5 -18t17.5 -44q0 -28 -17.5 -45t-48.5 -17q-30 0 -47.5 17t-17.5 45q0 26 17.5 44t47.5 18zM232 650h94v-141l-7 -344h-79l-8 344v141zM279 118q31 0 48.5 -18t17.5 -44q0 -28 -17.5 -45t-48.5 -17
q-30 0 -47.5 17t-17.5 45q0 26 17.5 44t47.5 18z" />
    <glyph glyph-name="fraction" unicode="&#x2044;" horiz-adv-x="310" 
d="M-29 -7l307 632l61 -26l-309 -633z" />
    <glyph glyph-name="zerosuperior" unicode="&#x2070;" horiz-adv-x="304" 
d="M84 479q0 -55 25 -75q16 -13 43 -13q26 0 42 13q26 21 26 75q0 53 -26 74q-16 12 -42 12q-27 0 -43 -13q-25 -20 -25 -73zM276 479q0 -84 -53 -119q-29 -19 -71 -19q-43 0 -71 18q-53 35 -53 120q0 83 53 118q28 18 71 18q42 0 71 -18q53 -36 53 -118z" />
    <glyph glyph-name="foursuperior" unicode="&#x2074;" horiz-adv-x="298" 
d="M187 390h-159v47l130 174h40l12 -18l-114 -153h91v70l28 11h26v-81h24v-48l-24 -2v-44h-54v44z" />
    <glyph glyph-name="fivesuperior" unicode="&#x2075;" horiz-adv-x="288" 
d="M100 560v-36q23 7 44 7q56 0 85 -28q26 -24 26 -66q0 -41 -26 -65q-32 -32 -91 -32q-62 0 -110 38l24 40q38 -27 86 -27q34 0 49 15q12 12 12 31q0 21 -13 32q-13 12 -47 12q-38 0 -63 -16l-29 15v131h188v-51h-135z" />
    <glyph glyph-name="sixsuperior" unicode="&#x2076;" horiz-adv-x="289" 
d="M85 469q0 -40 14 -58q14 -20 46 -20q26 0 43 14q14 11 14 33q0 19 -13 30q-13 13 -43 13q-32 0 -61 -12zM88 519q27 11 58 11q61 0 90 -30q22 -24 22 -62q0 -41 -29 -67q-31 -30 -85 -30q-59 0 -89 38q-27 34 -27 95q0 74 42 111q30 30 79 30q55 0 96 -28l-22 -42
q-33 20 -73 20q-23 0 -40 -11q-18 -13 -22 -35z" />
    <glyph glyph-name="sevensuperior" unicode="&#x2077;" horiz-adv-x="276" 
d="M173 561h-92l-6 -40h-47v90h220v-42q-35 -36 -64 -88q-22 -37 -39 -83l-18 -52h-59l23 67q6 18 22 52q8 17 26 49q22 32 34 47z" />
    <glyph glyph-name="eightsuperior" unicode="&#x2078;" horiz-adv-x="296" 
d="M113 471q-16 -6 -23 -16q-6 -7 -6 -23t11 -27q17 -14 53 -14q30 0 48 10q16 12 16 31q0 16 -12 24q-14 12 -52 12q-24 0 -35 3zM176 516q16 8 16 25q0 10 -6 16q-11 9 -38 9t-37 -9q-6 -6 -6 -15q0 -16 12 -20q8 -4 31 -4q12 0 28 -2zM231 500q37 -24 37 -67
q0 -36 -23 -60q-29 -32 -97 -32q-65 0 -96 31q-24 23 -24 60q0 21 11 40q8 13 26 23q-16 17 -16 47q0 29 17 47q25 26 82 26q58 0 82 -25q18 -21 18 -48q0 -25 -17 -42z" />
    <glyph glyph-name="ninesuperior" unicode="&#x2079;" horiz-adv-x="286" 
d="M201 487q0 47 -18 64q-14 14 -42 14q-37 0 -50 -21q-7 -10 -7 -25q0 -19 12 -30q13 -14 43 -14q33 0 62 12zM197 436q-24 -10 -58 -10q-56 0 -85 26q-26 25 -26 67q0 35 21 59q31 37 92 37q58 0 87 -35q30 -34 30 -98q0 -69 -36 -105q-33 -36 -86 -36t-98 28l22 43
q39 -21 75 -21q27 0 44 14q15 12 18 31z" />
    <glyph glyph-name="parenleftsuperior" unicode="&#x207d;" horiz-adv-x="141" 
d="M116 619q-37 -56 -37 -145q0 -84 39 -139l-42 -25q-48 74 -48 164q0 98 48 168z" />
    <glyph glyph-name="parenrightsuperior" unicode="&#x207e;" horiz-adv-x="141" 
d="M23 619l42 23q48 -70 48 -166q0 -92 -48 -166l-41 25q37 54 37 141q0 89 -38 143z" />
    <glyph glyph-name="zeroinferior" unicode="&#x2080;" horiz-adv-x="304" 
d="M84 122q0 -55 25 -74q17 -14 43 -14q25 0 42 14q26 20 26 74q0 53 -26 74q-16 12 -42 12q-27 0 -43 -13q-25 -20 -25 -73zM276 122q0 -84 -53 -119q-29 -19 -71 -19q-43 0 -71 18q-53 35 -53 120q0 84 53 118q28 18 71 18q42 0 71 -18q53 -35 53 -118z" />
    <glyph glyph-name="oneinferior" unicode="&#x2081;" horiz-adv-x="210" 
d="M89 36v151l-40 -14l-16 43l85 42l27 -5v-217l32 -4v-43h-131v43z" />
    <glyph glyph-name="twoinferior" unicode="&#x2082;" horiz-adv-x="287" 
d="M130 38h122v-49h-215v47l124 86q21 16 27 25q8 11 8 24q0 17 -10 25q-12 12 -44 12q-48 0 -90 -27l-24 42q52 35 114 35q58 0 85 -24q25 -23 25 -63q0 -28 -17 -50q-13 -18 -43 -40z" />
    <glyph glyph-name="threeinferior" unicode="&#x2083;" horiz-adv-x="293" 
d="M249 185q0 -24 -17 -41q17 -11 25 -29t8 -37q0 -42 -31 -66q-34 -28 -90 -28q-65 0 -116 39l26 39q44 -28 90 -28q32 0 51 13q14 12 14 30q0 15 -8 23q-10 10 -28 10h-90v47h83q11 0 21 8q6 6 6 17t-10 19q-15 8 -40 8q-41 0 -84 -22l-21 40q47 31 108 31q50 0 78 -21
q25 -18 25 -52z" />
    <glyph glyph-name="fourinferior" unicode="&#x2084;" horiz-adv-x="298" 
d="M187 33h-159v47l130 174h40l12 -18l-114 -153h91v70l28 12h26v-82h24v-48l-24 -2v-44h-54v44z" />
    <glyph glyph-name="fiveinferior" unicode="&#x2085;" horiz-adv-x="288" 
d="M100 204v-36q16 6 44 6q53 0 82 -26q29 -24 29 -67t-29 -69q-31 -28 -88 -28q-62 0 -110 38l24 39q40 -27 86 -27q32 0 47 14q14 11 14 33q0 20 -13 31q-13 13 -47 13q-35 0 -63 -16l-29 15v131h188v-51h-135z" />
    <glyph glyph-name="sixinferior" unicode="&#x2086;" horiz-adv-x="289" 
d="M85 112q0 -42 15 -61q16 -17 45 -17q27 0 44 15q13 11 13 31t-15 32q-13 12 -41 12q-32 0 -61 -12zM88 162q27 11 58 11q57 0 86 -26q26 -26 26 -67q0 -43 -30 -68q-31 -28 -84 -28q-56 0 -85 34q-31 35 -31 99q0 69 37 107q32 34 84 34q55 0 96 -28l-22 -42
q-36 20 -73 20q-27 0 -41 -13q-16 -11 -21 -33z" />
    <glyph glyph-name="seveninferior" unicode="&#x2087;" horiz-adv-x="276" 
d="M173 204h-92l-6 -39h-47v89h220v-42q-34 -35 -64 -87q-22 -39 -39 -84l-18 -52h-59l23 68q8 24 22 51q8 17 26 49q25 37 34 47z" />
    <glyph glyph-name="eightinferior" unicode="&#x2088;" horiz-adv-x="296" 
d="M113 114q-17 -7 -23 -15q-6 -9 -6 -24q0 -16 11 -26q16 -15 53 -15q31 0 48 11q16 11 16 30q0 17 -12 24q-14 12 -52 12q-18 0 -35 3zM176 160q16 6 16 24q0 12 -9 17q-11 8 -35 8q-27 0 -37 -9q-6 -6 -6 -15q0 -16 12 -20q8 -3 31 -3q12 0 28 -2zM231 143q37 -22 37 -67
q0 -36 -23 -60q-29 -32 -97 -32q-65 0 -96 31q-24 23 -24 60q0 21 11 40q9 15 26 24q-16 16 -16 46q0 29 17 47q25 26 82 26q58 0 82 -25q18 -21 18 -48q0 -25 -17 -42z" />
    <glyph glyph-name="nineinferior" unicode="&#x2089;" horiz-adv-x="286" 
d="M201 130q0 47 -18 64q-14 14 -42 14q-37 0 -50 -21q-7 -10 -7 -25q0 -19 12 -30q13 -14 43 -14q33 0 62 12zM197 79q-24 -10 -58 -10q-56 0 -85 26q-26 25 -26 67q0 35 21 59q31 37 92 37q58 0 87 -35q30 -34 30 -98q0 -69 -36 -106q-33 -35 -86 -35t-98 28l22 42
q40 -20 75 -20q27 0 44 14q15 12 18 31z" />
    <glyph glyph-name="parenleftinferior" unicode="&#x208d;" horiz-adv-x="141" 
d="M116 269q-37 -56 -37 -145q0 -84 39 -139l-42 -24q-48 72 -48 163q0 98 48 168z" />
    <glyph glyph-name="parenrightinferior" unicode="&#x208e;" horiz-adv-x="141" 
d="M23 266l42 23q48 -72 48 -166t-48 -166l-41 24q37 56 37 142q0 87 -38 143z" />
    <glyph glyph-name="Euro" unicode="&#x20ac;" horiz-adv-x="668" 
d="M35 283h460l3 -60l-163 -9h-138q19 -50 55 -81q67 -59 168 -59q90 0 178 36l32 -73q-90 -48 -214 -48q-158 0 -255 91q-57 51 -75 134l-51 1v68zM35 327v64l53 3q23 89 89 142q95 75 239 75q123 0 214 -46l-32 -74q-91 35 -178 35q-90 0 -154 -45q-44 -30 -66 -85h127
l163 -9l2 -60h-457z" />
    <glyph glyph-name="afii61352" unicode="&#x2116;" horiz-adv-x="982" 
d="M685 175h245v-66h-245v66zM523 600h101v-600h-100l-360 444v-444h-101v600h100l360 -443v443zM807 209q-56 0 -93 34q-38 36 -38 96q0 57 37 94q34 36 94 36q62 0 99 -39q33 -36 33 -91q0 -56 -32 -91q-36 -39 -100 -39zM874 339q0 32 -17 49q-18 18 -49 18t-48 -17
q-19 -19 -19 -50q0 -30 19 -48q20 -18 48 -18q33 0 50 19q16 18 16 47z" />
    <glyph glyph-name="trademark" unicode="&#x2122;" horiz-adv-x="672" 
d="M189 541v-202h-63v202h-88v55h240v-55h-89zM355 486v-147h-59v257h68l90 -170l90 170h65v-257h-61v147l-78 -147h-39z" />
    <glyph glyph-name="minus" unicode="&#x2212;" horiz-adv-x="349" 
d="M33 356h283v-81h-283v81z" />
    <glyph glyph-name="approxequal" unicode="&#x2248;" horiz-adv-x="408" 
d="M67 211l-34 53q46 40 98 40q25 0 73 -14.5t75 -14.5q33 0 65 22l31 -54q-46 -40 -98 -40q-25 0 -71.5 15t-73.5 15q-39 0 -65 -22zM67 340l-34 53q46 40 98 40q25 0 73 -15t75 -15q34 0 65 23l31 -54q-46 -40 -98 -40q-25 0 -71.5 15t-73.5 15q-39 0 -65 -22z" />
    <glyph glyph-name="notequal" unicode="&#x2260;" horiz-adv-x="382" 
d="M33 422h153l18 60l64 -19l-12 -41h93v-74h-116l-17 -58h133v-74h-156l-18 -63l-64 19l13 44h-91v74h114l16 58h-130v74z" />
    <glyph glyph-name="lessequal" unicode="&#x2264;" horiz-adv-x="336" 
d="M293 240l-37 -55l-223 153v34l220 151l39 -54l-145 -114zM33 275l7 7l193 -131l-36 -52l-164 105v71z" />
    <glyph glyph-name="greaterequal" unicode="&#x2265;" horiz-adv-x="336" 
d="M296 282l7 -6v-71l-164 -105l-36 51zM79 186l-36 54l146 116l-146 113l40 54l220 -151v-34z" />
    <glyph glyph-name="percent" horiz-adv-x="686" 
d="M148 25l333 488l58 -39l-332 -488zM172 225q-62 0 -104 40q-40 40 -40 102q0 63 41 102q40 40 103 40q66 0 108 -45q36 -41 36 -97q0 -57 -36 -95q-41 -47 -108 -47zM246 367q0 33 -18 54q-21 24 -56 24q-34 0 -53 -21q-21 -23 -21 -57q0 -30 17 -52q22 -25 57 -25
q34 0 54 22t20 55zM514 -11q-63 0 -103 40q-41 38 -41 102q0 63 41 102q40 40 103 40q67 0 108 -46q36 -39 36 -96t-36 -96q-41 -46 -108 -46zM588 131q0 31 -18 54q-22 24 -56 24q-32 0 -53 -21q-21 -23 -21 -57q0 -32 18 -53q20 -25 56 -25q33 0 54 23q20 22 20 55z" />
    <glyph glyph-name="percent.oldstyle" horiz-adv-x="686" 
d="M148 25l333 488l58 -39l-332 -488zM172 225q-62 0 -104 40q-40 40 -40 102q0 63 41 102q40 40 103 40q66 0 108 -45q36 -41 36 -97q0 -57 -36 -95q-41 -47 -108 -47zM246 367q0 33 -18 54q-21 24 -56 24q-34 0 -53 -21q-21 -23 -21 -57q0 -30 17 -52q22 -25 57 -25
q34 0 54 22t20 55zM514 -11q-63 0 -103 40q-41 38 -41 102q0 63 41 102q40 40 103 40q67 0 108 -46q36 -39 36 -96t-36 -96q-41 -46 -108 -46zM588 131q0 31 -18 54q-22 24 -56 24q-32 0 -53 -21q-21 -23 -21 -57q0 -32 18 -53q20 -25 56 -25q33 0 54 23q20 22 20 55z" />
    <glyph glyph-name="perthousand.oldstyle" horiz-adv-x="1005" 
d="M148 25l333 488l58 -39l-332 -488zM172 225q-62 0 -104 40q-40 40 -40 102q0 63 41 102q40 40 103 40q66 0 108 -45q36 -41 36 -97q0 -57 -36 -95q-41 -47 -108 -47zM246 367q0 33 -18 54q-21 24 -56 24q-34 0 -53 -21q-21 -23 -21 -57q0 -30 17 -52q22 -25 57 -25
q34 0 54 22t20 55zM514 -11q-63 0 -103 40q-41 38 -41 102q0 63 41 102q40 40 103 40q67 0 108 -46q36 -39 36 -96t-36 -96q-41 -46 -108 -46zM588 131q0 31 -18 54q-22 24 -56 24q-32 0 -53 -21q-21 -23 -21 -57q0 -32 18 -53q20 -25 56 -25q33 0 54 23q20 22 20 55z
M827 -11q-63 0 -103 40q-41 38 -41 102q0 63 41 102q40 40 103 40q67 0 108 -46q36 -39 36 -96t-36 -96q-41 -46 -108 -46zM901 131q0 31 -18 54q-22 24 -56 24q-32 0 -53 -21q-21 -23 -21 -57q0 -32 18 -53q20 -25 56 -25q33 0 54 23q20 22 20 55z" />
    <glyph glyph-name="Breve" horiz-adv-x="402" 
d="M55 765l73 9q6 -33 25 -48q20 -15 48 -15q31 0 49 15q17 17 23 48l74 -9q-11 -63 -45 -93q-39 -34 -101 -34q-64 0 -103 36q-35 31 -43 91z" />
    <glyph glyph-name="Dieresis" horiz-adv-x="457" 
d="M121 776q32 0 50 -17.5t18 -46.5q0 -27 -18 -44.5t-50 -17.5q-31 0 -48.5 18t-17.5 44q0 29 17.5 46.5t48.5 17.5zM335 776q32 0 49.5 -17.5t17.5 -46.5q0 -27 -18 -44.5t-49 -17.5t-48.5 18t-17.5 44q0 29 17.5 46.5t48.5 17.5z" />
    <glyph glyph-name="commaaccent" horiz-adv-x="232" 
d="M116 108q28 0 44.5 -16t16.5 -41q0 -17 -5 -29l-43 -111l-48 10l13 74q-39 9 -39 56q0 25 16.5 41t44.5 16z" />
    <glyph glyph-name="dblgrave" horiz-adv-x="350" 
d="M257 723l38 -153l-55 -19l-60 144zM127 721l62 -150l-54 -21l-80 138z" />
    <glyph glyph-name="Acute" horiz-adv-x="256" 
d="M55 668l64 152l82 -39l-80 -142z" />
    <glyph glyph-name="Grave" horiz-adv-x="256" 
d="M137 820l64 -152l-66 -29l-80 142z" />
    <glyph glyph-name="Caron" horiz-adv-x="400" 
d="M55 763l37 43l108 -82l108 82l37 -43l-130 -125h-30z" />
    <glyph glyph-name="Circumflex" horiz-adv-x="400" 
d="M92 640l-37 43l130 125h30l130 -125l-38 -43l-108 82z" />
    <glyph glyph-name="commaaccent.cap" horiz-adv-x="239" 
d="M119 112q29 0 46 -16.5t17 -42.5q0 -17 -5 -30l-44 -113l-49 10l13 75q-40 11 -40 58q0 25 16.5 42t45.5 17z" />
    <glyph glyph-name="Dotaccent" horiz-adv-x="239" 
d="M120 115q30 0 47 -17t17 -44q0 -26 -17 -43t-47 -17q-31 0 -48 17t-17 43q0 27 17 44t48 17z" />
    <glyph glyph-name="Hungarumlaut" horiz-adv-x="368" 
d="M55 672l42 165l82 -29l-65 -156zM167 672l69 163l77 -35l-87 -150z" />
    <glyph glyph-name="dblGrave" horiz-adv-x="368" 
d="M272 837l41 -165l-59 -20l-65 156zM132 835l69 -163l-59 -22l-87 150z" />
    <glyph glyph-name="Macron" horiz-adv-x="441" 
d="M55 735h331v-73h-331v73z" />
    <glyph glyph-name="Ring" horiz-adv-x="335" 
d="M167 634q-50 0 -80 30q-32 30 -32 81q0 49 33 79q29 31 79 31q51 0 83 -32q30 -32 30 -78q0 -48 -28 -78q-31 -33 -85 -33zM221 745q0 22 -14 38q-16 14 -40 14q-25 0 -39 -14t-14 -38q0 -25 15 -39q16 -14 38 -14q27 0 40 15q14 14 14 38z" />
    <glyph glyph-name="Tilde" horiz-adv-x="472" 
d="M232 669q-44 18 -78 18q-39 0 -68 -22l-31 49q53 47 107 47q35 0 77 -17q43 -18 80 -18q36 0 67 22l31 -50q-46 -46 -103 -46q-44 0 -82 17z" />
    <glyph glyph-name="zero.fitted" horiz-adv-x="612" 
d="M132 300q0 -122 51 -180q43 -48 124 -48q86 0 129 52q46 58 46 176q0 123 -47 177q-45 51 -128 51t-126 -48q-49 -56 -49 -180zM586 300q0 -144 -70 -226q-73 -85 -209 -85q-126 0 -198 75q-81 83 -81 236q0 151 76 232q73 79 203 79q134 0 207 -83q72 -83 72 -228z" />
    <glyph glyph-name="one.fitted" horiz-adv-x="612" 
d="M178 448l-27 69l182 91l49 -9v-520l77 -7v-72h-282v70l102 8v413z" />
    <glyph glyph-name="two.fitted" horiz-adv-x="612" 
d="M79 0v78l282 206q50 37 67 61q25 33 25 78q0 50 -46 79q-40 24 -102 24q-108 0 -203 -61l-39 73q59 40 115 56.5t131 16.5q107 0 172 -46q73 -50 73 -142q0 -65 -36 -115q-31 -42 -95 -85l-194 -138h321v-85h-471z" />
    <glyph glyph-name="three.fitted" horiz-adv-x="612" 
d="M296 75q84 0 130 41q34 30 34 78q0 45 -23 69q-27 30 -83 30h-189v80h172q39 0 64 22q21 18 21 54q0 37 -34 58q-33 22 -103 22q-97 0 -179 -47l-39 67q90 62 225 62q109 0 170 -42q62 -40 62 -116q0 -37 -18 -66q-13 -22 -39 -40v-4q45 -18 69 -54q28 -40 28 -95
q0 -83 -63 -140q-76 -65 -205 -65q-146 0 -248 75l44 71q54 -34 98.5 -47t105.5 -13z" />
    <glyph glyph-name="four.fitted" horiz-adv-x="612" 
d="M37 100v71l314 429h82l19 -19l-289 -397h256v168l76 32h24v-200h56v-84h-56v-100h-100v100h-382z" />
    <glyph glyph-name="five.fitted" horiz-adv-x="612" 
d="M292 74q90 0 132 41q34 34 34 89q0 59 -38 90q-40 34 -125 34q-74 0 -152 -35l-50 26v281h420v-80h-327v-131q56 21 129 21q113 0 178 -53q67 -55 67 -153q0 -94 -67 -152q-71 -63 -195 -63q-82 0 -138 18t-109 57l44 71q49 -33 92.5 -47t104.5 -14z" />
    <glyph glyph-name="six.fitted" horiz-adv-x="612" 
d="M318 408q116 0 181 -52q66 -53 66 -151q0 -90 -62 -147q-72 -69 -195 -69q-138 0 -206 92q-56 78 -56 215q0 161 86 245q72 70 190 70t204 -51l-36 -73q-77 39 -164 39q-81 0 -123 -42q-38 -38 -48 -111q67 35 163 35zM308 72q81 0 120 41q35 37 35 92q0 52 -31 83
q-37 37 -118 37q-92 0 -165 -33v-9q0 -98 34 -150q40 -61 125 -61z" />
    <glyph glyph-name="seven.fitted" horiz-adv-x="612" 
d="M59 423v177h493v-75q-94 -95 -150 -196q-54 -99 -90 -223l-32 -106h-107l40 131q35 115 92 218q50 88 117 166h-272l-15 -92h-76z" />
    <glyph glyph-name="eight.fitted" horiz-adv-x="612" 
d="M306 -11q-142 0 -210 56q-62 53 -62 141q0 62 37 104q25 27 73 49q-28 19 -45 47q-15 28 -15 67q0 81 63 120q59 38 159 38q110 0 167 -41q55 -39 55 -110q0 -39 -21 -70q-16 -26 -41 -40q53 -21 82 -59q30 -39 30 -99q0 -93 -63 -145q-71 -58 -209 -58zM185 455
q0 -34 18 -52q28 -26 103 -26q23 0 65 -4q27 11 42 33q14 22 14 49q0 38 -26 56q-30 22 -95 22q-62 0 -92 -20q-29 -18 -29 -58zM306 296q-42 0 -80 5q-48 -17 -68 -42q-23 -30 -23 -73q0 -50 32 -77q44 -38 139 -38t138 37q32 27 32 78q0 56 -36 81q-40 29 -134 29z" />
    <glyph glyph-name="nine.fitted" horiz-adv-x="612" 
d="M293 192q-121 0 -184 55q-63 53 -63 148q0 93 66 151q73 65 190 65q132 0 199 -81q64 -79 64 -226q0 -164 -93 -249q-72 -66 -189 -66q-118 0 -204 51l37 74q80 -40 163 -40q81 0 124 39q43 38 53 114q-67 -35 -163 -35zM302 527q-81 0 -120 -41q-34 -36 -34 -91
q0 -51 30 -81q37 -39 119 -39q94 0 165 32v10q0 109 -42 162q-39 48 -118 48z" />
    <glyph glyph-name="zerooldstyle" horiz-adv-x="607" 
d="M305 509q129 0 202 -81q66 -71 66 -178t-66 -178q-73 -81 -202 -81t-202 81q-66 71 -66 178t66 178q73 81 202 81zM305 425q-81 0 -124 -49q-43 -47 -43 -126t43 -126q43 -49 124 -49t124 49t43 126t-43 126t-124 49z" />
    <glyph glyph-name="oneoldstyle" horiz-adv-x="361" 
d="M64 357l-29 69l168 78l51 -6v-421l62 -3v-74h-265v73l102 4v314z" />
    <glyph glyph-name="twooldstyle" horiz-adv-x="529" 
d="M45 0v78l270 171q41 26 56 50q14 23 14 52q0 34 -25 51q-29 22 -97 22q-94 0 -191 -43l-31 74q102 54 222 54q109 0 168 -42q55 -42 55 -116q0 -50 -28 -90q-27 -40 -89 -78l-161 -99h271v-84h-434z" />
    <glyph glyph-name="threeoldstyle" horiz-adv-x="542" 
d="M80 397l-28 73q96 39 204 39q99 0 154 -41q53 -40 53 -104q0 -32 -13 -59q-14 -28 -37 -40v-4q41 -19 66 -57q25 -39 25 -90q0 -94 -71 -152q-75 -62 -206 -62q-119 0 -203 42l31 75q82 -32 168 -32q101 0 145 41q35 32 35 86q0 41 -24 65q-32 30 -95 30h-148v82h128
q54 0 78 22q20 18 20 51q0 28 -25 45q-27 20 -90 20q-81 0 -167 -30z" />
    <glyph glyph-name="fouroldstyle" horiz-adv-x="570" 
d="M33 19v84l294 397h105l5 -10l-283 -387h228v153l41 14h58v-167h56v-75l-56 -9v-110h-99v110h-349z" />
    <glyph glyph-name="fiveoldstyle" horiz-adv-x="550" 
d="M107 212l-33 21v267h396v-84h-303v-114q48 9 105 9q120 0 184 -59q56 -51 56 -142q0 -85 -58 -142q-68 -66 -189 -66q-128 0 -237 56l35 71q102 -44 197 -44q77 0 118 39q33 33 33 86q0 52 -32 81q-35 37 -112 37t-160 -16z" />
    <glyph glyph-name="sixoldstyle" horiz-adv-x="595" 
d="M310 408q116 0 181 -52q66 -53 66 -151q0 -90 -62 -147q-72 -69 -195 -69q-138 0 -206 92q-56 78 -56 215q0 161 86 245q72 70 190 70t204 -51l-36 -73q-77 39 -164 39q-81 0 -123 -42q-38 -38 -48 -111q67 35 163 35zM300 72q81 0 120 41q35 37 35 92q0 52 -31 83
q-37 37 -118 37q-92 0 -165 -33v-9q0 -98 34 -150q40 -61 125 -61z" />
    <glyph glyph-name="sevenoldstyle" horiz-adv-x="544" 
d="M33 326v174h483v-72q-87 -86 -144 -190q-53 -93 -86 -209l-35 -120h-101l43 152q29 101 81 195q48 90 112 160h-262l-13 -90h-78z" />
    <glyph glyph-name="eightoldstyle" horiz-adv-x="614" 
d="M307 -9q-140 0 -207 52q-65 52 -65 141q0 58 35 100q29 33 74 54q-59 34 -59 111q0 69 49 107q57 44 173 44q111 0 166 -37q56 -37 56 -107q0 -72 -62 -106q50 -19 79 -54q33 -40 33 -107q0 -93 -65 -144q-72 -54 -207 -54zM186 450q0 -39 28 -56q28 -18 93 -18
q37 0 65 -4q26 9 41 30t15 48q0 34 -22 50q-29 23 -99 23q-68 0 -97 -22q-24 -17 -24 -51zM307 296q-51 0 -80 5q-48 -23 -68 -48q-23 -28 -23 -68q0 -50 33 -77q43 -36 138 -36q93 0 135 34q34 28 34 79q0 50 -29 74q-40 37 -140 37z" />
    <glyph glyph-name="nineoldstyle" horiz-adv-x="595" 
d="M285 90q-121 0 -184 55q-63 53 -63 148q0 93 66 151q73 65 190 65q132 0 199 -81q64 -79 64 -226q0 -150 -86 -233q-73 -70 -196 -70q-116 0 -204 52l37 74q79 -41 163 -41q80 0 124 38q41 34 53 103q-67 -35 -163 -35zM294 425q-77 0 -119 -39q-35 -33 -35 -90
q0 -54 30 -84q37 -39 119 -39q94 0 165 32v10q0 109 -42 162q-39 48 -118 48z" />
    <glyph glyph-name="one.taboldstyle" horiz-adv-x="602" 
d="M189 357l-29 69l168 78l51 -6v-421l62 -3v-74h-265v73l102 4v314z" />
    <glyph glyph-name="two.taboldstyle" horiz-adv-x="602" 
d="M84 0v78l270 171q41 26 56 50q14 23 14 52q0 34 -25 51q-29 22 -97 22q-94 0 -191 -43l-31 74q102 54 222 54q109 0 168 -42q55 -42 55 -116q0 -50 -28 -90q-27 -40 -89 -78l-161 -99h271v-84h-434z" />
    <glyph glyph-name="zero.taboldstyle" horiz-adv-x="602" 
d="M303 509q129 0 202 -81q66 -71 66 -178t-66 -178q-73 -81 -202 -81t-202 81q-66 71 -66 178t66 178q73 81 202 81zM303 425q-81 0 -124 -49q-43 -47 -43 -126t43 -126q43 -49 124 -49t124 49t43 126t-43 126t-124 49z" />
    <glyph glyph-name="three.taboldstyle" horiz-adv-x="602" 
d="M117 397l-28 73q96 39 204 39q99 0 154 -41q53 -40 53 -104q0 -32 -13 -59q-14 -28 -37 -40v-4q41 -19 66 -57q25 -39 25 -90q0 -94 -71 -152q-75 -62 -206 -62q-119 0 -203 42l31 75q82 -32 168 -32q101 0 145 41q35 32 35 86q0 41 -24 65q-32 30 -95 30h-148v82h128
q54 0 78 22q20 18 20 51q0 28 -25 45q-28 20 -90 20q-81 0 -167 -30z" />
    <glyph glyph-name="four.taboldstyle" horiz-adv-x="602" 
d="M49 19v84l294 397h105l5 -10l-283 -387h228v153l41 14h58v-167h56v-75l-56 -9v-110h-99v110h-349z" />
    <glyph glyph-name="five.taboldstyle" horiz-adv-x="602" 
d="M137 212l-33 21v267h396v-84h-303v-114q48 9 105 9q120 0 184 -59q56 -51 56 -142q0 -85 -58 -142q-68 -66 -189 -66q-128 0 -237 56l35 71q102 -44 197 -44q77 0 118 39q33 33 33 86q0 52 -32 81q-35 37 -112 37t-160 -16z" />
    <glyph glyph-name="six.taboldstyle" horiz-adv-x="602" 
d="M314 408q116 0 181 -52q66 -53 66 -151q0 -90 -62 -147q-72 -69 -195 -69q-138 0 -206 92q-56 78 -56 215q0 161 86 245q72 70 190 70t204 -51l-36 -73q-77 39 -164 39q-81 0 -123 -42q-38 -38 -48 -111q67 35 163 35zM304 72q81 0 120 41q35 37 35 92q0 52 -31 83
q-37 37 -118 37q-92 0 -165 -33v-9q0 -98 34 -150q40 -61 125 -61z" />
    <glyph glyph-name="seven.taboldstyle" horiz-adv-x="602" 
d="M59 326v174h483v-72q-87 -86 -144 -190q-53 -93 -86 -209l-35 -120h-101l43 152q29 101 81 195q48 90 112 160h-262l-13 -90h-78z" />
    <glyph glyph-name="eight.taboldstyle" horiz-adv-x="602" 
d="M302 -9q-140 0 -207 52q-65 52 -65 141q0 58 35 100q29 33 74 54q-59 34 -59 111q0 69 49 107q57 44 173 44q111 0 166 -37q56 -37 56 -107q0 -72 -62 -106q50 -19 79 -54q33 -40 33 -107q0 -93 -65 -144q-72 -54 -207 -54zM181 450q0 -39 28 -56q28 -18 93 -18
q37 0 65 -4q26 9 41 30t15 48q0 34 -22 50q-29 23 -99 23q-68 0 -97 -22q-24 -17 -24 -51zM302 296q-51 0 -80 5q-48 -23 -68 -48q-23 -28 -23 -68q0 -50 33 -77q43 -36 138 -36q92 0 135 34q34 28 34 79q0 50 -29 74q-40 37 -140 37z" />
    <glyph glyph-name="nine.taboldstyle" horiz-adv-x="602" 
d="M286 90q-121 0 -184 55q-63 53 -63 148q0 93 66 151q73 65 190 65q132 0 199 -81q64 -79 64 -226q0 -150 -86 -233q-73 -70 -196 -70q-116 0 -204 52l37 74q79 -41 163 -41q80 0 124 38q41 34 53 103q-67 -35 -163 -35zM295 425q-77 0 -119 -39q-35 -33 -35 -90
q0 -54 30 -84q37 -39 119 -39q94 0 165 32v10q0 109 -42 162q-39 48 -118 48z" />
    <glyph glyph-name="currency.taboldstyle" horiz-adv-x="596" 
d="M172 451l42 -41q37 21 84 21t83 -21l43 41l51 -50l-41 -40q23 -37 23 -86q0 -50 -23 -85l40 -41l-50 -51l-42 42q-37 -21 -84 -21q-48 0 -85 21l-42 -42l-49 51l39 41q-22 38 -22 85q0 48 22 86l-39 40zM386 275q0 42 -24 66t-64 24t-64.5 -23.5t-24.5 -66.5t24.5 -67
t63.5 -24q40 0 64.5 24t24.5 67z" />
    <glyph glyph-name="centoldstyle" horiz-adv-x="543" 
d="M278 573h78l3 -66q83 -5 145 -32l-26 -71q-75 23 -151 23q-91 0 -138 -44q-49 -46 -49 -131q0 -84 47 -129q47 -47 140 -47q82 0 151 24l26 -74q-65 -28 -145 -33l-3 -77h-78l-4 78q-100 9 -157 63q-79 71 -79 193q0 123 78 193q59 54 158 63z" />
    <glyph glyph-name="dollaroldstyle" horiz-adv-x="568" 
d="M38 363q0 71 65 110q50 28 135 34l5 67h77l3 -67q101 -5 176 -35l-26 -72q-79 27 -182 27q-88 0 -124 -18q-29 -15 -29 -40q0 -24 13 -34q14 -13 67 -21l128 -13q99 -11 142 -47q42 -36 42 -100q0 -80 -61 -119q-52 -33 -149 -41l-3 -78h-78l-4 76q-113 4 -190 37l25 75
q71 -30 178 -30q121 0 158 28q24 19 24 49q0 23 -15 36q-18 17 -85 26l-136 16q-81 9 -119 44q-37 33 -37 90z" />
    <glyph glyph-name="cent.taboldstyle" horiz-adv-x="596" 
d="M305 573h78l3 -66q83 -5 145 -32l-26 -71q-75 23 -151 23q-91 0 -138 -44q-49 -46 -49 -131q0 -84 47 -129q47 -47 140 -47q82 0 151 24l26 -74q-65 -28 -145 -33l-3 -77h-78l-4 78q-100 9 -157 63q-79 71 -79 193q0 123 78 193q59 54 158 63z" />
    <glyph glyph-name="dollar.taboldstyle" horiz-adv-x="596" 
d="M52 363q0 71 65 110q50 28 135 34l5 67h77l3 -67q101 -5 176 -35l-26 -72q-79 27 -182 27q-88 0 -124 -18q-29 -15 -29 -40q0 -24 13 -34q14 -13 67 -21l128 -13q99 -11 142 -47q42 -36 42 -100q0 -80 -61 -119q-52 -33 -149 -41l-3 -78h-78l-4 76q-113 4 -190 37l25 75
q71 -30 178 -30q121 0 158 28q24 19 24 49q0 23 -15 36q-18 17 -85 26l-136 16q-81 9 -119 44q-37 33 -37 90z" />
    <glyph glyph-name="Euro.taboldstyle" horiz-adv-x="596" 
d="M43 232h364v-60h-216q16 -38 45 -61q45 -35 127 -35q83 0 152 24l25 -74q-78 -35 -183 -35q-132 0 -204 66q-49 43 -69 115h-41v60zM43 331h41q20 69 68 112q72 66 205 66q106 0 183 -34l-25 -71q-77 23 -152 23q-83 0 -128 -36q-31 -24 -46 -60h218v-60h-364v60z" />
    <glyph glyph-name="yen.taboldstyle" horiz-adv-x="596" 
d="M110 158l81 7l-182 335h113l174 -335h8l174 335h108l-183 -335l83 -7v-62h-376v62zM110 64h376v-57l-138 -7v-95h-102v95l-136 7v57z" />
    <glyph glyph-name="numbersign.taboldstyle" horiz-adv-x="596" 
d="M174 60l7 92h-87v61h94l6 66h-99v60h104l10 102l67 -6l-9 -96h70l10 102l67 -6l-9 -96h97v-60h-103l-6 -66h108v-61h-113l-10 -97l-66 5l7 92h-68l-10 -97zM262 279l-6 -66h70l6 66h-70z" />
    <glyph glyph-name="dollarinferior" horiz-adv-x="282" 
d="M28 168q0 32 32 52q18 11 51 16l3 30h47l2 -29q46 -4 79 -17l-16 -43q-34 13 -82 13q-34 0 -50 -6q-12 -4 -12 -14q0 -9 6 -12q7 -6 25 -9l53 -6q32 -3 56 -16q32 -21 32 -58q0 -38 -34 -59q-25 -14 -57 -18l-2 -33h-46l-5 33q-49 4 -80 19l13 43q37 -14 86 -14
q40 0 55 7q16 6 16 22q0 17 -42 23l-59 9q-31 4 -51 21q-20 18 -20 46z" />
    <glyph glyph-name="hyphensuperior" horiz-adv-x="190" 
d="M28 512h134v-46h-134v46z" />
    <glyph glyph-name="commasuperior" horiz-adv-x="123" 
d="M62 409q15 0 24 -9.5t9 -23.5q0 -9 -3 -15l-24 -62l-28 6l5 42q-17 4 -17 29q0 14 9 23.5t25 9.5z" />
    <glyph glyph-name="periodsuperior" horiz-adv-x="123" 
d="M61 409q16 0 25 -9.5t9 -23.5q0 -32 -34 -32q-15 0 -24 9t-9 23t9 23.5t24 9.5z" />
    <glyph glyph-name="centsuperior" horiz-adv-x="244" 
d="M115 567h41l4 -23q29 -3 56 -15l-14 -40q-27 9 -61 9q-28 0 -42 -13q-14 -17 -14 -43q0 -28 15 -42q14 -14 41 -14q32 0 61 12l14 -40q-24 -15 -56 -18l-5 -23h-39l-4 23q-34 8 -53 26q-31 29 -31 76q0 48 31 77q21 19 53 25z" />
    <glyph glyph-name="dollarsuperior" horiz-adv-x="282" 
d="M28 520q0 33 32 53q23 12 51 15l3 30h47l2 -28q46 -4 79 -17l-16 -44q-34 13 -82 13q-34 0 -50 -6q-12 -3 -12 -14q0 -8 6 -12q8 -5 25 -8l53 -7q35 -4 56 -16q32 -20 32 -58q0 -37 -34 -58q-24 -15 -57 -18l-2 -33h-46l-5 33q-43 2 -80 18l13 43q39 -13 86 -13
q40 0 55 7q16 6 16 22q0 13 -42 23l-59 9q-33 4 -51 21q-20 18 -20 45z" />
    <glyph glyph-name="hypheninferior" horiz-adv-x="190" 
d="M28 157h134v-46h-134v46z" />
    <glyph glyph-name="commainferior" horiz-adv-x="123" 
d="M62 54q15 0 24 -9.5t9 -22.5q0 -8 -3 -16l-24 -62l-28 6l5 42q-17 6 -17 30q0 13 9 22.5t25 9.5z" />
    <glyph glyph-name="periodinferior" horiz-adv-x="123" 
d="M61 54q16 0 25 -9.5t9 -23.5q0 -32 -34 -32q-15 0 -24 9t-9 23t9 23.5t24 9.5z" />
    <glyph glyph-name="centinferior" horiz-adv-x="244" 
d="M115 219h41l4 -23q35 -5 56 -15l-14 -40q-27 9 -61 9q-28 0 -41 -13q-15 -15 -15 -44q0 -26 14 -40q13 -15 42 -15q35 0 61 12l14 -40q-24 -15 -56 -18l-5 -23h-39l-4 23q-34 8 -53 26q-31 29 -31 75q0 49 31 78q19 17 53 25z" />
    <glyph glyph-name="zero.denominator" horiz-adv-x="445" 
d="M105 207q0 -97 47 -129q28 -19 70 -19q44 0 71 19q47 32 47 129q0 96 -47 129q-29 19 -71 19q-40 0 -69 -19q-48 -33 -48 -129zM417 207q0 -132 -84 -186q-43 -28 -111 -28q-67 0 -110 28q-84 55 -84 186t84 186q42 29 110 29t112 -29q83 -54 83 -186z" />
    <glyph glyph-name="one.denominator" horiz-adv-x="289" 
d="M126 64v264l-66 -25l-22 56l128 61l38 -7v-348l52 -7v-58h-198v58z" />
    <glyph glyph-name="two.denominator" horiz-adv-x="420" 
d="M163 67h215v-67h-334v65l203 139q30 21 42 37q16 21 16 45q0 32 -23 49q-24 20 -70 20q-68 0 -140 -44l-33 56q83 56 173 56q82 0 128 -40q42 -37 42 -98q0 -41 -26 -76q-25 -32 -73 -63z" />
    <glyph glyph-name="three.denominator" horiz-adv-x="431" 
d="M336 242q28 -13 45 -40q17 -29 17 -65q0 -68 -54 -107q-51 -37 -134 -37q-113 0 -182 55l35 55q69 -44 147 -44q58 0 89 27q23 20 23 51q0 26 -15 41q-18 20 -54 20h-139v65h129q26 0 40 17q11 11 11 29q0 22 -19 34q-22 14 -67 14q-70 0 -132 -36l-33 54q74 47 169 47
q72 0 114 -26q45 -28 45 -82q0 -45 -35 -72z" />
    <glyph glyph-name="four.denominator" horiz-adv-x="427" 
d="M286 72h-258v58l215 286h63l12 -21l-193 -257h161v119l37 14h39v-133h37v-62l-37 -4v-72h-76v72z" />
    <glyph glyph-name="five.denominator" horiz-adv-x="411" 
d="M347 348h-222v-73q33 12 80 12q82 0 127 -39q46 -38 46 -105q0 -71 -54 -114q-48 -36 -129 -36q-98 0 -167 55l34 55q64 -44 133 -44q53 0 81 24q25 23 25 60q0 39 -28 59q-27 20 -76 20q-26 0 -56 -8q-24 -7 -46 -18l-41 16v203h293v-67z" />
    <glyph glyph-name="six.denominator" horiz-adv-x="425" 
d="M110 200q0 -65 26 -104q26 -36 78 -36q49 0 75 23t26 61q0 39 -25 58q-24 18 -72 18q-63 0 -108 -20zM116 269q48 19 102 19q85 0 131 -39q43 -37 43 -105q0 -66 -45 -106q-49 -45 -133 -45q-86 0 -133 55q-48 56 -48 159q0 107 56 164q49 52 133 52q76 0 145 -40
l-29 -57q-57 30 -115 30q-48 0 -74 -25q-25 -22 -33 -62z" />
    <glyph glyph-name="seven.denominator" horiz-adv-x="397" 
d="M269 348h-170l-8 -62h-63v130h341v-57q-56 -59 -97 -130q-38 -65 -67 -147l-29 -82h-81l35 101q21 67 63 139q34 59 76 108z" />
    <glyph glyph-name="eight.denominator" horiz-adv-x="430" 
d="M161 204q-30 -10 -44 -28q-12 -18 -12 -44q0 -35 26 -54q29 -20 84 -20q58 0 86 22q24 19 24 52q0 32 -23 50q-25 20 -87 20q-38 0 -54 2zM259 265q17 7 24 19q9 10 9 28q0 19 -13 30q-19 15 -64 15q-41 0 -60 -14q-16 -11 -16 -31q0 -16 7 -26q6 -9 19 -12q18 -6 50 -6
q23 0 44 -3zM94 237q-33 30 -33 73q0 53 39 82q40 30 115 30q79 0 120 -34q33 -28 33 -75q0 -44 -35 -68q31 -15 47 -37q22 -31 22 -75q0 -60 -42 -96q-47 -44 -145 -44q-91 0 -138 37q-49 38 -49 103q0 40 20 68q15 22 46 36z" />
    <glyph glyph-name="nine.denominator" horiz-adv-x="424" 
d="M314 216q0 79 -30 111q-28 29 -73 29q-65 0 -88 -38q-13 -19 -13 -46q0 -36 20 -54q23 -22 77 -22q66 0 107 20zM309 147q-41 -19 -102 -19q-89 0 -134 41q-40 37 -40 103q0 56 35 94q47 57 143 57q78 0 125 -45q55 -54 55 -169q0 -112 -59 -167q-49 -49 -133 -49
q-76 0 -145 40l29 57q59 -30 115 -30q47 0 76 23q26 20 35 64z" />
    <glyph glyph-name="period.denominator" horiz-adv-x="161" 
d="M79 92q25 0 39.5 -14t14.5 -35q0 -22 -14 -35.5t-40 -13.5q-23 0 -37 14t-14 35t14 35t37 14z" />
    <glyph glyph-name="comma.denominator" horiz-adv-x="161" 
d="M79 92q27 0 40.5 -14t13.5 -36q0 -11 -6 -27l-37 -89l-42 12l9 59q-29 10 -29 45q0 22 13 36t38 14z" />
    <glyph glyph-name="dollar.denominator" horiz-adv-x="418" 
d="M28 288q0 58 49 86q38 21 92 25l5 50h65l3 -48q70 -5 123 -28l-19 -58q-62 20 -129 20q-58 0 -90 -14q-21 -12 -21 -30q0 -16 9 -24q11 -10 48 -15l91 -13q69 -9 105 -42q31 -29 31 -77q0 -61 -52 -95q-44 -25 -96 -28l-5 -57h-64l-5 55q-82 0 -135 25l19 62
q60 -21 133 -21q83 0 110 23q17 12 17 36q0 16 -11 27q-19 16 -58 21l-101 13q-52 6 -86 35q-28 28 -28 72z" />
    <glyph glyph-name="cent.denominator" horiz-adv-x="381" 
d="M187 393h61l3 -42q51 -4 97 -25l-20 -54q-50 15 -107 15t-88 -28q-30 -30 -30 -85q0 -53 30 -83q32 -30 88 -30t107 17l20 -55q-40 -21 -97 -26l-4 -49h-60l-3 50q-66 10 -102 43q-54 51 -54 133t54 134q37 32 101 42z" />
    <glyph glyph-name="parenleft.denominator" horiz-adv-x="187" 
d="M162 449q-26 -39 -42.5 -108.5t-16.5 -128.5q0 -136 61 -228l-59 -32q-77 112 -77 260q0 157 77 268z" />
    <glyph glyph-name="parenright.denominator" horiz-adv-x="187" 
d="M23 447l59 33q77 -111 77 -265q0 -152 -77 -263l-57 31q26 39 42.5 106t16.5 126q0 60 -16 125t-45 107z" />
    <glyph glyph-name="hyphen.denominator" horiz-adv-x="264" 
d="M28 248h208v-64h-208v64z" />
    <glyph glyph-name="zero.numerator" horiz-adv-x="445" 
d="M105 396q0 -97 47 -129q30 -19 70 -19q42 0 71 19q47 32 47 129q0 96 -47 129q-29 19 -71 19q-40 0 -69 -19q-48 -33 -48 -129zM417 396q0 -132 -84 -186q-43 -28 -111 -28q-67 0 -110 28q-84 55 -84 186t84 187q43 28 110 28q68 0 112 -28q83 -56 83 -187z" />
    <glyph glyph-name="one.numerator" horiz-adv-x="289" 
d="M126 251v264l-66 -24l-22 55l128 62l38 -7v-349l52 -7v-57h-198v57z" />
    <glyph glyph-name="two.numerator" horiz-adv-x="420" 
d="M163 256h215v-68h-334v65l203 139q30 21 42 37q16 22 16 46q0 31 -23 48q-25 21 -70 21q-66 0 -140 -44l-33 55q83 56 173 56q82 0 128 -40q42 -36 42 -97q0 -42 -26 -77q-22 -28 -73 -63z" />
    <glyph glyph-name="three.numerator" horiz-adv-x="431" 
d="M336 431q28 -13 45 -40q17 -29 17 -65q0 -68 -54 -107q-51 -37 -134 -37q-113 0 -182 55l35 55q69 -44 147 -44q58 0 89 27q23 20 23 51q0 26 -15 41q-18 20 -54 20h-139v64h129q25 0 40 18q11 11 11 29q0 22 -19 34q-20 13 -67 13q-71 0 -132 -35l-33 53q73 48 169 48
q72 0 114 -27q45 -27 45 -81q0 -45 -35 -72z" />
    <glyph glyph-name="four.numerator" horiz-adv-x="427" 
d="M286 260h-258v58l215 286h63l12 -20l-193 -258h161v120l37 14h39v-134h37v-62l-37 -4v-72h-76v72z" />
    <glyph glyph-name="five.numerator" horiz-adv-x="411" 
d="M347 538h-222v-74q36 13 80 13q83 0 127 -40q46 -38 46 -105q0 -72 -54 -113q-49 -37 -129 -37q-98 0 -167 55l34 55q64 -44 133 -44q51 0 81 24q25 23 25 60q0 39 -28 59q-27 21 -76 21q-18 0 -56 -8q-26 -9 -46 -18l-41 15v203h293v-66z" />
    <glyph glyph-name="six.numerator" horiz-adv-x="425" 
d="M110 388q0 -65 26 -103q26 -37 78 -37q48 0 75 24q26 23 26 60q0 39 -25 58q-24 18 -72 18q-66 0 -108 -20zM116 457q47 19 102 19q86 0 131 -39q43 -37 43 -105q0 -64 -45 -106q-51 -45 -133 -45q-86 0 -133 55q-48 56 -48 159q0 106 56 165q49 51 133 51q76 0 145 -40
l-29 -57q-57 30 -115 30q-47 0 -74 -24q-25 -22 -33 -63z" />
    <glyph glyph-name="seven.numerator" horiz-adv-x="397" 
d="M269 537h-170l-8 -62h-63v129h341v-57q-56 -57 -97 -129q-38 -66 -67 -148l-29 -82h-81l35 101q21 67 63 139q36 62 76 109z" />
    <glyph glyph-name="eight.numerator" horiz-adv-x="430" 
d="M161 393q-31 -10 -44 -29q-12 -16 -12 -43q0 -36 26 -55q30 -19 84 -19q59 0 86 22q24 19 24 52q0 32 -23 50q-26 20 -87 20q-38 0 -54 2zM259 454q17 7 24 18q9 12 9 29q0 19 -13 29q-18 16 -64 16q-41 0 -60 -14q-16 -11 -16 -31q0 -16 7 -26q5 -8 19 -13q18 -6 50 -6
q30 0 44 -2zM94 426q-33 30 -33 73q0 53 39 82q40 30 115 30q79 0 120 -34q33 -28 33 -75q0 -44 -35 -68q31 -15 47 -37q22 -31 22 -75q0 -60 -42 -96q-47 -44 -145 -44q-91 0 -138 37q-49 38 -49 103q0 40 20 68q17 23 46 36z" />
    <glyph glyph-name="nine.numerator" horiz-adv-x="424" 
d="M314 404q0 79 -30 111q-26 29 -73 29q-66 0 -88 -38q-13 -19 -13 -46q0 -34 20 -54q23 -22 77 -22q63 0 107 20zM309 335q-44 -19 -102 -19q-89 0 -134 41q-40 38 -40 103q0 55 35 95q46 56 143 56q80 0 125 -45q55 -54 55 -169q0 -111 -59 -167q-50 -49 -133 -49
q-76 0 -145 40l29 57q59 -30 115 -30q48 0 76 24q25 20 35 63z" />
    <glyph glyph-name="parenleft.numerator" horiz-adv-x="187" 
d="M162 638q-26 -39 -42.5 -108t-16.5 -129t16 -122t45 -105l-59 -33q-77 112 -77 260q0 158 77 269z" />
    <glyph glyph-name="parenright.numerator" horiz-adv-x="187" 
d="M23 637l59 33q77 -112 77 -266q0 -151 -77 -263l-57 32q26 39 42.5 106t16.5 125q0 61 -16 126t-45 107z" />
    <glyph glyph-name="cent.numerator" horiz-adv-x="381" 
d="M187 582h61l3 -42q54 -5 97 -24l-20 -55q-49 16 -107 16q-55 0 -88 -28q-30 -30 -30 -86q0 -52 30 -82q31 -31 88 -31t107 18l20 -55q-40 -21 -97 -26l-4 -49h-60l-3 50q-63 8 -102 42q-54 52 -54 133q0 83 54 134q36 33 101 43z" />
    <glyph glyph-name="dollar.numerator" horiz-adv-x="418" 
d="M28 478q0 58 49 86q38 20 92 25l5 50h65l3 -49q68 -3 123 -27l-19 -59q-60 21 -129 21q-58 0 -90 -14q-21 -12 -21 -30t9 -24q11 -11 48 -15l91 -13q71 -10 105 -42q31 -29 31 -77q0 -61 -52 -95q-41 -25 -96 -28l-5 -58h-64l-5 55q-79 0 -135 25l19 63q63 -22 133 -22
q82 0 110 24q17 12 17 35q0 15 -11 28q-17 15 -58 20l-101 13q-53 8 -86 36q-28 27 -28 72z" />
    <glyph glyph-name="hyphen.numerator" horiz-adv-x="264" 
d="M28 447h208v-64h-208v64z" />
    <glyph glyph-name="comma.numerator" horiz-adv-x="161" 
d="M79 282q27 0 40.5 -14t13.5 -36q0 -11 -6 -27l-37 -89l-42 12l9 59q-29 10 -29 45q0 22 13 36t38 14z" />
    <glyph glyph-name="period.numerator" horiz-adv-x="161" 
d="M79 280q25 0 39.5 -14t14.5 -35q0 -22 -14 -35.5t-40 -13.5q-23 0 -37 14t-14 35t14 35t37 14z" />
    <glyph glyph-name="Cedilla" horiz-adv-x="281" 
d="M87 11h65l-4 -49q39 0 60 -18q20 -18 20 -52q0 -45 -38 -73q-42 -31 -115 -43l-16 44q41 11 62 26q27 20 27 46q0 12 -8 16q-6 5 -21 5h-21l-11 11v87z" />
    <glyph glyph-name="Ogonek" horiz-adv-x="239" 
d="M118 14l40 -14q-16 -11 -21 -23q-9 -15 -9 -35q0 -24 15 -46q15 -20 41 -36l-26 -37q-55 15 -78 41q-25 25 -25 67q0 32 18 53q15 20 45 30z" />
    <glyph glyph-name="Imacron" horiz-adv-x="232" 
d="M63 600h106v-600h-106v600zM-49 741h331v-73h-331v73z" />
    <glyph glyph-name="a.sc" horiz-adv-x="660" 
d="M275 540h122l236 -540h-106l-44 96h-309l-42 -96h-104zM326 449l-117 -274h242l-114 274h-11z" />
    <glyph glyph-name="afii10055" horiz-adv-x="236" 
d="M63 600h106v-600h-106v600z" />
    <glyph glyph-name="b.sc" horiz-adv-x="593" 
d="M63 540h285q91 0 138 -44q39 -37 39 -95q0 -38 -18 -68q-13 -21 -34 -34v-4q35 -18 53 -43q30 -34 30 -87q0 -68 -52 -117q-54 -48 -141 -48h-300v540zM165 248v-165h202q41 0 66 25q21 22 21 59q0 32 -19 53q-25 28 -66 28h-204zM165 457v-131h195q29 0 47 20
q16 19 16 47t-19 46q-18 18 -54 18h-185z" />
    <glyph glyph-name="c.sc" horiz-adv-x="584" 
d="M543 509l-29 -76q-76 31 -163 31q-102 0 -152 -50q-52 -52 -52 -144q0 -89 51 -140q50 -52 153 -52q88 0 162 31l30 -76q-84 -42 -195 -42q-142 0 -225 76q-80 74 -80 203q0 135 84 207q83 72 220 72q113 0 196 -40z" />
    <glyph glyph-name="d.sc" horiz-adv-x="609" 
d="M63 540h215q137 0 209 -63q83 -72 83 -206q0 -128 -77 -202q-73 -69 -215 -69h-215v540zM166 456v-372h121q81 0 127 41q53 48 53 146q0 93 -48 141q-47 44 -137 44h-116z" />
    <glyph glyph-name="e.sc" horiz-adv-x="561" 
d="M63 540h443v-83h-340v-133h302v-82h-302v-159h352v-83h-455v540z" />
    <glyph glyph-name="f.sc" horiz-adv-x="538" 
d="M63 540h436v-83h-333v-153h279v-82h-279v-222h-103v540z" />
    <glyph glyph-name="g.sc" horiz-adv-x="627" 
d="M338 247v73h233v-319h-70l-17 32q-68 -42 -165 -42q-134 0 -211 82q-69 77 -69 197q0 126 88 203q86 76 223 76q111 0 200 -45l-32 -73q-82 34 -168 34q-93 0 -149 -48q-59 -51 -59 -147q0 -78 42 -132q51 -61 140 -61q78 0 147 33v129z" />
    <glyph glyph-name="h.sc" horiz-adv-x="634" 
d="M63 540h103v-211h302v211h103v-540h-103v244h-302v-244h-103v540z" />
    <glyph glyph-name="i.sc" horiz-adv-x="229" 
d="M63 540h102v-540h-102v540z" />
    <glyph glyph-name="j.sc" horiz-adv-x="478" 
d="M321 540h103v-320q0 -109 -65 -169q-63 -60 -181 -60q-91 0 -153 31l27 75q60 -22 122 -22q78 0 113 38q34 36 34 108v319z" />
    <glyph glyph-name="k.sc" horiz-adv-x="615" 
d="M63 540h104v-211h129l161 211h118l-195 -250l201 -290h-121l-165 246h-128v-246h-104v540z" />
    <glyph glyph-name="l.sc" horiz-adv-x="536" 
d="M63 540h103v-457h329v-83h-432v540z" />
    <glyph glyph-name="m.sc" horiz-adv-x="772" 
d="M63 540h146l178 -438l179 438h143v-540h-101v411h-4l-168 -411h-106l-167 411h-4v-411h-96v540z" />
    <glyph glyph-name="n.sc" horiz-adv-x="635" 
d="M63 540h97l314 -394v394h98v-540h-98l-314 398v-398h-97v540z" />
    <glyph glyph-name="o.sc" horiz-adv-x="656" 
d="M328 549q132 0 210 -78q75 -75 75 -202q0 -125 -75 -200q-78 -78 -210 -78t-210 78q-76 76 -76 200q0 126 76 202q78 78 210 78zM328 466q-84 0 -133 -49t-49 -148q0 -97 49 -146t133 -49q85 0 132 49q49 49 49 146q0 99 -49 148q-47 49 -132 49z" />
    <glyph glyph-name="p.sc" horiz-adv-x="582" 
d="M63 540h271q98 0 154 -59q54 -54 54 -137q0 -82 -54 -136q-61 -59 -163 -59h-159v-149h-103v540zM166 457v-225h152q56 0 88 28q32 29 32 85q0 49 -25 76q-29 36 -88 36h-159z" />
    <glyph glyph-name="q.sc" horiz-adv-x="655" 
d="M573 0l11 -72q-29 -8 -57 -8q-42 0 -76 22q-26 17 -57 56q-37 -7 -66 -7q-132 0 -210 78q-76 76 -76 200q0 126 76 202q78 78 210 78t210 -78q75 -75 75 -202q0 -77 -33 -142q-35 -61 -92 -94q11 -16 29 -25q18 -10 37 -10q5 0 19 2zM328 466q-84 0 -133 -49t-49 -148
q0 -97 49 -146t133 -49q85 0 132 49q49 49 49 146q0 99 -49 148q-47 49 -132 49z" />
    <glyph glyph-name="r.sc" horiz-adv-x="583" 
d="M63 540h268q104 0 158 -56q51 -49 51 -132q0 -60 -31 -106q-30 -45 -86 -68l111 -178h-113l-95 165h-160v-165h-103v540zM166 457v-210h164q49 0 79 30q27 29 27 75q0 42 -21 69q-29 36 -88 36h-161z" />
    <glyph glyph-name="s.sc" horiz-adv-x="600" 
d="M524 509l-30 -78q-93 33 -189 33t-134 -23q-25 -16 -25 -42q0 -23 18 -35q19 -13 69 -21l136 -20q111 -16 154 -61q35 -38 35 -100q0 -77 -63 -120q-70 -51 -221 -51q-131 0 -231 41l26 80q107 -35 202 -35q108 0 152 28q33 20 33 57q0 31 -27 48q-24 13 -75 20l-144 20
q-82 11 -121 42q-45 36 -45 100q0 68 52 109q64 48 206 48q122 0 222 -40z" />
    <glyph glyph-name="t.sc" horiz-adv-x="593" 
d="M31 540h531v-83h-214v-457h-103v457h-214v83z" />
    <glyph glyph-name="u.sc" horiz-adv-x="629" 
d="M63 540h104v-308q0 -77 39 -116q39 -41 109 -41q69 0 110 39q37 38 37 118v308h104v-303q0 -116 -68 -182q-66 -64 -184 -64q-112 0 -180 60q-71 65 -71 186v303z" />
    <glyph glyph-name="v.sc" horiz-adv-x="653" 
d="M28 540h110l181 -445h10l186 445h110l-242 -540h-122z" />
    <glyph glyph-name="w.sc" horiz-adv-x="909" 
d="M28 540h108l129 -440h6l124 440h120l125 -440h5l132 440h104l-175 -540h-133l-118 406h-5l-118 -406h-133z" />
    <glyph glyph-name="x.sc" horiz-adv-x="614" 
d="M43 540h121l145 -205l144 205h119l-195 -260l209 -280h-122l-159 224l-158 -224h-119l210 280z" />
    <glyph glyph-name="y.sc" horiz-adv-x="636" 
d="M28 540h116l168 -318h6l176 318h114l-241 -412v-128h-103v127z" />
    <glyph glyph-name="z.sc" horiz-adv-x="543" 
d="M510 85v-85h-477v66l341 393l-125 -3h-198v84h456v-62l-342 -396l124 3h221z" />
    <glyph glyph-name="idotaccent.sc" horiz-adv-x="229" 
d="M63 540h102v-540h-102v540zM115 719q30 0 46.5 -17t16.5 -43t-16.5 -42.5t-46.5 -16.5q-29 0 -46 16.5t-17 42.5t17 43t46 17z" />
    <glyph glyph-name="afii10065.sc" horiz-adv-x="660" 
d="M275 540h122l236 -540h-106l-44 96h-309l-42 -96h-104zM326 449l-117 -274h242l-114 274h-11z" />
    <glyph glyph-name="afii10066.sc" horiz-adv-x="579" 
d="M63 540h417v-84h-315v-93h171q102 0 153 -52q50 -47 50 -127q0 -81 -56 -132q-57 -52 -148 -52h-272v540zM165 280v-197h166q53 0 82 31q24 26 24 69q0 48 -26 72q-26 25 -75 25h-171z" />
    <glyph glyph-name="afii10067.sc" horiz-adv-x="593" 
d="M63 540h285q91 0 138 -44q39 -37 39 -95q0 -38 -18 -68q-13 -21 -34 -34v-4q35 -18 53 -43q30 -34 30 -87q0 -68 -52 -117q-54 -48 -141 -48h-300v540zM165 248v-165h202q41 0 66 25q21 22 21 59q0 32 -19 53q-25 28 -66 28h-204zM165 457v-131h195q29 0 47 20
q16 19 16 47t-19 46q-18 18 -54 18h-185z" />
    <glyph glyph-name="afii10068.sc" horiz-adv-x="535" 
d="M63 540h429v-86h-326v-454h-103v540z" />
    <glyph glyph-name="afii10069.sc" horiz-adv-x="661" 
d="M173 540h403v-456h55v-191h-87l-11 107h-406l-11 -107h-86v190h21q27 0 43 16q18 17 24 57zM259 456l-44 -319q-5 -34 -17 -53h275v372h-214z" />
    <glyph glyph-name="afii10070.sc" horiz-adv-x="561" 
d="M63 540h443v-83h-340v-133h302v-82h-302v-159h352v-83h-455v540z" />
    <glyph glyph-name="afii10071.sc" horiz-adv-x="561" 
d="M63 540h443v-83h-340v-133h302v-82h-302v-159h352v-83h-455v540zM180 715q32 0 50 -17.5t18 -46.5q0 -27 -18 -44.5t-50 -17.5q-30 0 -48 17.5t-18 44.5q0 29 17.5 46.5t48.5 17.5zM394 715q32 0 49.5 -17.5t17.5 -46.5q0 -27 -18 -44.5t-49 -17.5q-30 0 -48 17.5
t-18 44.5q0 29 17.5 46.5t48.5 17.5z" />
    <glyph glyph-name="afii10072.sc" horiz-adv-x="867" 
d="M383 540h102v-212h91l72 138q18 38 45 57q29 22 75 22q30 0 63 -6l-7 -76h-21q-28 0 -41 -8q-16 -8 -28 -29l-72 -134l175 -292h-113l-140 245h-99v-245h-102v245h-100l-139 -245h-113l175 291l-73 135q-10 20 -23 27q-17 11 -46 11h-22l-7 75q31 7 64 7q43 0 74 -21
q29 -20 47 -59l70 -138h93v212z" />
    <glyph glyph-name="afii10073.sc" horiz-adv-x="587" 
d="M149 338h198q33 0 51 21q14 16 14 38q0 32 -26 49q-33 20 -116 20q-85 0 -184 -34l-26 71q98 46 219 46q137 0 193 -49q42 -36 42 -98q0 -27 -15 -55q-10 -19 -31 -35v-4q37 -20 56 -46q25 -32 25 -84q0 -84 -66 -136q-70 -51 -202 -51q-140 0 -248 52l31 77
q110 -43 217 -43q90 0 131 30q36 27 36 71q0 32 -20 54q-24 24 -69 24h-210v82z" />
    <glyph glyph-name="afii10074.sc" horiz-adv-x="641" 
d="M63 540h102v-391l318 391h95v-540h-102v391l-319 -391h-94v540z" />
    <glyph glyph-name="afii10075.sc" horiz-adv-x="641" 
d="M63 540h102v-391l318 391h95v-540h-102v391l-319 -391h-94v540zM174 699l73 9q6 -33 25 -48q20 -15 48 -15q31 0 49 15q17 17 23 48l74 -9q-11 -63 -45 -93q-39 -34 -101 -34q-64 0 -103 36q-35 31 -43 91z" />
    <glyph glyph-name="afii10076.sc" 
d="M63 540h103v-212h126l89 146q27 42 59 57t73 15q28 0 56 -7l-10 -78h-19q-27 0 -44 -7q-19 -8 -31 -27l-89 -135l196 -292h-119l-159 245h-128v-245h-103v540z" />
    <glyph glyph-name="afii10077.sc" horiz-adv-x="665" 
d="M201 540h401v-540h-104v457h-210l-44 -328q-9 -68 -45 -100q-38 -35 -97 -35q-45 0 -88 13l17 78q28 -7 48 -7q30 0 44 14q17 16 22 52z" />
    <glyph glyph-name="afii10078.sc" horiz-adv-x="772" 
d="M63 540h146l178 -438l179 438h143v-540h-101v411h-4l-168 -411h-106l-167 411h-4v-411h-96v540z" />
    <glyph glyph-name="afii10079.sc" horiz-adv-x="634" 
d="M63 540h103v-211h302v211h103v-540h-103v244h-302v-244h-103v540z" />
    <glyph glyph-name="afii10080.sc" horiz-adv-x="656" 
d="M328 549q132 0 210 -78q75 -75 75 -202q0 -125 -75 -200q-78 -78 -210 -78t-210 78q-76 76 -76 200q0 126 76 202q78 78 210 78zM328 466q-84 0 -133 -49t-49 -148q0 -97 49 -146t133 -49q85 0 132 49q49 49 49 146q0 99 -49 148q-47 49 -132 49z" />
    <glyph glyph-name="afii10081.sc" horiz-adv-x="630" 
d="M63 540h504v-540h-103v455h-298v-455h-103v540z" />
    <glyph glyph-name="afii10082.sc" horiz-adv-x="582" 
d="M63 540h271q98 0 154 -59q54 -54 54 -137q0 -82 -54 -136q-61 -59 -163 -59h-159v-149h-103v540zM166 457v-225h152q56 0 88 28q32 29 32 85q0 49 -25 76q-29 36 -88 36h-159z" />
    <glyph glyph-name="afii10083.sc" horiz-adv-x="584" 
d="M543 509l-29 -76q-76 31 -163 31q-102 0 -152 -50q-52 -52 -52 -144q0 -89 51 -140q50 -52 153 -52q88 0 162 31l30 -76q-84 -42 -195 -42q-142 0 -225 76q-80 74 -80 203q0 135 84 207q83 72 220 72q113 0 196 -40z" />
    <glyph glyph-name="afii10084.sc" horiz-adv-x="593" 
d="M31 540h531v-83h-214v-457h-103v457h-214v83z" />
    <glyph glyph-name="afii10085.sc" horiz-adv-x="623" 
d="M28 540h116l174 -327h5l161 327h110l-233 -441q-28 -58 -65 -84q-31 -22 -86 -22q-34 0 -62 7l7 77h34q27 0 42 8q16 10 32 43z" />
    <glyph glyph-name="afii10086.sc" horiz-adv-x="811" 
d="M354 487v62h103v-62h82q105 0 167 -57q64 -57 64 -157q0 -93 -56 -149q-61 -64 -175 -64h-82v-60h-103v60h-82q-114 0 -175 64q-56 54 -56 149q0 99 64 157q62 57 167 57h82zM354 404h-82q-66 0 -100 -39q-30 -35 -30 -92q0 -56 28 -90q34 -39 102 -39h82v260zM457 404
v-260h81q69 0 104 41q26 34 26 88q0 58 -27 91q-35 40 -103 40h-81z" />
    <glyph glyph-name="afii10087.sc" horiz-adv-x="614" 
d="M43 540h121l145 -205l144 205h119l-195 -260l209 -280h-122l-159 224l-158 -224h-119l210 280z" />
    <glyph glyph-name="afii10088.sc" horiz-adv-x="637" 
d="M63 540h105v-456h280v456h105v-456h51v-191h-87l-10 107h-444v540z" />
    <glyph glyph-name="afii10089.sc" horiz-adv-x="605" 
d="M43 540h104v-175q0 -77 39 -115q37 -37 112 -37q79 0 140 38v289h104v-540h-104v167q-67 -38 -148 -38q-119 0 -181 58q-66 60 -66 176v177z" />
    <glyph glyph-name="afii10090.sc" horiz-adv-x="858" 
d="M63 540h102v-457h213v457h102v-457h213v457h102v-540h-732v540z" />
    <glyph glyph-name="afii10091.sc" horiz-adv-x="879" 
d="M63 540h102v-457h213v457h102v-457h213v457h102v-456h51v-191h-86l-11 107h-686v540z" />
    <glyph glyph-name="afii10092.sc" horiz-adv-x="639" 
d="M29 540h207v-162h152q114 0 171 -63q42 -50 42 -126q0 -83 -54 -135q-57 -54 -156 -54h-258v456l-104 10v74zM236 295v-212h150q55 0 85 30q29 29 29 76q0 50 -28 78q-29 28 -89 28h-147z" />
    <glyph glyph-name="afii10093.sc" horiz-adv-x="752" 
d="M63 540h103v-162h151q116 0 171 -63q42 -50 42 -126q0 -83 -54 -135q-57 -54 -156 -54h-257v540zM166 295v-212h150q53 0 85 30q28 30 28 76q0 51 -28 78q-29 28 -88 28h-147zM587 540h102v-540h-102v540z" />
    <glyph glyph-name="afii10094.sc" horiz-adv-x="569" 
d="M63 540h103v-162h152q115 0 170 -63q43 -49 43 -126q0 -83 -55 -135q-56 -54 -155 -54h-258v540zM166 295v-212h150q55 0 85 30q29 29 29 76q0 51 -29 78q-28 28 -88 28h-147z" />
    <glyph glyph-name="afii10095.sc" horiz-adv-x="584" 
d="M144 245v81h288q-10 55 -45 88q-50 50 -153 50q-81 0 -161 -31l-30 76q83 40 195 40q138 0 221 -72q84 -73 84 -207q0 -130 -81 -203q-82 -76 -224 -76q-111 0 -195 42l31 76q74 -31 160 -31q104 0 154 52q45 43 49 115h-293z" />
    <glyph glyph-name="afii10096.sc" horiz-adv-x="828" 
d="M63 540h103v-223h86q11 97 68 156q69 76 197 76q122 0 194 -70q74 -72 74 -208q0 -122 -60 -194q-71 -86 -208 -86q-132 0 -200 77q-56 62 -66 164h-85v-232h-103v540zM352 270q0 -88 36 -138q43 -58 129 -58q87 0 131 59q35 49 35 138q0 97 -45 147q-42 48 -121 48
q-80 0 -123 -51q-42 -51 -42 -145z" />
    <glyph glyph-name="afii10097.sc" horiz-adv-x="599" 
d="M539 540v-540h-103v165h-178l-97 -165h-113l112 178q-48 19 -79 59q-38 47 -38 115q0 84 52 133q55 55 157 55h287zM436 457h-181q-57 0 -86 -36q-22 -23 -22 -69q0 -45 25 -72q28 -33 80 -33h184v210z" />
    <glyph glyph-name="afii10098.sc" horiz-adv-x="534" 
d="M63 540h341l9 84h81v-170h-328v-454h-103v540z" />
    <glyph glyph-name="afii10099.sc" horiz-adv-x="731" 
d="M30 540h481v-82h-190v-99q67 46 149 46q99 0 155 -51q62 -57 62 -169v-146q0 -125 -114 -194l-51 48q61 62 61 146v143q0 71 -33 106q-32 34 -92 34q-73 0 -137 -47v-275h-103v458h-188v82z" />
    <glyph glyph-name="afii10100.sc" horiz-adv-x="535" 
d="M63 540h429v-86h-326v-454h-103v540zM250 615l64 152l82 -39l-80 -142z" />
    <glyph glyph-name="afii10101.sc" horiz-adv-x="584" 
d="M437 326v-81h-293q6 -73 49 -115q50 -52 154 -52q85 0 161 31l31 -76q-85 -42 -196 -42q-142 0 -224 76q-80 72 -80 203q0 135 83 207t221 72q112 0 195 -40l-30 -76q-80 31 -161 31q-103 0 -153 -50q-33 -33 -45 -88h288z" />
    <glyph glyph-name="afii10102.sc" horiz-adv-x="600" 
d="M524 509l-30 -78q-93 33 -189 33t-134 -23q-25 -16 -25 -42q0 -23 18 -35q19 -13 69 -21l136 -20q111 -16 154 -61q35 -38 35 -100q0 -77 -63 -120q-70 -51 -221 -51q-131 0 -231 41l26 80q107 -35 202 -35q108 0 152 28q33 20 33 57q0 31 -27 48q-24 13 -75 20l-144 20
q-82 11 -121 42q-45 36 -45 100q0 68 52 109q64 48 206 48q122 0 222 -40z" />
    <glyph glyph-name="afii10103.sc" horiz-adv-x="229" 
d="M63 540h102v-540h-102v540z" />
    <glyph glyph-name="afii10104.sc" horiz-adv-x="229" 
d="M63 540h102v-540h-102v540zM7 711q32 0 50 -17.5t18 -46.5q0 -27 -18 -44.5t-50 -17.5q-31 0 -48.5 17.5t-17.5 44.5q0 29 17.5 46.5t48.5 17.5zM221 711q32 0 49.5 -17.5t17.5 -46.5q0 -27 -18 -44.5t-49 -17.5t-48.5 17.5t-17.5 44.5q0 29 17.5 46.5t48.5 17.5z" />
    <glyph glyph-name="afii10105.sc" horiz-adv-x="478" 
d="M321 540h103v-320q0 -109 -65 -169q-63 -60 -181 -60q-91 0 -153 31l27 75q60 -22 122 -22q78 0 113 38q34 36 34 108v319z" />
    <glyph glyph-name="afii10106.sc" horiz-adv-x="1006" 
d="M201 540h401v-162h150q116 0 171 -63q42 -50 42 -126q0 -83 -54 -135q-57 -54 -156 -54h-257v457h-210l-44 -328q-9 -68 -45 -100q-38 -35 -98 -35q-44 0 -87 13l17 78q28 -7 48 -7q30 0 44 14q17 16 22 52zM602 295v-212h149q53 0 85 30q28 30 28 76q0 51 -28 78
q-29 28 -88 28h-146z" />
    <glyph glyph-name="afii10107.sc" horiz-adv-x="967" 
d="M63 540h103v-211h294v211h103v-162h150q114 0 171 -63q42 -50 42 -126q0 -83 -54 -135q-57 -54 -156 -54h-256v244h-294v-244h-103v540zM563 295v-212h148q55 0 85 30q29 29 29 76q0 50 -28 78q-29 28 -89 28h-145z" />
    <glyph glyph-name="afii10108.sc" horiz-adv-x="731" 
d="M30 540h481v-82h-190v-99q67 46 149 46q99 0 155 -51q62 -57 62 -169v-185h-104v182q0 71 -33 106q-32 34 -92 34q-73 0 -137 -47v-275h-103v458h-188v82z" />
    <glyph glyph-name="afii10109.sc" 
d="M63 540h103v-212h126l89 146q27 42 59 57t73 15q28 0 56 -7l-10 -78h-19q-27 0 -44 -7q-19 -8 -31 -27l-89 -135l196 -292h-119l-159 245h-128v-245h-103v540zM255 594l64 152l82 -39l-80 -142z" />
    <glyph glyph-name="afii10110.sc" horiz-adv-x="623" 
d="M28 540h116l174 -327h5l161 327h110l-233 -441q-28 -58 -65 -84q-31 -22 -86 -22q-34 0 -62 7l7 77h34q27 0 42 8q16 10 32 43zM174 689l73 9q6 -33 25 -48q20 -15 48 -15q31 0 49 15q17 17 23 48l74 -9q-11 -63 -45 -93q-39 -34 -101 -34q-64 0 -103 36q-35 31 -43 91z
" />
    <glyph glyph-name="afii10193.sc" horiz-adv-x="619" 
d="M271 -103l-9 103h-199v540h103v-455h287v455h103v-540h-196l-9 -103h-80z" />
    <glyph glyph-name="aacute.sc" horiz-adv-x="660" 
d="M275 540h122l236 -540h-106l-44 96h-309l-42 -96h-104zM326 449l-117 -274h242l-114 274h-11zM308 621l64 152l82 -39l-80 -142z" />
    <glyph glyph-name="abreve.sc" horiz-adv-x="660" 
d="M275 540h122l236 -540h-106l-44 96h-309l-42 -96h-104zM326 449l-117 -274h242l-114 274h-11zM184 712l73 9q6 -33 25 -48q20 -15 48 -15q31 0 49 15q17 17 23 48l74 -9q-11 -63 -45 -93q-39 -34 -101 -34q-64 0 -103 36q-35 31 -43 91z" />
    <glyph glyph-name="acircumflex.sc" horiz-adv-x="660" 
d="M275 540h122l236 -540h-106l-44 96h-309l-42 -96h-104zM326 449l-117 -274h242l-114 274h-11zM225 568l-37 43l130 125h30l130 -125l-38 -43l-108 82z" />
    <glyph glyph-name="adieresis.sc" horiz-adv-x="660" 
d="M275 540h122l236 -540h-106l-44 96h-309l-42 -96h-104zM326 449l-117 -274h242l-114 274h-11zM222 714q32 0 50 -17.5t18 -46.5q0 -27 -18 -44.5t-50 -17.5q-30 0 -48 18t-18 44q0 29 17.5 46.5t48.5 17.5zM436 714q32 0 49.5 -17.5t17.5 -46.5q0 -27 -18 -44.5
t-49 -17.5q-30 0 -48 18t-18 44q0 29 17.5 46.5t48.5 17.5z" />
    <glyph glyph-name="agrave.sc" horiz-adv-x="660" 
d="M275 540h122l236 -540h-106l-44 96h-309l-42 -96h-104zM326 449l-117 -274h242l-114 274h-11zM308 774l64 -152l-66 -29l-80 142z" />
    <glyph glyph-name="amacron.sc" horiz-adv-x="660" 
d="M275 540h122l236 -540h-106l-44 96h-309l-42 -96h-104zM326 449l-117 -274h242l-114 274h-11zM165 675h331v-73h-331v73z" />
    <glyph glyph-name="aogonek.sc" horiz-adv-x="660" 
d="M275 540h122l236 -540q-13 -8 -22 -22q-8 -18 -8 -35q0 -24 14 -47q15 -21 42 -36l-26 -37q-55 15 -79 41q-25 27 -25 67q0 26 14 46q8 14 23 23h-39l-44 96h-309l-42 -96h-104zM326 449l-117 -274h242l-114 274h-11z" />
    <glyph glyph-name="aring.sc" horiz-adv-x="660" 
d="M275 540h122l236 -540h-106l-44 96h-309l-42 -96h-104zM326 449l-117 -274h242l-114 274h-11zM333 576q-50 0 -80 30q-32 30 -32 81q0 49 33 79q29 31 79 31q51 0 83 -32q30 -32 30 -78q0 -48 -28 -78q-31 -33 -85 -33zM387 687q0 22 -14 38q-16 14 -40 14q-25 0 -39 -14
t-14 -38q0 -25 15 -39q16 -14 38 -14q27 0 40 15q14 14 14 38z" />
    <glyph glyph-name="atilde.sc" horiz-adv-x="660" 
d="M275 540h122l236 -540h-106l-44 96h-309l-42 -96h-104zM326 449l-117 -274h242l-114 274h-11zM333 607q-44 18 -78 18q-39 0 -68 -22l-31 49q53 47 107 47q35 0 77 -17q43 -18 80 -18q36 0 67 22l31 -50q-46 -46 -103 -46q-44 0 -82 17z" />
    <glyph glyph-name="ae.sc" horiz-adv-x="947" 
d="M325 540h569v-83h-340v-133h304v-82h-304v-159h352v-83h-455v109h-264l-59 -109h-108zM379 457l-149 -265h221v265h-72z" />
    <glyph glyph-name="cacute.sc" horiz-adv-x="584" 
d="M543 509l-29 -76q-76 31 -163 31q-102 0 -152 -50q-52 -52 -52 -144q0 -89 51 -140q50 -52 153 -52q88 0 162 31l30 -76q-84 -42 -195 -42q-142 0 -225 76q-80 74 -80 203q0 135 84 207q83 72 220 72q113 0 196 -40zM327 616l64 152l82 -39l-80 -142z" />
    <glyph glyph-name="ccaron.sc" horiz-adv-x="584" 
d="M543 509l-29 -76q-76 31 -163 31q-102 0 -152 -50q-52 -52 -52 -144q0 -89 51 -140q50 -52 153 -52q88 0 162 31l30 -76q-84 -42 -195 -42q-142 0 -225 76q-80 74 -80 203q0 135 84 207q83 72 220 72q113 0 196 -40zM210 709l37 43l108 -82l108 82l37 -43l-130 -125h-30z
" />
    <glyph glyph-name="ccedilla.sc" horiz-adv-x="584" 
d="M543 509l-31 -76q-78 31 -161 31q-102 0 -152 -50q-52 -52 -52 -144q0 -89 51 -140q50 -52 153 -52q85 0 161 31l31 -76q-75 -39 -186 -42l-4 -34q34 0 56 -19q20 -17 20 -52q0 -45 -38 -73q-40 -30 -110 -43l-17 44q38 10 63 27q27 19 27 45q0 12 -8 17q-10 5 -22 5h-20
l-12 10v77q-105 12 -169 72q-80 74 -80 203q0 135 84 207q83 72 220 72q113 0 196 -40z" />
    <glyph glyph-name="ccircumflex.sc" horiz-adv-x="584" 
d="M543 509l-29 -76q-76 31 -163 31q-102 0 -152 -50q-52 -52 -52 -144q0 -89 51 -140q50 -52 153 -52q88 0 162 31l30 -76q-84 -42 -195 -42q-142 0 -225 76q-80 74 -80 203q0 135 84 207q83 72 220 72q113 0 196 -40zM244 581l-37 43l130 125h30l130 -125l-38 -43l-108 82
z" />
    <glyph glyph-name="cdotaccent.sc" horiz-adv-x="584" 
d="M543 509l-29 -76q-76 31 -163 31q-102 0 -152 -50q-52 -52 -52 -144q0 -89 51 -140q50 -52 153 -52q88 0 162 31l30 -76q-84 -42 -195 -42q-142 0 -225 76q-80 74 -80 203q0 135 84 207q83 72 220 72q113 0 196 -40zM351 718q30 0 47 -17t17 -44q0 -26 -17 -43t-47 -17
q-31 0 -48 17t-17 43q0 27 17 44t48 17z" />
    <glyph glyph-name="dcaron.sc" horiz-adv-x="609" 
d="M63 540h215q137 0 209 -63q83 -72 83 -206q0 -128 -77 -202q-73 -69 -215 -69h-215v540zM166 456v-372h121q81 0 127 41q53 48 53 146q0 93 -48 141q-47 44 -137 44h-116zM141 698l37 43l108 -82l108 82l37 -43l-130 -125h-30z" />
    <glyph glyph-name="dcroat.sc" horiz-adv-x="609" 
d="M17 238v81h46v221h215q137 0 209 -63q83 -72 83 -206q0 -128 -77 -202q-73 -69 -215 -69h-215v238h-46zM166 456v-137h161v-81h-161v-154h121q81 0 127 41q53 48 53 146q0 93 -48 141q-47 44 -137 44h-116z" />
    <glyph glyph-name="eacute.sc" horiz-adv-x="561" 
d="M63 540h443v-83h-340v-133h302v-82h-302v-159h352v-83h-455v540zM258 600l64 152l82 -39l-80 -142z" />
    <glyph glyph-name="ebreve.sc" horiz-adv-x="561" 
d="M63 540h443v-83h-340v-133h302v-82h-302v-159h352v-83h-455v540zM157 708l73 9q6 -33 25 -48q20 -15 48 -15q31 0 49 15q17 17 23 48l74 -9q-11 -63 -45 -93q-39 -34 -101 -34q-64 0 -103 36q-35 31 -43 91z" />
    <glyph glyph-name="ecaron.sc" horiz-adv-x="561" 
d="M63 540h443v-83h-340v-133h302v-82h-302v-159h352v-83h-455v540zM156 701l37 43l108 -82l108 82l37 -43l-130 -125h-30z" />
    <glyph glyph-name="ecircumflex.sc" horiz-adv-x="561" 
d="M63 540h443v-83h-340v-133h302v-82h-302v-159h352v-83h-455v540zM188 571l-37 43l130 125h30l130 -125l-38 -43l-108 82z" />
    <glyph glyph-name="edieresis.sc" horiz-adv-x="561" 
d="M63 540h443v-83h-340v-133h302v-82h-302v-159h352v-83h-455v540zM183 712q32 0 50 -17.5t18 -46.5q0 -27 -18 -44.5t-50 -17.5q-31 0 -48.5 18t-17.5 44q0 29 17.5 46.5t48.5 17.5zM397 712q32 0 49.5 -17.5t17.5 -46.5q0 -27 -18 -44.5t-49 -17.5t-48.5 18t-17.5 44
q0 29 17.5 46.5t48.5 17.5z" />
    <glyph glyph-name="edotaccent.sc" horiz-adv-x="561" 
d="M63 540h443v-83h-340v-133h302v-82h-302v-159h352v-83h-455v540zM296 701q30 0 47 -17t17 -44q0 -26 -17 -43t-47 -17q-31 0 -48 17t-17 43q0 27 17 44t48 17z" />
    <glyph glyph-name="egrave.sc" horiz-adv-x="561" 
d="M63 540h443v-83h-340v-133h302v-82h-302v-159h352v-83h-455v540zM289 756l64 -152l-66 -29l-80 142z" />
    <glyph glyph-name="emacron.sc" horiz-adv-x="561" 
d="M63 540h443v-83h-340v-133h302v-82h-302v-159h352v-83h-455v540zM122 673h331v-73h-331v73z" />
    <glyph glyph-name="eogonek.sc" horiz-adv-x="561" 
d="M63 540h443v-83h-340v-133h302v-82h-302v-159h352v-83q-13 -8 -22 -22q-8 -15 -8 -35q0 -27 14 -47q15 -21 42 -36l-26 -37q-55 15 -79 41q-25 27 -25 67q0 25 15 45q8 13 24 24h-390v540z" />
    <glyph glyph-name="ff.sc" horiz-adv-x="1062" 
d="M63 540h436v-83h-333v-153h279v-82h-279v-222h-103v540zM591 540h436v-83h-333v-153h279v-82h-279v-222h-103v540z" />
    <glyph glyph-name="ffi.sc" horiz-adv-x="1275" 
d="M63 540h436v-83h-333v-153h279v-82h-279v-222h-103v540zM591 540h436v-83h-333v-153h279v-82h-279v-222h-103v540zM1113 540h102v-540h-102v540z" />
    <glyph glyph-name="f_f_j.sc" horiz-adv-x="1407" 
d="M63 540h436v-83h-333v-153h279v-82h-279v-222h-103v540zM591 540h436v-83h-333v-153h279v-82h-279v-222h-103v540zM1243 540h103v-320q0 -109 -65 -169q-63 -60 -181 -60q-91 0 -153 31l27 75q60 -22 122 -22q78 0 113 38q34 36 34 108v319z" />
    <glyph glyph-name="ffl.sc" horiz-adv-x="1576" 
d="M63 540h436v-83h-333v-153h279v-82h-279v-222h-103v540zM591 540h436v-83h-333v-153h279v-82h-279v-222h-103v540zM1119 540h103v-457h329v-83h-432v540z" />
    <glyph glyph-name="fi.sc" horiz-adv-x="757" 
d="M63 540h436v-83h-333v-153h279v-82h-279v-222h-103v540zM595 540h102v-540h-102v540z" />
    <glyph glyph-name="f_j.sc" horiz-adv-x="884" 
d="M63 540h436v-83h-333v-153h279v-82h-279v-222h-103v540zM719 540h103v-320q0 -109 -65 -169q-63 -60 -181 -60q-91 0 -153 31l27 75q60 -22 122 -22q78 0 113 38q34 36 34 108v319z" />
    <glyph glyph-name="fl.sc" horiz-adv-x="1049" 
d="M63 540h436v-83h-333v-153h279v-82h-279v-222h-103v540zM587 540h103v-457h329v-83h-432v540z" />
    <glyph glyph-name="gbreve.sc" horiz-adv-x="627" 
d="M338 247v73h233v-319h-70l-17 32q-68 -42 -165 -42q-134 0 -211 82q-69 77 -69 197q0 126 88 203q86 76 223 76q111 0 200 -45l-32 -73q-82 34 -168 34q-93 0 -149 -48q-59 -51 -59 -147q0 -78 42 -132q51 -61 140 -61q78 0 147 33v129zM205 713l73 9q6 -33 25 -48
q20 -15 48 -15q31 0 49 15q17 17 23 48l74 -9q-11 -63 -45 -93q-39 -34 -101 -34q-64 0 -103 36q-35 31 -43 91z" />
    <glyph glyph-name="gcircumflex.sc" horiz-adv-x="627" 
d="M338 247v73h233v-319h-70l-17 32q-68 -42 -165 -42q-134 0 -211 82q-69 77 -69 197q0 126 88 203q86 76 223 76q111 0 200 -45l-32 -73q-82 34 -168 34q-93 0 -149 -48q-59 -51 -59 -147q0 -78 42 -132q51 -61 140 -61q78 0 147 33v129zM241 572l-37 43l130 125h30
l130 -125l-38 -43l-108 82z" />
    <glyph glyph-name="gcommaaccent.sc" horiz-adv-x="627" 
d="M338 247v73h233v-319h-70l-17 32q-68 -42 -165 -42q-134 0 -211 82q-69 77 -69 197q0 126 88 203q86 76 223 76q111 0 200 -45l-32 -73q-82 34 -168 34q-93 0 -149 -48q-59 -51 -59 -147q0 -78 42 -132q51 -61 140 -61q78 0 147 33v129zM336 -48q29 0 46 -16.5t17 -42.5
q0 -17 -5 -30l-44 -113l-49 10l13 75q-40 11 -40 58q0 25 17 42t45 17z" />
    <glyph glyph-name="gdotaccent.sc" horiz-adv-x="627" 
d="M338 247v73h233v-319h-70l-17 32q-68 -42 -165 -42q-134 0 -211 82q-69 77 -69 197q0 126 88 203q86 76 223 76q111 0 200 -45l-32 -73q-82 34 -168 34q-93 0 -149 -48q-59 -51 -59 -147q0 -78 42 -132q51 -61 140 -61q78 0 147 33v129zM351 711q30 0 47 -17t17 -44
q0 -26 -17 -43t-47 -17q-31 0 -48 17t-17 43q0 27 17 44t48 17z" />
    <glyph glyph-name="hbar.sc" horiz-adv-x="634" 
d="M26 410v61l37 6v63h103v-63h302v63h103v-63h37v-61l-37 -6v-410h-103v244h-302v-244h-103v410h-37zM166 329h302v81h-302v-81z" />
    <glyph glyph-name="hcircumflex.sc" horiz-adv-x="634" 
d="M63 540h103v-211h302v211h103v-540h-103v244h-302v-244h-103v540zM211 570l-37 43l130 125h30l130 -125l-38 -43l-108 82z" />
    <glyph glyph-name="iacute.sc" horiz-adv-x="229" 
d="M63 540h102v-540h-102v540zM71 612l64 152l82 -39l-80 -142z" />
    <glyph glyph-name="icircumflex.sc" horiz-adv-x="229" 
d="M63 540h102v-540h-102v540zM7 565l-37 43l130 125h30l130 -125l-38 -43l-108 82z" />
    <glyph glyph-name="idieresis.sc" horiz-adv-x="229" 
d="M63 540h102v-540h-102v540zM7 714q32 0 50 -17.5t18 -46.5q0 -27 -18 -44.5t-50 -17.5q-31 0 -48.5 18t-17.5 44q0 29 17.5 46.5t48.5 17.5zM221 714q32 0 49.5 -17.5t17.5 -46.5q0 -27 -18 -44.5t-49 -17.5t-48.5 18t-17.5 44q0 29 17.5 46.5t48.5 17.5z" />
    <glyph glyph-name="igrave.sc" horiz-adv-x="229" 
d="M63 540h102v-540h-102v540zM95 770l64 -152l-66 -29l-80 142z" />
    <glyph glyph-name="imacron.sc" horiz-adv-x="227" 
d="M63 540h101v-540h-101v540zM-21 679h269v-72h-269v72z" />
    <glyph glyph-name="iogonek.sc" horiz-adv-x="229" 
d="M63 540h103v-540q-13 -8 -22 -22q-8 -18 -8 -35q0 -24 14 -47q15 -21 42 -36l-26 -37q-55 15 -79 41t-24 67q0 22 13 43q9 15 28 26h-41v540z" />
    <glyph glyph-name="itilde.sc" horiz-adv-x="229" 
d="M63 540h102v-540h-102v540zM116 613q-44 18 -78 18q-39 0 -68 -22l-31 49q53 47 107 47q35 0 77 -17q43 -18 80 -18q36 0 67 22l31 -50q-46 -46 -103 -46q-44 0 -82 17z" />
    <glyph glyph-name="dotlessi.sc" horiz-adv-x="229" 
d="M63 540h102v-540h-102v540z" />
    <glyph glyph-name="jcircumflex.sc" horiz-adv-x="478" 
d="M321 540h103v-320q0 -109 -65 -169q-63 -60 -181 -60q-91 0 -153 31l27 75q60 -22 122 -22q78 0 113 38q34 36 34 108v319zM257 570l-37 43l130 125h30l130 -125l-38 -43l-108 82z" />
    <glyph glyph-name="dotlessj.sc" horiz-adv-x="478" 
d="M321 540h103v-320q0 -109 -65 -169q-63 -60 -181 -60q-91 0 -153 31l27 75q60 -22 122 -22q78 0 113 38q34 36 34 108v319z" />
    <glyph glyph-name="kcommaaccent.sc" horiz-adv-x="615" 
d="M63 540h104v-211h129l161 211h118l-195 -250l201 -290h-121l-165 246h-128v-246h-104v540zM305 1q29 0 46 -16.5t17 -42.5q0 -17 -5 -30l-44 -113l-49 10l13 75q-40 11 -40 58q0 26 16.5 42.5t45.5 16.5z" />
    <glyph glyph-name="kgreenlandic.sc" horiz-adv-x="615" 
d="M63 540h104v-211h129l161 211h118l-195 -250l201 -290h-121l-165 246h-128v-246h-104v540z" />
    <glyph glyph-name="lacute.sc" horiz-adv-x="536" 
d="M63 540h103v-457h329v-83h-432v540zM78 603l64 152l82 -39l-80 -142z" />
    <glyph glyph-name="lcaron.sc" horiz-adv-x="536" 
d="M63 540h103v-457h329v-83h-432v540zM325 503q29 0 46 -16.5t17 -42.5q0 -17 -5 -30l-44 -113l-49 10l13 75q-40 11 -40 58q0 26 16.5 42.5t45.5 16.5z" />
    <glyph glyph-name="lcommaaccent.sc" horiz-adv-x="536" 
d="M63 540h103v-457h329v-83h-432v540zM267 -38q29 0 46 -16.5t17 -42.5q0 -17 -5 -30l-44 -113l-49 10l13 75q-40 11 -40 58q0 25 16.5 42t45.5 17z" />
    <glyph glyph-name="ldot.sc" horiz-adv-x="536" 
d="M63 540h103v-457h329v-83h-432v540zM323 367q30 0 47 -17t17 -44q0 -26 -17 -43t-47 -17q-31 0 -48 17t-17 43q0 27 17 44t48 17z" />
    <glyph glyph-name="lslash.sc" horiz-adv-x="545" 
d="M34 222l-21 71l58 17v230h104v-198l81 24l22 -72l-103 -30v-181h329v-83h-433v232z" />
    <glyph glyph-name="nacute.sc" horiz-adv-x="635" 
d="M63 540h97l314 -394v394h98v-540h-98l-314 398v-398h-97v540zM275 611l64 152l82 -39l-80 -142z" />
    <glyph glyph-name="napostrophe.sc" horiz-adv-x="691" 
d="M119 540h97l314 -394v394h98v-540h-98l-314 398v-398h-97v540zM55 721q29 0 46 -16.5t17 -42.5q0 -17 -5 -30l-44 -113l-49 10l13 75q-40 11 -40 58q0 26 16.5 42.5t45.5 16.5z" />
    <glyph glyph-name="ncaron.sc" horiz-adv-x="635" 
d="M63 540h97l314 -394v394h98v-540h-98l-314 398v-398h-97v540zM174 685l37 43l108 -82l108 82l37 -43l-130 -125h-30z" />
    <glyph glyph-name="ncommaaccent.sc" horiz-adv-x="635" 
d="M63 540h97l314 -394v394h98v-540h-98l-314 398v-398h-97v540zM311 -7q29 0 46 -16.5t17 -42.5q0 -17 -5 -30l-44 -113l-49 10l13 75q-40 11 -40 58q0 26 16.5 42.5t45.5 16.5z" />
    <glyph glyph-name="ntilde.sc" horiz-adv-x="635" 
d="M63 540h97l314 -394v394h98v-540h-98l-314 398v-398h-97v540zM312 606q-44 18 -78 18q-39 0 -68 -22l-31 49q53 47 107 47q35 0 77 -17q43 -18 80 -18q36 0 67 22l31 -50q-46 -46 -103 -46q-44 0 -82 17z" />
    <glyph glyph-name="oacute.sc" horiz-adv-x="656" 
d="M328 549q132 0 210 -78q75 -75 75 -202q0 -125 -75 -200q-78 -78 -210 -78t-210 78q-76 76 -76 200q0 126 76 202q78 78 210 78zM328 466q-84 0 -133 -49t-49 -148q0 -97 49 -146t133 -49q85 0 132 49q49 49 49 146q0 99 -49 148q-47 49 -132 49zM297 609l64 152l82 -39
l-80 -142z" />
    <glyph glyph-name="obreve.sc" horiz-adv-x="656" 
d="M328 549q132 0 210 -78q75 -75 75 -202q0 -125 -75 -200q-78 -78 -210 -78t-210 78q-76 76 -76 200q0 126 76 202q78 78 210 78zM328 466q-84 0 -133 -49t-49 -148q0 -97 49 -146t133 -49q85 0 132 49q49 49 49 146q0 99 -49 148q-47 49 -132 49zM182 709l73 9
q6 -33 25 -48q20 -15 48 -15q31 0 49 15q17 17 23 48l74 -9q-11 -63 -45 -93q-39 -34 -101 -34q-64 0 -103 36q-35 31 -43 91z" />
    <glyph glyph-name="ocircumflex.sc" horiz-adv-x="656" 
d="M328 549q132 0 210 -78q75 -75 75 -202q0 -125 -75 -200q-78 -78 -210 -78t-210 78q-76 76 -76 200q0 126 76 202q78 78 210 78zM328 466q-84 0 -133 -49t-49 -148q0 -97 49 -146t133 -49q85 0 132 49q49 49 49 146q0 99 -49 148q-47 49 -132 49zM220 572l-37 43l130 125
h30l130 -125l-38 -43l-108 82z" />
    <glyph glyph-name="odieresis.sc" horiz-adv-x="656" 
d="M328 549q132 0 210 -78q75 -75 75 -202q0 -125 -75 -200q-78 -78 -210 -78t-210 78q-76 76 -76 200q0 126 76 202q78 78 210 78zM328 466q-84 0 -133 -49t-49 -148q0 -97 49 -146t133 -49q85 0 132 49q49 49 49 146q0 99 -49 148q-47 49 -132 49zM220 708q32 0 50 -17.5
t18 -46.5q0 -27 -18 -44.5t-50 -17.5q-30 0 -48 18t-18 44q0 29 17.5 46.5t48.5 17.5zM434 708q32 0 49.5 -17.5t17.5 -46.5q0 -27 -18 -44.5t-49 -17.5q-30 0 -48 18t-18 44q0 29 17.5 46.5t48.5 17.5z" />
    <glyph glyph-name="ograve.sc" horiz-adv-x="656" 
d="M328 549q132 0 210 -78q75 -75 75 -202q0 -125 -75 -200q-78 -78 -210 -78t-210 78q-76 76 -76 200q0 126 76 202q78 78 210 78zM328 466q-84 0 -133 -49t-49 -148q0 -97 49 -146t133 -49q85 0 132 49q49 49 49 146q0 99 -49 148q-47 49 -132 49zM299 765l64 -152
l-66 -29l-80 142z" />
    <glyph glyph-name="ohungarumlaut.sc" horiz-adv-x="656" 
d="M328 549q132 0 210 -78q75 -75 75 -202q0 -125 -75 -200q-78 -78 -210 -78t-210 78q-76 76 -76 200q0 126 76 202q78 78 210 78zM328 466q-84 0 -133 -49t-49 -148q0 -97 49 -146t133 -49q85 0 132 49q49 49 49 146q0 99 -49 148q-47 49 -132 49zM247 598l42 165l82 -29
l-65 -156zM359 598l69 163l77 -35l-87 -150z" />
    </font>
</defs>
</svg>
